<?xml version="1.0" standalone="no"?>
<!DOCTYPE svg PUBLIC "-//W3C//DTD SVG 1.1//EN" "http://www.w3.org/Graphics/SVG/1.1/DTD/svg11.dtd" >
<svg>
<metadata>
Created by FontForge 20090914 at Tue Mar 12 17:43:01 2019
 By www-data
Copyright (c) 2019 by Creative LAB. All rights reserved.
</metadata>
<defs>
<font id="WeddingScript" horiz-adv-x="309" >
  <font-face 
    font-family="Wedding Script"
    font-weight="400"
    font-stretch="normal"
    units-per-em="1000"
    panose-1="2 0 5 6 0 0 0 2 0 4"
    ascent="750"
    descent="-250"
    x-height="226.001"
    cap-height="603.996"
    bbox="-1049 -496.998 1098 909.998"
    underline-thickness="50"
    underline-position="-50"
    unicode-range="U+000D-U+E221"
  />
<missing-glyph horiz-adv-x="197" 
 />
    <glyph glyph-name=".notdef" horiz-adv-x="197" 
 />
    <glyph glyph-name="NULL" horiz-adv-x="0" 
 />
    <glyph glyph-name="NULL" horiz-adv-x="0" 
 />
    <glyph glyph-name="nonmarkingreturn" unicode="&#xd;" horiz-adv-x="197" 
 />
    <glyph glyph-name="space" unicode=" " horiz-adv-x="197" 
 />
    <glyph glyph-name="exclam" unicode="!" horiz-adv-x="183" 
d="M60 65c-8 0 -12 2.66797 -12 8.00098c-0.666992 2.66699 -1 7 -1 13c0 19.333 3.66699 40.666 11 63.999s15.666 45.666 24.999 66.999c9.33301 24 18.333 48.833 27 74.5s13.667 50.834 15 75.501c0.666992 4 2.83398 7.16699 6.50098 9.5s8.16699 3.5 13.5 3.5
c11.333 0 17 -5 17 -15c0 -32.667 -4.83301 -62 -14.5 -88s-20.167 -51.333 -31.5 -76c-9.33301 -20 -18 -40.333 -26 -61s-13 -42.667 -15 -66c-3.33301 -6 -8.33301 -9 -15 -9zM57 55.001c8.66699 0 15.167 -2.83301 19.5 -8.5s6.5 -11.834 6.5 -18.501
c0 -6 -2.16699 -11.833 -6.5 -17.5s-10.833 -8.5 -19.5 -8.5c-9.33301 0 -16 2.83301 -20 8.5s-6 11.5 -6 17.5c0 6.66699 2 12.834 6 18.501s10.667 8.5 20 8.5z" />
    <glyph glyph-name="quotedbl" unicode="&#x22;" horiz-adv-x="199" 
d="M50 145c-6 0 -9.00098 2.66504 -9.00098 7.99805c0 2 2.33301 5.33301 7 10l11 10.5c4 3.66699 6.66699 8.16699 8 13.5c-7.33301 1.33301 -12.666 4.5 -15.999 9.5s-5 10.167 -5 15.5c0 6 2.33301 12 7 18s11.667 9 21 9c7.33301 0 12.833 -3 16.5 -9s5.5 -13 5.5 -21
c0 -6.66699 -1.5 -13.667 -4.5 -21s-6.83301 -14.166 -11.5 -20.499s-9.66699 -11.666 -15 -15.999s-10.333 -6.5 -15 -6.5zM109.999 144.998c-5.33301 0 -7.99707 2.66602 -7.99707 7.99902l8 12c3.33301 3.33301 6.5 6.66602 9.5 9.99902s5.5 7.33301 7.5 12
c-7.33301 1.33301 -12.5 4.5 -15.5 9.5s-4.5 10.167 -4.5 15.5c0 6 2.16699 12 6.5 18s11.166 9 20.499 9c8 0 13.833 -3 17.5 -9s5.5 -13 5.5 -21c0 -6.66699 -1.5 -13.667 -4.5 -21s-6.83301 -14.166 -11.5 -20.499s-9.83398 -11.666 -15.501 -15.999
s-10.834 -6.5 -15.501 -6.5z" />
    <glyph glyph-name="numbersign" unicode="#" horiz-adv-x="335" 
d="M280 64c8 -1.33301 11.9941 -5.33691 11.9941 -12.0039c0 -8.66699 -4.33301 -13 -13 -13l-39 3l-43 4l-22 -61c-3.33301 -6 -7.33301 -9 -12 -9c-8.66699 0 -13 4 -13 12c0 2 0.333008 3.66699 1 5l19 55c-7.33301 0.666992 -14 1.16699 -20 1.5
s-12.333 1.16602 -19 2.49902c-1.33301 0 -2.5 0.166992 -3.5 0.5s-2.16699 0.5 -3.5 0.5l-24 -68c-3.33301 -6 -7.33301 -9 -12 -9c-8.66699 0 -13 4 -13 12c0 2 0.333008 3.66699 1 5l22 61c-1.33301 0 -3 0.166992 -5 0.5s-3.66699 0.5 -5 0.5
c-11.333 0.666992 -22.833 1.83398 -34.5 3.50098s-17.5 5.83398 -17.5 12.501c0 3.33301 1.16699 6.33301 3.5 9s5.83301 4 10.5 4l57 -6c3.33301 8 6.33301 15.833 9 23.5l8 23.5c-2 0 -4 0.166992 -6 0.5s-4.33301 0.5 -7 0.5c-7.33301 0 -15.5 0.333008 -24.5 1
s-17.167 1.83398 -24.5 3.50098s-13.5 3.5 -18.5 5.5s-7.5 4.66699 -7.5 8c0 8.66699 4.66699 13 14 13l42 -4l41 -3l4 14c1.33301 6 3.16602 12.167 5.49902 18.5s4.66602 12.166 6.99902 17.499s4.83301 9.83301 7.5 13.5s5.33398 5.5 8.00098 5.5
c3.33301 0 6.33301 -1.16699 9 -3.5s4 -5.16602 4 -8.49902c0 -6.66699 -1.66699 -14.667 -5 -24s-6.66602 -17.666 -9.99902 -24.999c-2 -4 -3.33301 -7.33301 -4 -10l22 -3c4.66699 0 8.83398 -0.333008 12.501 -1s7.83398 -1 12.501 -1l5 17l6.5 19.5
c2.33301 7 4.83301 13.5 7.5 19.5s5.33398 10.833 8.00098 14.5s5.33398 5.5 8.00098 5.5c3.33301 0 6.33301 -1.16699 9 -3.5s4 -5.16602 4 -8.49902c0 -7.33301 -1.66699 -15.5 -5 -24.5l-10 -26.5l-7 -15h9c10.667 0 21.834 -0.833008 33.501 -2.5
s17.5 -6.16699 17.5 -13.5c0 -8.66699 -4.33301 -13 -13 -13l-27.5 2c-9 0.666992 -18.5 1.66699 -28.5 3l-7.5 -23c-2.33301 -7.33301 -5.16602 -15.333 -8.49902 -24l34 -3zM144.994 111.996l-12.0029 -36c3.33301 0 7 -0.333008 11 -1s7.66699 -1 11 -1
c4.66699 -0.666992 8.83398 -1.16699 12.501 -1.5s7.83398 -0.5 12.501 -0.5c3.33301 7.33301 5.83301 13.833 7.5 19.5s3.83398 12.167 6.50098 19.5l3 8l-24 2c-3.33301 0 -7.33301 0.333008 -12 1s-8.66699 1 -12 1z" />
    <glyph glyph-name="dollar" unicode="$" horiz-adv-x="222" 
d="M170 228c-2 -3.33301 -4.33203 -5.00293 -6.99902 -5.00293c-2 0 -3.83301 1 -5.5 3s-1.83398 4.66699 -0.500977 8c7.33301 15.333 11 29.333 11 42c0 3.33301 -0.666992 7.66602 -2 12.999l-37 -104l5 -8c10.667 -18.667 20.5 -37.667 29.5 -57s13.5 -38 13.5 -56
c0 -11.333 -2.33301 -21.5 -7 -30.5s-10.834 -16.833 -18.501 -23.5s-16.167 -11.667 -25.5 -15s-18.666 -5 -27.999 -5c-14.667 0 -28.667 4.83301 -42 14.5s-20 25.167 -20 46.5c0 14 4 26.333 12 37s17 17.334 27 20.001c3.33301 10.667 7 20.834 11 30.501
s7.66699 19.834 11 30.501l-9 17l-16.5 38c-5 12 -7.5 24 -7.5 36c0 10.667 2.16699 20 6.5 28s9.83301 14.833 16.5 20.5s14 9.83398 22 12.501s16 4 24 4c5.33301 0 11.333 -0.666992 18 -2l9 24c2.66699 6 6.66699 9 12 9c3.33301 0 6.33301 -1.33301 9 -4s4 -7 4 -13
l-12 -31c3.33301 -5.33301 5.83301 -10 7.5 -14s2.5 -9.33301 2.5 -16c0 -16 -4.33301 -32.667 -13 -50zM146.001 307.997c-2 0.666992 -5 1.00098 -9 1.00098c-10 0 -19.167 -3.66699 -27.5 -11s-12.5 -18 -12.5 -32c0 -6.66699 1.66699 -14.334 5 -23.001
s7.33301 -17.667 12 -27zM101.001 103.998c7.33301 -4.66699 13.166 -10.832 17.499 -18.499s6.5 -15.834 6.5 -24.501c0 -2 -0.5 -5 -1.5 -9s-2.5 -8 -4.5 -12s-4.66699 -7.66699 -8 -11s-7.33301 -5 -12 -5s-7 2.33301 -7 7c0 2.66699 2.33301 6.33398 7 11.001
c3.33301 3.33301 6.16602 6.66602 8.49902 9.99902s3.5 6.33301 3.5 9c0 5.33301 -1.33301 10.5 -4 15.5s-6 9.16699 -10 12.5l-12 -32c-1.33301 -3.33301 -3.16602 -5.5 -5.49902 -6.5s-4.5 -1.5 -6.5 -1.5c-3.33301 0 -6.5 1 -9.5 3s-4.5 4.66699 -4.5 8
c0 2.66699 0.666992 4.66699 2 6l-1 -1l9 25c-5.33301 -3.33301 -9.66602 -8.5 -12.999 -15.5s-5 -14.167 -5 -21.5c0 -15.333 5 -27.166 15 -35.499s21 -12.5 33 -12.5c10.667 0 20.5 3.66699 29.5 11s13.5 18.666 13.5 33.999c0 11.333 -2.83301 24.5 -8.5 39.5
s-12.167 30.833 -19.5 47.5z" />
    <glyph glyph-name="percent" unicode="%" horiz-adv-x="310" 
d="M92 288c0 11.333 3.99902 21.667 11.999 31c-9.33301 -8 -16.666 -18.5 -21.999 -31.5s-8 -24.167 -8 -33.5s2.33301 -14 7 -14c6.66699 0 16 6.66699 28 20c-11.333 8 -17 17.333 -17 28zM123.999 346.001c1.33301 -1.33301 2.66504 -2.33301 3.99805 -3s2 -2 2 -4
c0 -1.33301 -0.166992 -2.16602 -0.5 -2.49902s-0.5 -0.833008 -0.5 -1.5h3c7.33301 0 12.333 -2 15 -6s4 -8.66699 4 -14c0 -7.33301 -1.83301 -15.166 -5.5 -23.499s-7.16699 -15.166 -10.5 -20.499c11.333 1.33301 23 5.66602 35 12.999s20.667 14.666 26 21.999
c1.33301 2.66699 2.16602 5.33398 2.49902 8.00098s1.16602 5.66699 2.49902 9c1.33301 6.66699 3.66602 13.167 6.99902 19.5s7.66602 9.5 12.999 9.5c3.33301 0 6.33301 -1.33301 9 -4s4 -5.66699 4 -9c0 -0.666992 -0.166992 -1.33398 -0.5 -2.00098
s-0.5 -1.33398 -0.5 -2.00098l-124 -350c-1.33301 -3.33301 -3.16602 -5.5 -5.49902 -6.5s-4.5 -1.5 -6.5 -1.5c-9.33301 0 -14 4 -14 12c0 2.66699 0.666992 4.66699 2 6l-1 -1l100 280c-9.33301 -5.33301 -19.166 -9.66602 -29.499 -12.999s-20.166 -5.33301 -29.499 -6
c-9.33301 -11.333 -19.166 -20 -29.499 -26s-19.833 -9 -28.5 -9c-9.33301 0 -17.166 3.16699 -23.499 9.5s-9.5 16.166 -9.5 29.499c0 8.66699 1.83301 18.167 5.5 28.5s8.83398 20 15.501 29s14.5 16.5 23.5 22.5s19.167 9 30.5 9c4.66699 0 9 -0.666992 13 -2h2z
M217.998 82.001c0 1.33301 0.666992 4 2 8c-8.66699 -9.33301 -14.834 -19 -18.501 -29s-5.5 -18.667 -5.5 -26c0 -10 3 -15 9 -15s12 2.83301 18 8.5s11.5 12.5 16.5 20.5s9.16699 16 12.5 24s5 14 5 18c0 4.66699 -1.66699 7 -5 7
c-3.33301 -1.33301 -6.16602 -3.5 -8.49902 -6.5l-6.5 -8.5c-3.33301 -6.66699 -7 -10 -11 -10c-5.33301 0 -8 3 -8 9zM250.998 117.001c0 -0.666992 -0.166016 -1.16699 -0.499023 -1.5s-0.5 -0.833008 -0.5 -1.5h3c4 0 8.16699 -1.83301 12.5 -5.5s6.5 -9.5 6.5 -17.5
s-2.33301 -17.333 -7 -28s-11 -20.834 -19 -30.501s-17 -17.667 -27 -24s-20 -9.5 -30 -9.5c-11.333 0 -19.5 3.5 -24.5 10.5s-7.5 16.167 -7.5 27.5c0 10 1.83301 20.333 5.5 31s9 20.167 16 28.5s15.333 15.333 25 21s20.5 8.5 32.5 8.5
c3.33301 0 6.66602 -0.666992 9.99902 -2s5 -3.66602 5 -6.99902zM117.999 271.001c0 0.666992 0.333008 1 1 1h2zM107.999 287.001c0 -7.33301 3.66602 -12.333 10.999 -15c3.33301 5.33301 6.83301 12.166 10.5 20.499s5.5 15.5 5.5 21.5c0 4 -1 6 -3 6
c-5.33301 0 -10.666 -3.66699 -15.999 -11s-8 -14.666 -8 -21.999z" />
    <glyph glyph-name="ampersand" unicode="&#x26;" horiz-adv-x="335" 
d="M114 176l-4 -2c0 0.666992 -0.166992 1.16699 -0.5 1.5s-0.5 0.833008 -0.5 1.5zM222 83c-6.66699 0 -14.6699 1.00098 -24.0029 3.00098s-19.166 6.33301 -29.499 13s-20.666 15.834 -30.999 27.501s-19.5 27.5 -27.5 47.5c-13.333 -10 -22.833 -21.5 -28.5 -34.5
s-8.5 -26.167 -8.5 -39.5c0 -11.333 2 -22.333 6 -33s9.5 -20.167 16.5 -28.5s15 -15 24 -20s18.833 -7.5 29.5 -7.5c19.333 0 36.5 6.66699 51.5 20s25.167 30.666 30.5 51.999c-1.33301 -0.666992 -2.66602 -0.833984 -3.99902 -0.500977s-3 0.5 -5 0.5zM208.997 169.001
c-3.33301 0.666992 -4.99902 2.66602 -4.99902 5.99902c0 1.33301 1 3 3 5s3.66699 3 5 3c7.33301 0 13.5 -2.66699 18.5 -8s9 -11.666 12 -18.999s5.16699 -14.833 6.5 -22.5s2 -13.834 2 -18.501v-7c10.667 5.33301 18.334 13.333 23.001 24s7 22.334 7 35.001
c0 8.66699 -1.83301 18 -5.5 28s-8.5 19.667 -14.5 29c-1.33301 1.33301 -2 3 -2 5c0 5.33301 2.66699 8 8 8c1.33301 0 2.16602 -0.333008 2.49902 -1s1.16602 -1.33398 2.49902 -2.00098c8.66699 -11.333 15 -22.666 19 -33.999s6 -22.333 6 -33
c0 -18 -4.16699 -33.833 -12.5 -47.5s-20.166 -23.834 -35.499 -30.501c-7.33301 -31.333 -21.5 -55 -42.5 -71s-43.167 -24 -66.5 -24c-14 0 -27.333 2.16699 -40 6.5s-24 10.833 -34 19.5s-18 19.167 -24 31.5s-9 26.166 -9 41.499c0 26 7.16699 46 21.5 60
s30.833 26.333 49.5 37c-3.33301 10.667 -6.33301 23 -9 37s-4 27.667 -4 41c0 24 5 45.167 15 63.5s27.667 27.5 53 27.5c19.333 0 33.833 -6.16699 43.5 -18.5s14.5 -27.166 14.5 -44.499c0 -24.667 -7.5 -45.167 -22.5 -61.5s-32.167 -30.166 -51.5 -41.499
c2 -7.33301 5.83301 -16.333 11.5 -27s12.5 -20.834 20.5 -30.501s16.5 -18 25.5 -25s18.167 -10.5 27.5 -10.5c4 0 6.33301 1.16699 7 3.5s1 5.5 1 9.5c0 11.333 -1.83301 22.333 -5.5 33s-10.834 18.334 -21.501 23.001zM135.998 208c0.666992 0 1.66699 0.666992 3 2
l2 -4zM130.998 268c0 -19.333 2.66699 -38.666 8 -57.999c16.667 10 31.167 21.833 43.5 35.5s18.5 30.5 18.5 50.5c0 13.333 -3.33301 24.166 -10 32.499s-14 12.5 -22 12.5c-9.33301 0 -18 -6.16699 -26 -18.5s-12 -30.5 -12 -54.5z" />
    <glyph glyph-name="quotesingle" unicode="'" horiz-adv-x="146" 
d="M53 144c-6 0 -9.00098 2.66895 -9.00098 8.00195c0.666992 1.33301 1.66699 2.66602 3 3.99902s2.33301 2.66602 3 3.99902s1.66699 2.66602 3 3.99902c3.33301 3.33301 6.5 6.66602 9.5 9.99902s5.5 7.33301 7.5 12c-7.33301 1.33301 -12.666 4.5 -15.999 9.5
s-5 10.167 -5 15.5c0 6 2.33301 12 7 18s11.667 9 21 9c8 0 13.667 -3 17 -9s5 -13 5 -21c0 -6.66699 -1.5 -13.667 -4.5 -21s-6.83301 -14.166 -11.5 -20.499s-9.66699 -11.666 -15 -15.999s-10.333 -6.5 -15 -6.5z" />
    <glyph glyph-name="parenleft" unicode="(" horiz-adv-x="149" 
d="M87 16c1.33301 0 2.83203 -1 4.49902 -3s2.5 -4 2.5 -6s-1 -3.66699 -3 -5s-3.66699 -2 -5 -2c-19.333 1.33301 -33 6.33301 -41 15s-12 23 -12 43c0 16.667 2.66699 35.667 8 57s12.5 43 21.5 65s19.333 43.5 31 64.5s23.667 39.833 36 56.5s24.5 30 36.5 40
s23.333 15 34 15c3.33301 0 8.5 -1.33301 15.5 -4s10.5 -6.66699 10.5 -12s-2.66699 -8 -8 -8c-2 0 -3.66699 0.666992 -5 2l-6 3c-6 0 -13.667 -5.16699 -23 -15.5s-19.166 -23.833 -29.499 -40.5s-20.833 -35.5 -31.5 -56.5s-20.167 -42.167 -28.5 -63.5
s-15.166 -41.833 -20.499 -61.5s-8 -36.5 -8 -50.5c0 -9.33301 1.66699 -17 5 -23s8.66602 -9.33301 15.999 -10z" />
    <glyph glyph-name="parenright" unicode=")" horiz-adv-x="216" 
d="M124 341c-4 1.33301 -6.00098 4.33398 -6.00098 9.00098s2.66699 7 8 7c19.333 -1.33301 33 -6.33301 41 -15s12 -23 12 -43c0 -17.333 -2.66699 -36.5 -8 -57.5s-12.666 -42.667 -21.999 -65s-19.833 -44 -31.5 -65s-23.667 -39.667 -36 -56
s-24.666 -29.5 -36.999 -39.5s-23.5 -15 -33.5 -15c-3.33301 0 -8.33301 1.33301 -15 4s-10 6.66699 -10 12s2.66699 8 8 8c0.666992 0 1.5 -0.333008 2.5 -1s2.16699 -1.33398 3.5 -2.00098l-1 1c2.66699 -1.33301 4.33398 -2 5.00098 -2c6 0 13.667 5.16699 23 15.5
s19.166 23.833 29.499 40.5s20.833 35.334 31.5 56.001s20.167 41.667 28.5 63s15.166 41.666 20.499 60.999s8 36 8 50c0 10 -1.5 18 -4.5 24s-8.16699 9.33301 -15.5 10h-1z" />
    <glyph glyph-name="asterisk" unicode="*" horiz-adv-x="169" 
d="M98 312c2 2.66699 4.33398 4.00098 7.00098 4.00098s5.16699 -1.16699 7.5 -3.5s3.5 -5.16602 3.5 -8.49902c0 -2.66699 -1.33301 -5.33398 -4 -8.00098l-5 -4h1c5.33301 0 9.66602 -0.666992 12.999 -2s5 -4.66602 5 -9.99902s-1.83301 -8.5 -5.5 -9.5
s-7.5 -1.5 -11.5 -1.5h-2c2 -2 4 -4.33301 6 -7s3 -5 3 -7s-1.33301 -4.33301 -4 -7s-5 -4 -7 -4c-4.66699 0 -9 2.66699 -13 8v-3c0 -4.66699 -0.5 -8.33398 -1.5 -11.001s-3.83301 -4 -8.5 -4c-5.33301 0 -8.66602 1.66699 -9.99902 5s-2 7.66602 -2 12.999
c-2 -2 -4.33301 -3.83301 -7 -5.5s-5 -2.5 -7 -2.5s-4.33301 1 -7 3s-4 4.66699 -4 8s3 8 9 14h-2c-4.66699 0 -8.66699 0.5 -12 1.5s-5 4.16699 -5 9.5s1.5 8.66602 4.5 9.99902s7.16699 2 12.5 2c-4.66699 2.66699 -7 6.66699 -7 12c0 2.66699 1 5.16699 3 7.5
s4.66699 3.5 8 3.5c2.66699 0 5 -1 7 -3s4.33301 -4 7 -6v2c0 4 0.666992 8 2 12s4.66602 6 9.99902 6c4.66699 0 7.5 -1.66699 8.5 -5s1.5 -6.66602 1.5 -9.99902v-4z" />
    <glyph glyph-name="plus" unicode="+" horiz-adv-x="246" 
d="M110 152c0 4 1.33301 7.16699 4 9.5s5 3.5 7 3.5c3.33301 0 6.33301 -1.16699 9 -3.5s4 -5.5 4 -9.5v-54h54c4 0 7.16699 -1.33301 9.5 -4s3.5 -5.66699 3.5 -9c0 -2.66699 -1.16699 -5.33398 -3.5 -8.00098s-5.5 -4 -9.5 -4h-54v-53c0 -4.66699 -1.33301 -8 -4 -10
s-5.66699 -3 -9 -3c-2 0 -4.33301 1 -7 3s-4 5.33301 -4 10v53h-54c-4.66699 0 -8 1.33301 -10 4s-3 5.33398 -3 8.00098c0 3.33301 1 6.33301 3 9s5.33301 4 10 4h54v54z" />
    <glyph glyph-name="comma" unicode="," horiz-adv-x="111" 
d="M31 -86c-5.33301 0 -7.99902 2.66895 -7.99902 8.00195c0.666992 1.33301 1.66699 2.66602 3 3.99902s2.33301 2.66602 3 3.99902s1.66699 2.66602 3 3.99902c3.33301 3.33301 6.5 6.66602 9.5 9.99902s5.5 7.33301 7.5 12c-7.33301 1.33301 -12.666 4.5 -15.999 9.5
s-5 10.167 -5 15.5c0 6 2.33301 12 7 18s11.667 9 21 9c7.33301 0 12.833 -3 16.5 -9s5.5 -13 5.5 -21c0 -6.66699 -1.5 -13.667 -4.5 -21s-6.83301 -14.166 -11.5 -20.499s-9.83398 -11.666 -15.501 -15.999s-10.834 -6.5 -15.501 -6.5z" />
    <glyph glyph-name="hyphen" unicode="-" horiz-adv-x="263" 
d="M63 68c-4.66699 0 -8 1.33301 -10 4s-3 5.33398 -3 8.00098c0 3.33301 1 6.33301 3 9s5.33301 4 10 4h132c4 0 7.16699 -1.33301 9.5 -4s3.5 -5.66699 3.5 -9c0 -2.66699 -1.16699 -5.33398 -3.5 -8.00098s-5.5 -4 -9.5 -4h-132z" />
    <glyph glyph-name="period" unicode="." horiz-adv-x="137" 
d="M63 52c9.33301 0 16.166 -2.83301 20.499 -8.5s6.5 -11.834 6.5 -18.501c0 -6 -2.16699 -11.833 -6.5 -17.5s-11.166 -8.5 -20.499 -8.5s-16 2.83301 -20 8.5s-6 11.5 -6 17.5c0 6.66699 2 12.834 6 18.501s10.667 8.5 20 8.5z" />
    <glyph glyph-name="slash" unicode="/" horiz-adv-x="210" 
d="M50 7c-1.33301 -3.33301 -3 -5.5 -5 -6.5s-4.33301 -1.5 -7 -1.5c-8.66699 0 -13 4 -13 12c0 2 0.333008 3.66699 1 5l62 174.5l62 174.5c2.66699 5.33301 6.66699 8 12 8c8 0 12 -5.33301 12 -16z" />
    <glyph glyph-name="zero" unicode="0" horiz-adv-x="226" 
d="M188 319c14.667 -28 22 -64.001 22 -108.001c0 -23.333 -2 -47.5 -6 -72.5s-10.5 -47.833 -19.5 -68.5s-20.667 -37.667 -35 -51s-31.5 -20 -51.5 -20c-14 0.666992 -26.333 5.33398 -37 14.001s-19.334 20 -26.001 34s-11.667 30 -15 48s-5 36.667 -5 56
c0 24.667 2.66699 49.667 8 75s12.833 48 22.5 68s21.334 36.333 35.001 49s29.167 19 46.5 19c12 0 23.333 -3.33301 34 -10s19.667 -17.667 27 -33zM91 300.999c-11.333 -19.333 -20.002 -42.668 -26.002 -70.001s-9 -54.333 -9 -81c0 -17.333 1.33301 -33.833 4 -49.5
s6.33398 -29.667 11.001 -42s10.5 -22.166 17.5 -29.499s15.167 -11 24.5 -11c11.333 0 21.833 5.5 31.5 16.5s18.167 25.5 25.5 43.5s13 38.5 17 61.5s6 46.833 6 71.5c0 36 -4.66699 66.667 -14 92s-22.666 38 -39.999 38c-15.333 0 -31.333 -13.667 -48 -41v1z" />
    <glyph glyph-name="one" unicode="1" horiz-adv-x="120" 
d="M15 258c-1.33301 -3.33301 -3.66602 -4.99512 -6.99902 -4.99512c-6 0 -9 3 -9 9c5.33301 17.333 13.833 30.166 25.5 38.499s24.167 14.833 37.5 19.5c4 23.333 10.167 39.333 18.5 48s16.833 13 25.5 13c7.33301 0 13.5 -2.66699 18.5 -8s7.5 -12 7.5 -20
c0 -6.66699 -2.16699 -13 -6.5 -19s-12.5 -11.667 -24.5 -17l-30 -231c0 -3.33301 -0.333008 -6.83301 -1 -10.5s-1 -6.83398 -1 -9.50098c-0.666992 -7.33301 -1.33398 -15.333 -2.00098 -24s-2.16699 -16.834 -4.5 -24.501s-5.66602 -14 -9.99902 -19
s-10.166 -7.5 -17.499 -7.5c-9.33301 0 -14 4.33301 -14 13c0 4 0.5 9.16699 1.5 15.5s2.16699 14.5 3.5 24.5c1.33301 5.33301 2.16602 11.166 2.49902 17.499s1.16602 13.5 2.49902 21.5l29 219c-10.667 -5.33301 -20 -10.833 -28 -16.5s-13.667 -14.834 -17 -27.501z
M99 333.005c1.33301 0 3.33301 0.666992 6 2c-1.33301 -2.66699 -2 -4.66699 -2 -6zM117 359.005c-3.33301 0 -7.33301 -7.99902 -12 -23.999c4 2 7 5.16699 9 9.5s3 8.16602 3 11.499v3z" />
    <glyph glyph-name="two" unicode="2" horiz-adv-x="335" 
d="M123 258c-0.666992 -2 -1.83398 -3.49707 -3.50098 -4.49707s-3.16699 -1.5 -4.5 -1.5c-4.66699 0 -7 3 -7 9c6 34 18.167 59.333 36.5 76s37.166 25 56.499 25c18.667 0 34.5 -6.66699 47.5 -20s19.5 -33 19.5 -59c0 -16 -3.66699 -34.167 -11 -54.5
s-17 -41.333 -29 -63s-25.833 -43 -41.5 -64s-32.167 -39.833 -49.5 -56.5c12 -6.66699 23 -11.334 33 -14.001s19.333 -4 28 -4c22.667 0 41.834 9 57.501 27s32.834 43 51.501 75v-1c0.666992 3.33301 3.33398 5 8.00098 5s7 -3.33301 7 -10
c-18.667 -34.667 -37.834 -62.834 -57.501 -84.501s-44.834 -32.5 -75.501 -32.5c-11.333 0 -23 1.33301 -35 4s-25 7.66699 -39 15c-12 -10 -23 -16.833 -33 -20.5s-18.667 -5.5 -26 -5.5c-13.333 0 -23.166 4 -29.499 12s-9.5 17 -9.5 27
c0 9.33301 3.16699 17.833 9.5 25.5s16.5 11.5 30.5 11.5s30.667 -5 50 -15c14 14 28.167 30.5 42.5 49.5s27.5 38.667 39.5 59s21.667 40.666 29 60.999s11 39.166 11 56.499c0 18.667 -4 32.834 -12 42.501s-17.333 14.5 -28 14.5c-13.333 0 -26.333 -7 -39 -21
s-21.667 -35.333 -27 -64zM90 39.0029c-1.33301 0 -2.66699 0.666992 -4 2l3 3zM49.999 22.0029c4 0 9.16895 1.33203 15.502 3.99902s13.166 7.66699 20.499 15c-13.333 6.66699 -24 10 -32 10c-6.66699 0 -11.5 -1.66699 -14.5 -5s-4.5 -6.66602 -4.5 -9.99902
s1.16699 -6.5 3.5 -9.5s6.16602 -4.5 11.499 -4.5z" />
    <glyph glyph-name="three" unicode="3" horiz-adv-x="263" 
d="M103 263c0 -5.33301 -2.33496 -8.00488 -7.00195 -8.00488c-5.33301 0 -8 2.66699 -8 8c0 14.667 2.16699 28.334 6.5 41.001s10.5 23.667 18.5 33s17.333 16.666 28 21.999s22.334 8 35.001 8c21.333 0 37.333 -7 48 -21s16 -30.667 16 -50
c0 -16.667 -3.66699 -33.667 -11 -51s-19.666 -32.666 -36.999 -45.999c12.667 -10 21.667 -22.167 27 -36.5s8 -29.166 8 -44.499s-2.5 -30.333 -7.5 -45s-12.333 -27.667 -22 -39s-21.334 -20.666 -35.001 -27.999s-29.167 -11 -46.5 -11c-30 0 -54.333 9.33301 -73 28
s-28 43.334 -28 74.001c0 2.66699 0.166992 6.16699 0.5 10.5s0.833008 8.5 1.5 12.5s1.83398 7.5 3.50098 10.5s3.83398 4.5 6.50098 4.5c5.33301 0 8 -3 8 -9c-2 -10 -3 -19 -3 -27c0 -24 6.83301 -43.667 20.5 -59s30.167 -23 49.5 -23
c12.667 0 24.334 3.16699 35.001 9.5s19.667 14.833 27 25.5s13.166 22.5 17.499 35.5s6.5 26.167 6.5 39.5c0 10.667 -1.33301 21 -4 31s-7.33398 18.667 -14.001 26c-17.333 -8.66699 -32.666 -13 -45.999 -13c-11.333 0 -20 2.83301 -26 8.5s-9 11.834 -9 18.501
s3 12.834 9 18.501s14.667 8.5 26 8.5c6 0 12.833 -0.833008 20.5 -2.5s16.167 -4.5 25.5 -8.5c9.33301 10 17.333 22.833 24 38.5s10 30.834 10 45.501c0 17.333 -3.83301 30.166 -11.5 38.499s-15.834 12.5 -24.501 12.5c-7.33301 0 -14.833 -2.16699 -22.5 -6.5
s-14.667 -10.333 -21 -18s-11.5 -16.834 -15.5 -27.501s-6 -22 -6 -34zM154.998 194.995c-1.33301 1.33301 -2.66699 2 -4 2l4 3v-5zM119.997 184.995c3.33301 0 7.66699 0.831055 13 2.49805s11.333 4.83398 18 9.50098c-7.33301 4.66699 -13.333 7.66699 -18 9
s-8.66699 2 -12 2c-6 0 -10.167 -1.16699 -12.5 -3.5s-3.5 -5.16602 -3.5 -8.49902c0 -7.33301 5 -11 15 -11z" />
    <glyph glyph-name="four" unicode="4" horiz-adv-x="308" 
d="M157 357c0.666992 2.66699 3.16699 4.83398 7.5 6.50098s9.16602 2.5 14.499 2.5c12 0 18 -3.66699 18 -11c-5.33301 -28 -14.666 -58.167 -27.999 -90.5s-27.666 -61.166 -42.999 -86.499c3.33301 -0.666992 6.83301 -1 10.5 -1h11.5c10.667 0 21.667 0.666992 33 2
s23.666 4.66602 36.999 9.99902l28 172c0.666992 2 3.16699 4 7.5 6s9.16602 3 14.499 3c11.333 0 17 -4 17 -12l-56 -352c-0.666992 -2 -3.33398 -3.66699 -8.00098 -5s-9.66699 -2 -15 -2c-11.333 0 -17 3.33301 -17 10l26 163c-11.333 -3.33301 -23 -5.83301 -35 -7.5
s-23 -2.5 -33 -2.5c-5.33301 0 -10.5 0.166992 -15.5 0.5s-9.83301 0.833008 -14.5 1.5c-13.333 -15.333 -25.666 -26.5 -36.999 -33.5s-21.666 -10.5 -30.999 -10.5c-10.667 0 -18.834 3.16699 -24.501 9.5s-8.5 13.5 -8.5 21.5c0 8.66699 3.83301 16.5 11.5 23.5
s20.834 10.5 39.501 10.5c3.33301 0 6.5 -0.166992 9.5 -0.5s6.5 -0.833008 10.5 -1.5c15.333 25.333 29.333 53.666 42 84.999s22 61 28 89zM79 169h-3l4 5l2 -5h-3zM39 142c3.33301 0 8.33301 2 15 6s14 11 22 21c-6.66699 1.33301 -10.667 2 -12 2
c-12 0 -20.5 -2.5 -25.5 -7.5s-7.5 -9.83301 -7.5 -14.5s2.66699 -7 8 -7z" />
    <glyph glyph-name="five" unicode="5" horiz-adv-x="262" 
d="M17 143c1.33301 4 3.99902 5.99902 7.99902 5.99902c4.66699 0 7 -2.33301 7 -7c0 -8 -1 -15.333 -3 -22c-0.666992 -1.33301 -1 -3.16602 -1 -5.49902s-0.333008 -4.16602 -1 -5.49902c-0.666992 -2.66699 -1 -4.66699 -1 -6c0 -13.333 2.33301 -25.333 7 -36
s10.834 -19.834 18.501 -27.501s16.5 -13.667 26.5 -18s20.333 -6.5 31 -6.5c14 0 26.5 3.5 37.5 10.5s20.5 16 28.5 27s14 23 18 36s6 25.833 6 38.5c0 16.667 -3.16699 30.334 -9.5 41.001s-14.5 19 -24.5 25s-20.833 10.167 -32.5 12.5s-22.834 3.5 -33.501 3.5h-17.5
c-5.66699 0 -11.167 -0.333008 -16.5 -1c-4.66699 0 -9.16699 -0.166992 -13.5 -0.5s-8.16602 -0.5 -11.499 -0.5s-6 0.333008 -8 1s-3 3 -3 7c0 3.33301 0.333008 5.66602 1 6.99902l26 132c1.33301 3.33301 5.33301 5 12 5c6 0 15 -1 27 -3
c9.33301 -1.33301 19.5 -2.66602 30.5 -3.99902s22.833 -2 35.5 -2c11.333 0 22.833 0.833008 34.5 2.5s23.167 5.16699 34.5 10.5c5.33301 0 8 -2.66699 8 -8c0 -4 -3.16699 -7.33301 -9.5 -10s-13.666 -4.83398 -21.999 -6.50098s-17 -2.83398 -26 -3.50098
s-15.833 -1 -20.5 -1c-11.333 0 -22.5 0.5 -33.5 1.5s-21.833 2.16699 -32.5 3.5l-24 -115c11.333 2 21.666 3.66699 30.999 5s18.666 2 27.999 2c20 0 37 -2.66699 51 -8s25.5 -12.333 34.5 -21s15.5 -18.667 19.5 -30s6 -23.333 6 -36
c0 -17.333 -3.16699 -34.166 -9.5 -50.499s-15.166 -31 -26.499 -44s-24.5 -23.5 -39.5 -31.5s-31.5 -12 -49.5 -12c-30.667 0 -55.667 9.83301 -75 29.5s-29 44.5 -29 74.5c0 13.333 2 27 6 41z" />
    <glyph glyph-name="six" unicode="6" horiz-adv-x="262" 
d="M240 266c0 -5.33301 -2.33008 -7.99707 -6.99707 -7.99707c-5.33301 0 -8 2.66699 -8 8c-1.33301 25.333 -8.83301 45.333 -22.5 60s-29.167 22 -46.5 22c-10 0 -20.333 -2.83301 -31 -8.5s-20.834 -14.334 -30.501 -26.001s-18.167 -26.5 -25.5 -44.5s-13 -39 -17 -63
c12 11.333 24.667 19.5 38 24.5s26.666 7.5 39.999 7.5c28 0 52.167 -9.66699 72.5 -29s30.5 -47 30.5 -83c0 -18 -3.33301 -35 -10 -51s-15.334 -30 -26.001 -42s-22.834 -21.333 -36.501 -28s-27.167 -10 -40.5 -10c-17.333 0 -33 4.16699 -47 12.5
s-25.833 19.666 -35.5 33.999s-17 31.666 -22 51.999s-7.5 42.5 -7.5 66.5s2.83301 48.333 8.5 73s14.334 47 26.001 67s26 36.167 43 48.5s36.833 18.5 59.5 18.5c25.333 0 47.5 -8.66699 66.5 -26s28.5 -42.333 28.5 -75zM172.003 191.003
c-9.33301 11.333 -18.5 19.168 -27.5 23.501s-17.5 6.5 -25.5 6.5c-9.33301 0 -18 -1.83301 -26 -5.5s-15.167 -7.66699 -21.5 -12s-11.5 -8.83301 -15.5 -13.5s-6.33301 -8 -7 -10c-1.33301 -2.66699 -2 -9 -2 -19c0 -13.333 1.5 -28.333 4.5 -45s7.5 -32.167 13.5 -46.5
s13.5 -26.5 22.5 -36.5s19.5 -15 31.5 -15c8.66699 0 17.5 3.16699 26.5 9.5s17 14.666 24 24.999s12.667 22 17 35s6.5 26.5 6.5 40.5c0 24.667 -7 45.667 -21 63z" />
    <glyph glyph-name="seven" unicode="7" horiz-adv-x="193" 
d="M67 7c-0.666992 4.66699 -1.00684 9.16406 -1.00684 13.4971v12.5c0 52.667 11.667 105.334 35 158.001s53.333 102.667 90 150h-14c-11.333 0 -21.666 0.333008 -30.999 1s-18.666 1.66699 -27.999 3s-18.5 2.33301 -27.5 3s-18.167 1 -27.5 1
c-6.66699 0 -12.167 -2.83301 -16.5 -8.5s-6.5 -12.167 -6.5 -19.5c0 -5.33301 1.83301 -10.333 5.5 -15s9.16699 -7 16.5 -7h4c1.33301 0 2.83301 -0.833008 4.5 -2.5s2.5 -3.16699 2.5 -4.5c0 -4 -1.83301 -6.33301 -5.5 -7s-7.16699 -1 -10.5 -1
c-11.333 0 -22.166 3 -32.499 9s-15.5 16 -15.5 30c0 8 2 14.833 6 20.5s9 10 15 13s12.667 5.16699 20 6.5s14.333 2 21 2c10.667 0 20.334 -0.333008 29.001 -1s17 -1.66699 25 -3c8.66699 -1.33301 17.334 -2.33301 26.001 -3s18 -1 28 -1
c4.66699 0 9.83398 0.333008 15.501 1s10.834 1.66699 15.501 3c8 2 17.333 3 28 3c4.66699 0 7 -2.66699 7 -8c0 -1.33301 -1 -3 -3 -5c-18.667 -23.333 -36.334 -47.833 -53.001 -73.5s-31.167 -52.167 -43.5 -79.5s-22 -55.166 -29 -83.499s-10.5 -56.5 -10.5 -84.5
v-11.5c0 -4.33301 0.333008 -8.16602 1 -11.499c-4 -7.33301 -11.333 -11 -22 -11c-5.33301 0 -9.66602 1 -12.999 3s-5 4.66699 -5 8z" />
    <glyph glyph-name="eight" unicode="8" horiz-adv-x="272" 
d="M178 190c0.666992 0.666992 1 1.33301 1 2l2 -1zM105 269.999c0 -10.667 1.99902 -19.834 5.99902 -27.501s9.16699 -14.334 15.5 -20.001s13.333 -10.667 21 -15s15.167 -8.16602 22.5 -11.499l9 -4c9.33301 12 17.833 26.333 25.5 43s11.5 34.334 11.5 53.001
c0 12 -3.66699 24.5 -11 37.5s-20 19.5 -38 19.5c-7.33301 0 -14.666 -2 -21.999 -6s-14 -9.5 -20 -16.5s-10.833 -15 -14.5 -24s-5.5 -18.5 -5.5 -28.5zM210.999 211.999l-8.99902 -14.501c-2.66699 -4.33301 -5.66699 -8.5 -9 -12.5c19.333 -10.667 33.5 -23.5 42.5 -38.5
s13.5 -30.5 13.5 -46.5c0 -13.333 -2.83301 -26 -8.5 -38s-13.5 -22.833 -23.5 -32.5s-22.333 -17.334 -37 -23.001s-31 -8.5 -49 -8.5c-18.667 0 -34.667 2.66699 -48 8s-24.333 12.333 -33 21s-15 18.834 -19 30.501s-6 23.834 -6 36.501c0 22 5.33301 43.833 16 65.5
s25.667 40.167 45 55.5c-14.667 14 -22 32.333 -22 55c0 12 2.5 23.667 7.5 35s11.667 21.333 20 30s18.166 15.667 29.499 21s23.333 8 36 8c13.333 0 24.833 -2.5 34.5 -7.5s17.5 -11.167 23.5 -18.5s10.333 -15.5 13 -24.5s4 -17.5 4 -25.5c0 -13.333 -2 -26.5 -6 -39.5
s-9 -25.167 -15 -36.5zM129 185.998c-2.66699 1.33301 -5.50098 2.66602 -8.50098 3.99902s-6.16699 3 -9.5 5c-13.333 -12.667 -24.166 -29 -32.499 -49s-12.5 -39.667 -12.5 -59c0 -17.333 4.83301 -33.333 14.5 -48s26.167 -22 49.5 -22c10 0 19.833 2.33301 29.5 7
s18.167 10.834 25.5 18.501s13.166 16.5 17.499 26.5s6.5 20.333 6.5 31c0 12.667 -2.16699 23.334 -6.5 32.001s-10 16 -17 22s-14.667 11.167 -23 15.5s-16.166 8.16602 -23.499 11.499z" />
    <glyph glyph-name="nine" unicode="9" horiz-adv-x="273" 
d="M17 96c0 5.33301 2.66797 8 8.00098 8c1.33301 0 3 -0.666992 5 -2s3 -3.33301 3 -6c0 -24 6.83301 -44 20.5 -60s29.5 -24 47.5 -24c12.667 0 25.167 4.83301 37.5 14.5s23.5 22.667 33.5 39s18.167 35.333 24.5 57s10.166 44.5 11.499 68.5
c-10 -14 -22.667 -25.333 -38 -34s-30.333 -13 -45 -13c-12.667 0 -25 2.33301 -37 7s-22.667 11.5 -32 20.5s-16.833 20 -22.5 33s-8.5 28.167 -8.5 45.5c0 16 2.66699 31 8 45s12.5 26.5 21.5 37.5s19.667 19.667 32 26s25.5 9.5 39.5 9.5c36.667 0 66 -15 88 -45
s33 -70 33 -120c0 -24.667 -2.83301 -49.5 -8.5 -74.5s-14.167 -47.667 -25.5 -68s-25.333 -36.833 -42 -49.5s-36 -19 -58 -19c-30 0 -53.5 9.83301 -70.5 29.5s-25.5 44.5 -25.5 74.5zM136.001 162c16.667 0 31.498 6.50098 44.498 19.501s21.833 29.5 26.5 49.5
c-3.33301 31.333 -12.166 57.833 -26.499 79.5s-30.833 32.5 -49.5 32.5c-7.33301 0 -15 -2.5 -23 -7.5s-15.167 -11.833 -21.5 -20.5s-11.5 -18.667 -15.5 -30s-6 -23 -6 -35c0 -12.667 2.16699 -24.334 6.5 -35.001s9.83301 -20 16.5 -28s14.334 -14.167 23.001 -18.5
s17 -6.5 25 -6.5z" />
    <glyph glyph-name="colon" unicode=":" horiz-adv-x="106" 
d="M50 156c9.33301 0 16.166 -2.83301 20.499 -8.5s6.5 -11.834 6.5 -18.501c0 -6 -2.16699 -11.833 -6.5 -17.5s-11.166 -8.5 -20.499 -8.5c-12 0 -19.5 3.33301 -22.5 10s-4.5 12 -4.5 16c0 6.66699 2.5 12.834 7.5 18.501s11.5 8.5 19.5 8.5zM50 49
c9.33301 0 16.166 -2.83301 20.499 -8.5s6.5 -11.834 6.5 -18.501c0 -6 -2.16699 -11.833 -6.5 -17.5s-11.166 -8.5 -20.499 -8.5s-16 2.83301 -20 8.5s-6 11.5 -6 17.5c0 6.66699 2 12.834 6 18.501s10.667 8.5 20 8.5z" />
    <glyph glyph-name="semicolon" unicode=";" horiz-adv-x="108" 
d="M52 153c8.66699 0 15.167 -2.83301 19.5 -8.5s6.5 -11.834 6.5 -18.501c0 -6 -2.16699 -11.833 -6.5 -17.5s-10.833 -8.5 -19.5 -8.5c-9.33301 0 -16 2.83301 -20 8.5s-6 11.5 -6 17.5c0 6.66699 2 12.834 6 18.501s10.667 8.5 20 8.5zM33 -51
c-5.33301 0 -8 3.00098 -8 9.00098c0 2 2.66699 5.66699 8 11l9 11c3.33301 4 6 8 8 12c-7.33301 1.33301 -12.666 4.66602 -15.999 9.99902s-5 10.666 -5 15.999c0 6 2.33301 12 7 18s11.667 9 21 9c7.33301 0 13 -2.66699 17 -8s6 -12.333 6 -21
c0 -5.33301 -1.33301 -11.666 -4 -18.999s-6.33398 -14.5 -11.001 -21.5s-9.66699 -13 -15 -18s-11 -7.83301 -17 -8.5z" />
    <glyph glyph-name="less" unicode="&#x3c;" horiz-adv-x="227" 
d="M32 53c-4 4 -5.99902 7.33301 -5.99902 10c0 4 4.5 9.33301 13.5 16s19.833 13.667 32.5 21s26.167 14.666 40.5 21.999l38.5 19l20 11v-1c1.33301 1.33301 3.33301 2 6 2c4 0 7.83301 -2 11.5 -6s5.5 -8 5.5 -12c0 -4.66699 -2 -8 -6 -10l-122 -60l67.5 -24.5
c21.667 -7.66699 44.167 -16.167 67.5 -25.5c5.33301 -3.33301 8 -7.66602 8 -12.999c0 -4 -1.33301 -8 -4 -12s-6.33398 -6 -11.001 -6c-2 0 -3.33301 0.333008 -4 1z" />
    <glyph glyph-name="equal" unicode="=" horiz-adv-x="229" 
d="M45 23c-4.66699 0 -8 1.33301 -10 4s-3 5.33398 -3 8.00098c0 3.33301 1 6.33301 3 9s5.33301 4 10 4h132c4 0 7.16699 -1.33301 9.5 -4s3.5 -5.66699 3.5 -9c0 -2.66699 -1.16699 -5.33398 -3.5 -8.00098s-5.5 -4 -9.5 -4h-132zM45 128c-4.66699 0 -8 1.33301 -10 4
s-3 5.33398 -3 8.00098c0 3.33301 1 6.33301 3 9s5.33301 4 10 4h132c4 0 7.16699 -1.33301 9.5 -4s3.5 -5.66699 3.5 -9c0 -2.66699 -1.16699 -5.33398 -3.5 -8.00098s-5.5 -4 -9.5 -4h-132z" />
    <glyph glyph-name="greater" unicode="&#x3e;" horiz-adv-x="247" 
d="M48 -15c-1.33301 -0.666992 -2.66602 -1 -3.99902 -1c-4.66699 0 -8.33398 2 -11.001 6s-4 8 -4 12c0 5.33301 2.66699 9.66602 8 12.999l135 50l-122 60l-4.5 4.5c-1.66699 1.66699 -2.5 3.5 -2.5 5.5c0 4 1.66699 8 5 12s7.33301 6 12 6
c2.66699 0 4.66699 -0.333008 6 -1l12 -5c4.66699 -2 9.66699 -4.66699 15 -8c11.333 -5.33301 23.833 -11.666 37.5 -18.999l38.5 -21.5c12 -7 22.167 -13.667 30.5 -20s12.5 -11.5 12.5 -15.5c0 -2.66699 -2 -6 -6 -10z" />
    <glyph glyph-name="question" unicode="?" horiz-adv-x="227" 
d="M37 249c0 -2.66699 -1.00195 -4.66797 -3.00195 -6.00098s-3.66699 -2 -5 -2c-5.33301 0 -8 2.66699 -8 8c0 14.667 2.66699 27.834 8 39.501s12.5 21.167 21.5 28.5s19 13 30 17s22.167 6 33.5 6c22 0 41.833 -6.83301 59.5 -20.5s26.5 -34.5 26.5 -62.5
c0 -12.667 -2.16699 -24.167 -6.5 -34.5s-10.166 -20 -17.499 -29s-15.666 -17.5 -24.999 -25.5l-28 -24c-16.667 -14 -32.167 -28.333 -46.5 -43s-23.5 -32 -27.5 -52c-1.33301 -4 -3.66602 -6 -6.99902 -6c-4.66699 0 -7.33398 2.33301 -8.00098 7s-1 8.66699 -1 12
c0 21.333 6.66699 39.5 20 54.5s28.333 29.833 45 44.5c15.333 13.333 29.5 27.333 42.5 42s19.5 32 19.5 52c0 17.333 -5.33301 32.833 -16 46.5s-23.667 20.5 -39 20.5c-17.333 0 -33 -6.66699 -47 -20s-21 -31 -21 -53zM40.998 28.999
c8.66699 0 15.167 -2.83301 19.5 -8.5s6.5 -11.834 6.5 -18.501c0 -7.33301 -2.16699 -13.666 -6.5 -18.999s-10.833 -8 -19.5 -8c-9.33301 0 -16 2.66699 -20 8s-6 11.666 -6 18.999c0 6.66699 2 12.834 6 18.501s10.667 8.5 20 8.5z" />
    <glyph glyph-name="at" unicode="@" horiz-adv-x="421" 
d="M344 77c1.33301 1.33301 3 1.99609 5 1.99609c5.33301 0 8 -2.66699 8 -8c0 -3.33301 -2.5 -7.16602 -7.5 -11.499s-10.833 -8.83301 -17.5 -13.5s-13.5 -9 -20.5 -13s-12.5 -7 -16.5 -9c-38 -20 -75.333 -30 -112 -30c-21.333 0 -40.833 3.5 -58.5 10.5
s-33 16.667 -46 29s-23.167 27.5 -30.5 45.5s-11 38 -11 60c0 38 7.16699 70.833 21.5 98.5s32.333 50.834 54 69.501s45.334 32.5 71.001 41.5s49.834 13.5 72.501 13.5c17.333 0 33.666 -2.33301 48.999 -7s28.833 -11.5 40.5 -20.5s20.834 -20.167 27.501 -33.5
s10 -29 10 -47c0 -22.667 -5 -44.167 -15 -64.5s-22.167 -38.333 -36.5 -54s-29.5 -28.167 -45.5 -37.5s-29.667 -14 -41 -14c-19.333 0 -29 10.667 -29 32c0 2 -0.166992 2.83301 -0.5 2.5s-0.166016 0.5 0.500977 2.5c-20.667 -16 -40.334 -24 -59.001 -24
c-14.667 0 -26.5 4.66699 -35.5 14s-13.5 22.333 -13.5 39c0 20 4 37.833 12 53.5s18 28.834 30 39.501s24.667 18.834 38 24.501s25 8.5 35 8.5c8.66699 0 17.334 -1.83301 26.001 -5.5s15.667 -8.16699 21 -13.5l9 13c2.66699 1.33301 6.33398 2 11.001 2
c4 0 7.83301 -0.666992 11.5 -2s6.83398 -4.33301 9.50098 -9v-2l-16.5 -33c-6.33301 -12.667 -12.166 -25.667 -17.499 -39s-10 -26.166 -14 -38.499s-6 -22.5 -6 -30.5s2 -12 6 -12c5.33301 0 11 2.66699 17 8c20.667 17.333 37.167 37.5 49.5 60.5s18.5 46.167 18.5 69.5
c0 12.667 -2.66699 25 -8 37s-12.333 22.667 -21 32s-18.834 16.666 -30.501 21.999s-23.834 8 -36.501 8c-21.333 0 -42.5 -5.83301 -63.5 -17.5s-39.833 -27 -56.5 -46s-30.334 -40.667 -41.001 -65s-16 -48.833 -16 -73.5c0 -22 3.66699 -41.167 11 -57.5
s16.666 -29.833 27.999 -40.5s24.166 -18.667 38.499 -24s28.166 -8 41.499 -8c26.667 0 53.5 6.5 80.5 19.5s50.167 28.5 69.5 46.5zM221 145.996c6 23.333 19.3311 56 39.998 98c-8.66699 10 -17.667 15 -27 15c-10 0 -20.167 -3.5 -30.5 -10.5s-19.666 -16 -27.999 -27
s-15.166 -22.833 -20.499 -35.5s-8 -24.667 -8 -36c0 -8.66699 1.83301 -16 5.5 -22s8.5 -9 14.5 -9c9.33301 0 19 3.33301 29 10s18.667 12.667 26 18z" />
    <glyph glyph-name="A" unicode="A" horiz-adv-x="833" 
d="M353 413c0 -28.667 5.5 -51.166 16.5 -67.499s24.833 -28.666 41.5 -36.999s34.667 -13.833 54 -16.5s37.333 -4.66699 54 -6l82.5 123.5c27.667 39.667 58.5 74.834 92.5 105.501s72.167 55.167 114.5 73.5s92.166 27.5 149.499 27.5c9.33301 0 14 -2.33301 14 -7
c0 -1.33301 -3.66699 -8.5 -11 -21.5l-28 -47.5l-48 -82l-58 -99l-58.5 -104.5c-19 -35 -35.5 -67.833 -49.5 -98.5c5.33301 -12 9.5 -25.167 12.5 -39.5s4.5 -28.5 4.5 -42.5c0 -17.333 -2.16699 -33.166 -6.5 -47.499s-10 -26.5 -17 -36.5s-14.833 -17.833 -23.5 -23.5
s-17 -8.5 -25 -8.5c-9.33301 0 -17.5 3.66699 -24.5 11s-10.5 18.666 -10.5 33.999c0 19.333 5.5 44.333 16.5 75s25.167 64 42.5 100c-13.333 18.667 -31.333 36 -54 52s-50.667 27.667 -84 35c-17.333 -28 -35 -54.667 -53 -80s-38 -50 -60 -74l25 -33l42.5 -53.5
c14.333 -17.667 30.166 -34.834 47.499 -51.501c1.33301 -1.33301 2 -3 2 -5c0 -5.33301 -2.33301 -8 -7 -8c-2.66699 0 -4 0.666992 -4 2c-18.667 17.333 -36 35.666 -52 54.999l-46 58l-19 24c-18 -18 -35.667 -33.333 -53 -46s-35 -22.834 -53 -30.501
s-37.333 -13.334 -58 -17.001s-43.667 -5.5 -69 -5.5c-27.333 0 -51.166 3.66699 -71.499 11s-37.166 17.166 -50.499 29.499s-23.5 26.5 -30.5 42.5s-10.5 32.333 -10.5 49c0 16 3.33301 31.667 10 47s16.667 29 30 41s30.333 21.667 51 29s44.667 11 72 11
s51.166 -2.5 71.499 -7.5s38.833 -12.667 55.5 -23s32.5 -23.166 47.5 -38.499s31.167 -33.333 48.5 -54c15.333 18.667 30.666 39.167 45.999 61.5l48 71.5c-3.33301 0 -6.5 0.333008 -9.5 1s-6.16699 1 -9.5 1c-63.333 5.33301 -109.166 21.666 -137.499 48.999
s-42.5 60 -42.5 98c0 28 7.5 57.5 22.5 88.5s36 59.167 63 84.5s59 46.333 96 63s77.167 25 120.5 25c4 0 11.333 -0.5 22 -1.5s21.834 -2.33301 33.501 -4s21.834 -4 30.501 -7s13 -6.5 13 -10.5c0 -5.33301 -3.33301 -8 -10 -8c-28 8.66699 -55 13 -81 13
c-38.667 0 -74.334 -7.83301 -107.001 -23.5s-61 -35.667 -85 -60s-42.667 -51.166 -56 -80.499s-20 -57.666 -20 -84.999zM204 23.001c42 1.33301 79.166 11.5 111.499 30.5s62.166 42.833 89.499 71.5c-14 16 -28 31.167 -42 45.5s-28.667 26.833 -44 37.5
s-31.666 19 -48.999 25s-36.666 9 -57.999 9c-24 0 -44.833 -3.16699 -62.5 -9.5s-32.5 -14.666 -44.5 -24.999s-20.833 -22 -26.5 -35s-8.5 -25.833 -8.5 -38.5c0 -13.333 2.83301 -26.5 8.5 -39.5s14 -24.667 25 -35s25 -18.833 42 -25.5s36.5 -10.334 58.5 -11.001z
M554.999 281.001c0.666992 -0.666992 2 -1 4 -1l-2 -4zM923.999 596.001c-45.333 -6 -85.499 -19.167 -120.499 -39.5s-66.833 -45 -95.5 -74s-55 -61.167 -79 -96.5l-70 -106c32 -7.33301 59.167 -18.5 81.5 -33.5s40.833 -31.833 55.5 -50.5
c25.333 52 51.5 101.333 78.5 148l75.5 129l38.5 61.5c12.333 19.667 24.166 40.167 35.499 61.5zM707 145.001l6 -0.998047l-4 -8c0 1.33301 -0.166992 2.16602 -0.5 2.49902s-0.5 1.16602 -0.5 2.49902zM719 74.0029c0 10.667 -0.833008 21.334 -2.5 32.001
s-4.16699 20.667 -7.5 30c-4 -8.66699 -8.33301 -18.834 -13 -30.501s-9 -23.667 -13 -36s-7.5 -24.5 -10.5 -36.5s-4.5 -22.333 -4.5 -31c0 -15.333 3.33301 -23 10 -23c4.66699 0 9.5 2.66699 14.5 8s9.5 12.333 13.5 21s7.16699 18.667 9.5 30s3.5 23.333 3.5 36z" />
    <glyph glyph-name="B" unicode="B" horiz-adv-x="694" 
d="M208 343c12.667 0.666992 24.6748 2.33105 36.0078 4.99805s22.666 5.66699 33.999 9l15 22l37 54c15.333 22 31.833 43.5 49.5 64.5s35.167 39 52.5 54s32.666 22.5 45.999 22.5c12.667 0 19 -7 19 -21c0 -9.33301 -4.33301 -22.333 -13 -39
s-20.834 -34.5 -36.501 -53.5s-34.167 -37.833 -55.5 -56.5s-45 -34.334 -71 -47.001c-2 -2.66699 -6.83301 -9.5 -14.5 -20.5s-16.334 -24.667 -26.001 -41l-31 -53c-11 -19 -21.167 -38 -30.5 -57s-17 -36.667 -23 -53s-9 -29.833 -9 -40.5c0 -8.66699 2.33301 -13 7 -13
c6.66699 0 15 5 25 15c17.333 16.667 37.166 41.334 59.499 74.001l73.5 109l72.5 107.5c25 37 50.5 71.667 76.5 104s51.833 60.5 77.5 84.5s51.167 40.667 76.5 50c18.667 6.66699 37.667 10 57 10c12.667 0 25.5 -2 38.5 -6s24.667 -10.333 35 -19s18.666 -20 24.999 -34
s9.5 -31 9.5 -51c0 -25.333 -5.66699 -51.666 -17 -78.999s-26.833 -53 -46.5 -77s-43 -45.333 -70 -64s-56.167 -32 -87.5 -40c4.66699 -13.333 7 -29.333 7 -48c0 -27.333 -5.83301 -56.166 -17.5 -86.499s-27.167 -58.166 -46.5 -83.499s-42 -46.166 -68 -62.499
s-53.333 -24.5 -82 -24.5c-23.333 0 -40.5 6.16699 -51.5 18.5s-16.5 28.166 -16.5 47.499c0 18 4.5 37.333 13.5 58s21.667 39.834 38 57.501s35.833 32.5 58.5 44.5s47.667 18 75 18c2 0 3.5 -1 4.5 -3s1.5 -3.66699 1.5 -5c0 -5.33301 -2 -8 -6 -8
c-25.333 0 -48.333 -5.66699 -69 -17s-38.334 -25.166 -53.001 -41.499s-26.167 -34 -34.5 -53s-12.5 -35.833 -12.5 -50.5c0 -16.667 4.16699 -28.667 12.5 -36s18.166 -11 29.499 -11c16 0 34.5 6.33301 55.5 19s41 29.834 60 51.501s35.167 46.834 48.5 75.501
s20 59 20 91c0 7.33301 -0.333008 14.5 -1 21.5s-2.33398 13.833 -5.00098 20.5h-2c-4.66699 -0.666992 -10 -1.33398 -16 -2.00098s-12.667 -1 -20 -1c-8.66699 0 -17.334 0.666992 -26.001 2s-16.5 3.5 -23.5 6.5s-12.667 7.16699 -17 12.5s-6.5 12.333 -6.5 21
c0 11.333 4.83301 19.666 14.5 24.999s21.167 8 34.5 8c16 0 32.833 -3.66699 50.5 -11s31.5 -18.333 41.5 -33c26.667 8.66699 51.5 21.834 74.5 39.501s43 37.5 60 59.5s30.5 45.167 40.5 69.5s15 47.5 15 69.5c0 28 -7.16699 48.5 -21.5 61.5s-30.5 19.5 -48.5 19.5
c-26 0 -52.667 -10.333 -80 -31s-54.5 -47 -81.5 -79s-53.667 -67.667 -80 -107l-76.5 -115l-60 -88.5c-18.667 -27 -36.167 -50.167 -52.5 -69.5s-31.833 -34.5 -46.5 -45.5s-28.667 -16.5 -42 -16.5c-11.333 0 -20.333 3.5 -27 10.5s-10 17.833 -10 32.5
s3.66699 32.167 11 52.5s16.5 41.5 27.5 63.5s23 44 36 66s25.167 41.667 36.5 59c-23.333 -6 -47 -9 -71 -9c-20 0 -39.167 2.5 -57.5 7.5s-34.166 12.5 -47.499 22.5s-24 22.667 -32 38s-12 33 -12 53c0 32 7.16699 62.167 21.5 90.5s33.333 53 57 74
s50.834 37.667 81.501 50s62.667 18.5 96 18.5c4 0 11 -0.333008 21 -1s20.167 -1.83398 30.5 -3.50098s19.5 -3.83398 27.5 -6.50098s12 -6 12 -10c0 -5.33301 -3.33301 -7.66602 -10 -6.99902c-12.667 4 -24.834 6.83301 -36.501 8.5s-23.167 2.5 -34.5 2.5
c-33.333 0 -63.666 -6.83301 -90.999 -20.5s-50.833 -31 -70.5 -52s-35 -44 -46 -69s-16.5 -49.167 -16.5 -72.5c0 -14.667 2.33301 -28.334 7 -41.001s11.834 -23.834 21.501 -33.501s22.167 -17.334 37.5 -23.001s33.666 -8.5 54.999 -8.5zM554.008 270.997l-1.99902 3
c1.33301 0 2.16602 0.166992 2.49902 0.5s0.833008 0.5 1.5 0.5zM510.009 269.997c7.33301 0 14.835 0.333008 22.502 1s14.167 1.66699 19.5 3c-7.33301 11.333 -17.333 20.333 -30 27s-24.334 10 -35.001 10c-14.667 0 -22 -5.66699 -22 -17c0 -10 4.66699 -16.5 14 -19.5
s19.666 -4.5 30.999 -4.5zM331.011 379.997l10.998 6c-1.33301 -2 -2.66602 -3.83301 -3.99902 -5.5s-2.66602 -3.5 -3.99902 -5.5zM482.009 549.997c-5.33301 -0.666992 -13 -6.00098 -23 -16.001s-21.5 -22.667 -34.5 -38s-26.667 -32.666 -41 -51.999l-41.5 -58
c14 8.66699 29.167 19.834 45.5 33.501s31.5 28.167 45.5 43.5s25.667 30.666 35 45.999s14 29 14 41z" />
    <glyph glyph-name="C" unicode="C" horiz-adv-x="636" 
d="M90 402c11.333 -18 29.6631 -33.4932 54.9961 -46.4932s58 -19.5 98 -19.5c23.333 37.333 50.166 73.5 80.499 108.5s62.166 66.167 95.499 93.5s67.333 49.166 102 65.499s68 24.5 100 24.5c21.333 0 37.333 -5.66699 48 -17s16 -26 16 -44
c0 -21.333 -8 -45.333 -24 -72s-40.5 -52.167 -73.5 -76.5s-75.167 -45.5 -126.5 -63.5s-112.333 -29 -183 -33c-9.33301 -14.667 -18.666 -31.5 -27.999 -50.5s-18 -38.667 -26 -59s-14.5 -40.833 -19.5 -61.5s-7.5 -40.334 -7.5 -59.001c0 -38 10.667 -66.333 32 -85
s47.333 -28 78 -28c26.667 0 52.834 5.16699 78.501 15.5s48.5 23.666 68.5 39.999s36.167 34.5 48.5 54.5s18.5 39.333 18.5 58c0 16.667 -5.16699 29 -15.5 37s-23.833 12 -40.5 12c-14.667 0 -30.834 -2.83301 -48.501 -8.5s-35.167 -13.834 -52.5 -24.501
s-34.166 -23.667 -50.499 -39s-30.166 -32.333 -41.499 -51c-2.66699 -2.66699 -5 -4 -7 -4c-1.33301 0 -3 0.666992 -5 2s-3 3 -3 5s0.666992 3.66699 2 5h-1c12 20.667 26.5 39.167 43.5 55.5s34.833 30 53.5 41s37.5 19.333 56.5 25s36.833 8.5 53.5 8.5
c20.667 0 37.834 -5 51.501 -15s20.5 -25.667 20.5 -47c0 -26.667 -7.83301 -51.5 -23.5 -74.5s-35.5 -43 -59.5 -60s-49.833 -30.333 -77.5 -40s-53.5 -14.5 -77.5 -14.5c-40 0 -73.667 11 -101 33s-41 55.667 -41 101c0 18.667 2.33301 38.167 7 58.5s10.667 40.333 18 60
s15.5 38.667 24.5 57s18.167 35.166 27.5 50.499c-35.333 0.666992 -65.666 4.66699 -90.999 12s-46 17 -62 29s-27.833 26.167 -35.5 42.5s-11.5 33.5 -11.5 51.5c0 25.333 6.66699 51.166 20 77.499s31.666 50.333 54.999 72s50.833 39.334 82.5 53.001
s66.167 20.5 103.5 20.5c4 0 11.167 -0.5 21.5 -1.5s21 -2.33301 32 -4s20.667 -3.83398 29 -6.50098s12.5 -6 12.5 -10c0 -5.33301 -3.33301 -8 -10 -8c-21.333 7.33301 -43.666 11 -66.999 11c-30.667 0 -60.5 -5.83301 -89.5 -17.5s-54.667 -26.834 -77 -45.501
s-40.166 -40 -53.499 -64s-20 -48 -20 -72c0 -10 1.33301 -19.833 4 -29.5s7 -19.167 13 -28.5zM281.997 338.007h6l-3 -5zM617.997 606.007c-26 0 -54.1699 -8.16406 -84.5029 -24.4971s-60.166 -37.333 -89.499 -63s-57.666 -54.334 -84.999 -86.001
s-51 -63.167 -71 -94.5c50.667 3.33301 98.834 11.833 144.501 25.5s86 30.667 121 51s62.833 43.166 83.5 68.499s31 51.666 31 78.999c0 14 -4.5 24.833 -13.5 32.5s-21.167 11.5 -36.5 11.5z" />
    <glyph glyph-name="D" unicode="D" horiz-adv-x="777" 
d="M211 344c24.667 0.666992 48.002 4.6709 70.002 12.0039l13.5 20l29 41.5l39 51.999s28.666 35.166 42.999 50.499s28 28.166 41 38.499s24.167 15.5 33.5 15.5c5.33301 0 10.166 -1.66699 14.499 -5s6.5 -8.66602 6.5 -15.999c0 -6 -1.5 -12.833 -4.5 -20.5
s-6.66699 -15.334 -11 -23.001s-8.83301 -15 -13.5 -22l-12 -17.5c-15.333 -20 -34.666 -40.167 -57.999 -60.5s-49 -37.5 -77 -51.5c-3.33301 -4 -8.83301 -12 -16.5 -24l-26.5 -42c-10 -16 -20.333 -33.5 -31 -52.5s-20.5 -37.667 -29.5 -56s-16.333 -35.666 -22 -51.999
s-8.5 -29.833 -8.5 -40.5c0 -8 2 -12 6 -12c6.66699 0 16.334 6.33301 29.001 19c16.667 16 36.334 40 59.001 72l73 108l74 109c26 37.333 52.5 72 79.5 104s53.833 59.833 80.5 83.5s52.667 39.5 78 47.5c14 4 29.333 6 46 6c32 0 59.167 -9.16699 81.5 -27.5
s33.5 -48.5 33.5 -90.5c0 -33.333 -7.16699 -71 -21.5 -113s-33.5 -84.5 -57.5 -127.5s-51.833 -84.667 -83.5 -125s-65.167 -75.166 -100.5 -104.499c-8 -6.66699 -18.667 -14.667 -32 -24s-27.833 -18.5 -43.5 -27.5s-32 -16.667 -49 -23s-32.833 -9.5 -47.5 -9.5
c-8 0 -16.167 1.5 -24.5 4.5s-15.833 7.5 -22.5 13.5s-12.167 13.667 -16.5 23s-6.5 20.666 -6.5 33.999c0 17.333 4.33301 36 13 56s21.167 38.5 37.5 55.5s36.666 31.167 60.999 42.5s52.166 17 83.499 17c5.33301 0 8 -2.33301 8 -7c0 -5.33301 -2.66699 -8 -8 -8
c-28.667 0 -54 -5.16699 -76 -15.5s-40.5 -23.333 -55.5 -39s-26.5 -32.667 -34.5 -51s-12 -35.5 -12 -51.5c0 -19.333 4.33301 -32.833 13 -40.5s18.667 -11.5 30 -11.5c12.667 0 26.167 3 40.5 9s26.5 11.667 36.5 17c26.667 14 53.334 32.333 80.001 55
s52.167 48 76.5 76s47 58 68 90s39.167 64.333 54.5 97s27.333 65 36 97s13 62 13 90c0 32 -7.16699 56.333 -21.5 73s-31.5 25 -51.5 25c-24 0 -49.667 -10.5 -77 -31.5s-55 -48 -83 -81s-56.167 -69.667 -84.5 -110l-81.5 -118.5l-81.5 -117
c-25 -34.667 -46.167 -59.334 -63.5 -74.001c-8 -6.66699 -16.5 -11.5 -25.5 -14.5s-17.833 -4.5 -26.5 -4.5c-11.333 0 -20.5 3 -27.5 9s-10.5 16.667 -10.5 32c0 14 3.66699 31 11 51s16.666 41 27.999 63s23.333 44 36 66s24.667 41.667 36 59
c-16 -4.66699 -30.667 -7.83398 -44 -9.50098s-26.333 -2.5 -39 -2.5c-23.333 0 -43.333 3.33301 -60 10s-30.334 15.667 -41.001 27s-18.667 24.5 -24 39.5s-8 31.167 -8 48.5c0 25.333 5.66699 51.666 17 78.999s27.666 52.333 48.999 75s47.166 41.334 77.499 56.001
s64.5 22 102.5 22c3.33301 0 10.333 -0.5 21 -1.5s21.667 -2.33301 33 -4s21.333 -3.83398 30 -6.50098s13 -5.66699 13 -9c0 -5.33301 -3.33301 -8 -10 -8c-12.667 4 -24.667 6.83301 -36 8.5s-22.666 2.5 -33.999 2.5c-33.333 0 -63.666 -6.83301 -90.999 -20.5
s-51 -31 -71 -52s-35.5 -44.167 -46.5 -69.5s-16.5 -49.666 -16.5 -72.999c0 -28.667 9.5 -53.167 28.5 -73.5s49.833 -30.5 92.5 -30.5zM334.002 380.004l10 6l-7 -11zM484.002 549.004c-5.33301 -1.33301 -13.167 -7.16699 -23.5 -17.5s-22 -23.166 -35 -38.499
s-26.667 -32.333 -41 -51s-27.833 -37.334 -40.5 -56.001c14 8.66699 29.167 19.667 45.5 33s31.5 27.5 45.5 42.5s25.667 30.167 35 45.5s14 29.333 14 42z" />
    <glyph glyph-name="E" unicode="E" horiz-adv-x="609" 
d="M300 419c2 23.333 9.33105 47.165 21.998 71.498s28.667 46.5 48 66.5s41 36.333 65 49s48.333 19 73 19c27.333 0 47 -5.5 59 -16.5s18 -25.167 18 -42.5c0 -19.333 -5.83301 -37.833 -17.5 -55.5s-28.334 -33.834 -50.001 -48.501s-47.667 -27 -78 -37
s-64.166 -16.667 -101.499 -20c0 -4 0.333008 -8.16699 1 -12.5s1.66699 -8.16602 3 -11.499c8.66699 1.33301 18 2.33301 28 3s20.667 1 32 1c10.667 0 21.834 -0.666992 33.501 -2s22 -3.33301 31 -6s16.5 -6.5 22.5 -11.5s9 -10.833 9 -17.5
c-1.33301 -10.667 -10.5 -19.5 -27.5 -26.5s-36.5 -10.5 -58.5 -10.5c-18.667 0 -36.834 2.83301 -54.501 8.5s-31.5 16.167 -41.5 31.5c-35.333 -12 -66.5 -26.833 -93.5 -44.5s-49.667 -37 -68 -58s-32.166 -42.833 -41.499 -65.5s-14 -44.667 -14 -66
c0 -17.333 3.66699 -34.333 11 -51s18.166 -31.5 32.499 -44.5s31.833 -23.5 52.5 -31.5s44.334 -12 71.001 -12c27.333 0 53.5 4.66699 78.5 14s47 21.166 66 35.499s34.167 30 45.5 47s17 33.167 17 48.5c0 19.333 -10.167 34.666 -30.5 45.999s-48.5 17 -84.5 17
c-47.333 0 -89.833 -10.5 -127.5 -31.5s-66.167 -52.167 -85.5 -93.5c-2 -2.66699 -4.33301 -4 -7 -4c-1.33301 0 -3 0.833008 -5 2.5s-3 4.16699 -3 7.5c11.333 24.667 25.833 45.5 43.5 62.5s36.667 30.833 57 41.5s41.5 18.5 63.5 23.5s43 7.5 63 7.5
c41.333 0 73.666 -7.16699 96.999 -21.5s35 -33.833 35 -58.5c0 -18 -6.33301 -36.667 -19 -56s-29.667 -36.833 -51 -52.5s-46.166 -28.667 -74.499 -39s-58.166 -15.5 -89.499 -15.5c-30.667 0 -58.167 4.33301 -82.5 13s-44.833 20.334 -61.5 35.001
s-29.5 31.5 -38.5 50.5s-13.5 38.833 -13.5 59.5c0 24 5.5 48.667 16.5 74s27 49.5 48 72.5s46.667 44 77 63s65.166 34.167 104.499 45.5l-3 12c-1.33301 4 -2.5 8.16699 -3.5 12.5s-2.16699 6.5 -3.5 6.5c-30 0 -55.833 3.16699 -77.5 9.5s-39.5 15 -53.5 26
s-24.333 23.667 -31 38s-10 29.5 -10 45.5c0 18.667 4.5 37.334 13.5 56.001s21.833 35.5 38.5 50.5s37 27.167 61 36.5s50.667 14 80 14c3.33301 0 10 -0.5 20 -1.5s20.5 -2.33301 31.5 -4s20.667 -3.83398 29 -6.50098s12.5 -5.66699 12.5 -9
c0 -5.33301 -3.33301 -8 -10 -8c-12.667 4 -24.667 6.83301 -36 8.5s-22 2.5 -32 2.5c-25.333 0 -48.166 -4.16699 -68.499 -12.5s-38 -19.166 -53 -32.499s-26.5 -28.166 -34.5 -44.499s-12 -32.833 -12 -49.5c0 -12.667 2.5 -24.834 7.5 -36.501s13 -22.167 24 -31.5
s25.167 -17.166 42.5 -23.499s38 -10.166 62 -11.499h1zM335.998 419.999h2v-3zM520.998 607.999c-22 -2.66699 -43.3311 -10.168 -63.998 -22.501s-39.5 -27.5 -56.5 -45.5s-31.167 -37.5 -42.5 -58.5s-18 -41.5 -20 -61.5c21.333 2 42.833 5.5 64.5 10.5
s42.167 11.667 61.5 20s37.166 18.5 53.499 30.5s29.833 26.667 40.5 44c3.33301 6.66699 6.16602 13.667 8.49902 21s3.5 13.666 3.5 18.999c0 12.667 -4.83301 22.834 -14.5 30.501s-21.167 11.834 -34.5 12.501zM461 333.998c5.33301 1.33301 9.99805 3.5 13.998 6.5
s6 6.16699 6 9.5c0 4.66699 -5.83301 9 -17.5 13s-28.167 6 -49.5 6c-9.33301 0 -19.166 -0.5 -29.499 -1.5s-21.166 -2.83301 -32.499 -5.5c8 -12 18.833 -20.667 32.5 -26s27.834 -8 42.501 -8c11.333 0 22.666 2 33.999 6z" />
    <glyph glyph-name="F" unicode="F" horiz-adv-x="756" 
d="M1084 734c1.33301 2.66699 3.66504 3.99707 6.99805 3.99707c4.66699 0 7 -2.33301 7 -7c0 -2 -0.666992 -3.66699 -2 -5h1c-9.33301 -16 -20.833 -29.5 -34.5 -40.5s-28.834 -19.667 -45.501 -26s-34.334 -10.833 -53.001 -13.5s-38 -4 -58 -4
c-28.667 0 -57 1.66699 -85 5s-54 7 -78 11c-5.33301 1.33301 -10 2.33301 -14 3s-8.66699 1.33398 -14 2.00098c-16 -14 -30.667 -30.833 -44 -50.5s-25.833 -41.5 -37.5 -65.5s-22.667 -49.667 -33 -77l-30.5 -84c3.33301 0 6.16602 0.166992 8.49902 0.5
s4.83301 0.5 7.5 0.5c6 0.666992 12.333 1.16699 19 1.5s12.667 0.5 18 0.5c14.667 0 28.667 -1.16699 42 -3.5s25 -6.5 35 -12.5s18.333 -14.667 25 -26s10.667 -26 12 -44c0 -5.33301 -2.66699 -8 -8 -8c-1.33301 0 -3 0.666992 -5 2s-3 3.33301 -3 6
c-1.33301 14.667 -4.83301 26.5 -10.5 35.5s-13 16 -22 21s-19.167 8.5 -30.5 10.5s-23.333 3 -36 3c-6.66699 0 -13.167 -0.166992 -19.5 -0.5s-12.833 -0.833008 -19.5 -1.5c-3.33301 0 -6.16602 -0.166992 -8.49902 -0.5s-5.16602 -0.5 -8.49902 -0.5l-39.5 -106
c-13 -34.667 -27.167 -67.334 -42.5 -98.001s-32 -59 -50 -85s-38.5 -48.333 -61.5 -67s-48.833 -33.167 -77.5 -43.5s-61 -15.5 -97 -15.5c-23.333 0 -43.166 3.16699 -59.499 9.5s-30 14.666 -41 24.999s-19 22.333 -24 36s-7.5 27.834 -7.5 42.501
c0 17.333 3.66699 34.833 11 52.5s17.666 33.834 30.999 48.501s29.833 26.5 49.5 35.5s42.167 13.5 67.5 13.5c6 0 13.333 -0.333008 22 -1s17 -1.66699 25 -3s15 -3.16602 21 -5.49902s9.33301 -5.16602 10 -8.49902c0 -1.33301 -0.166992 -3 -0.5 -5
s-2.16602 -3 -5.49902 -3c-8 0 -15 0.5 -21 1.5s-12 2.16699 -18 3.5c-10 2 -18.333 3 -25 3c-19.333 0 -36.666 -3.66699 -51.999 -11s-28.666 -17 -39.999 -29s-20 -25.667 -26 -41s-9 -31 -9 -47c0 -26.667 9.5 -49.5 28.5 -68.5s46.833 -29.167 83.5 -30.5
c42 6.66699 78.667 22.5 110 47.5s58.833 55.667 82.5 92s44.667 76.666 63 120.999s35.5 89.166 51.5 134.499c-14 0 -26.667 0.666992 -38 2s-22.333 4.33301 -33 9c-13.333 -17.333 -30.5 -31.166 -51.5 -41.499s-42.167 -15.5 -63.5 -15.5
c-24.667 0 -45.834 7.5 -63.501 22.5s-26.5 40.167 -26.5 75.5c0 40.667 9 77.834 27 111.501s42.167 62.5 72.5 86.5s65.333 42.5 105 55.5s80.834 19.5 123.501 19.5c30 0 61 -1.83301 93 -5.5s63 -7.83398 93 -12.501c28 -4 55.5 -7.5 82.5 -10.5s52.167 -4.5 75.5 -4.5
c35.333 0 67 5.33301 95 16s50.667 30.334 68 59.001v-1zM528.999 382.997v1c0.666992 0 1.16699 0.166992 1.5 0.5s0.833008 0.5 1.5 0.5zM528.999 383.997l30.4961 85.4961c10.333 27.667 21.333 53.667 33 78s24.334 46.833 38.001 67.5s29.167 38.334 46.5 53.001h-3
c-19.333 2.66699 -37.666 4.83398 -54.999 6.50098s-33.666 2.5 -48.999 2.5c-28.667 0 -55.667 -3.16699 -81 -9.5s-51.333 -18.166 -78 -35.499c-17.333 -12 -33.5 -27.167 -48.5 -45.5s-27.833 -37.833 -38.5 -58.5s-19.167 -41.5 -25.5 -62.5s-9.5 -40.167 -9.5 -57.5
c0 -19.333 4.33301 -35.666 13 -48.999s23 -20 43 -20c18 0 35.667 5 53 15s30.666 20.333 39.999 31c-15.333 8.66699 -26.166 17.834 -32.499 27.501s-9.5 18.834 -9.5 27.501c0 11.333 4.16699 20.666 12.5 27.999s17.833 11 28.5 11
c8.66699 0 16.834 -3.33301 24.501 -10s11.5 -17.667 11.5 -33c0 -8.66699 -1 -16.334 -3 -23.001s-4.66699 -13.667 -8 -21c8 -3.33301 16 -5.5 24 -6.5s16.667 -1.5 26 -1.5h17zM418.995 422.993c4.66699 -9.33301 14.333 -17.333 29 -24c4 7.33301 6.83301 14 8.5 20
s2.5 11.333 2.5 16c0 10.667 -2.5 18.167 -7.5 22.5s-10.167 6.5 -15.5 6.5c-6 -1.33301 -11.167 -4.16602 -15.5 -8.49902s-6.5 -10.5 -6.5 -18.5c0 -2.66699 1.66699 -7.33398 5 -14.001z" />
    <glyph glyph-name="G" unicode="G" horiz-adv-x="538" 
d="M488 -184c0 -2.66699 -0.994141 -4.66895 -2.99414 -6.00195s-3.66699 -2 -5 -2c-5.33301 0 -8 2.66699 -8 8c-1.33301 16 -5.66602 31 -12.999 45s-16.5 26.833 -27.5 38.5s-23.333 21.834 -37 30.501s-27.834 16 -42.501 22c-10.667 -24 -23.334 -50.833 -38.001 -80.5
s-31.834 -57.5 -51.501 -83.5s-42.167 -47.833 -67.5 -65.5s-54.333 -26.5 -87 -26.5c-10 0 -19.833 1.5 -29.5 4.5s-18.334 8.16699 -26.001 15.5s-14 17 -19 29s-7.5 26.667 -7.5 44c0 22 5 44.833 15 68.5s24.333 45.167 43 64.5s41.334 35.333 68.001 48
s56.667 19 90 19c14 0 28 -0.666992 42 -2s27 -3.66602 39 -6.99902l31 72.5l31 72.5c-16 -10 -33.5 -18.667 -52.5 -26s-37.333 -13.333 -55 -18s-33.667 -8 -48 -10s-25.5 -3 -33.5 -3c-47.333 0 -82.166 13.5 -104.499 40.5s-33.5 62.167 -33.5 105.5
c0 50 12 104.667 36 164c-23.333 18 -41 39 -53 63s-18 49.333 -18 76c0 30 8 59 24 87s41 52 75 72c8 0 12 -2.66699 12 -8c0 -3.33301 -1.33301 -5.66602 -4 -6.99902h1c-31.333 -18.667 -54.666 -40.834 -69.999 -66.501s-23 -51.834 -23 -78.501
c0 -22.667 5.5 -44.834 16.5 -66.501s26.167 -40.5 45.5 -56.5c14 30.667 31.5 61.334 52.5 92.001s45.167 58.5 72.5 83.5s57.166 45.333 89.499 61s66.833 23.5 103.5 23.5c17.333 0 34.833 -2.16699 52.5 -6.5s33.5 -11.333 47.5 -21s25.333 -22.334 34 -38.001
s13 -34.5 13 -56.5c0 -24 -6.83301 -48.167 -20.5 -72.5s-33.667 -46.333 -60 -66s-58.5 -35.667 -96.5 -48s-81 -18.5 -129 -18.5c-24 0 -47.167 2.16699 -69.5 6.5s-43.5 12.166 -63.5 23.499c-21.333 -55.333 -32 -103.333 -32 -144c0 -40 10.333 -70.333 31 -91
s49.667 -31 87 -31c10.667 0 23.5 1 38.5 3s30.833 5.5 47.5 10.5s33.667 11.667 51 20s33.666 18.5 48.999 30.5c11.333 26.667 22.833 52.334 34.5 77.001s23 46.334 34 65.001s21.667 33.667 32 45s20.5 17.333 30.5 18c14 0 21 -7 21 -21
c0 -10 -4.16699 -22.5 -12.5 -37.5s-17.833 -30 -28.5 -45s-21.334 -28.833 -32.001 -41.5s-18.334 -22 -23.001 -28c-1.33301 -1.33301 -2 -2.33301 -2 -3l-1 -1l-94 -215c33.333 -12.667 62.666 -32.167 87.999 -58.5s39.666 -57.166 42.999 -92.499zM129.006 372.998
c1.33301 -1.33301 2.33301 -2 3 -2l-1 -2zM426.006 632.998c-35.333 0 -68.4971 -8.83301 -99.4971 -26.5s-59.167 -39.5 -84.5 -65.5s-47.333 -54.333 -66 -85s-33.334 -59 -44.001 -85c17.333 -9.33301 36.5 -16.333 57.5 -21s42.5 -7 64.5 -7c32 0 64.167 4.5 96.5 13.5
s61.5 21.667 87.5 38s47 36 63 59s24 48.833 24 77.5c0 18 -3.16699 33.5 -9.5 46.5s-14.333 23.667 -24 32s-20.334 14.333 -32.001 18s-22.834 5.5 -33.501 5.5zM212.009 -220.002c18.667 22.667 36.499 49.999 53.499 81.999l51.5 102c-25.333 6 -49.333 9 -72 9
c-34 0 -63.667 -6.16699 -89 -18.5s-46.5 -27.666 -63.5 -45.999s-29.667 -38.333 -38 -60s-12.5 -41.834 -12.5 -60.501c0 -27.333 6.33301 -46.666 19 -57.999s25.334 -17 38.001 -17c10 0 20.5 2 31.5 6s21.5 9.33301 31.5 16s19.333 14 28 22s16 15.667 22 23z
M469.008 222.997c1.33301 0 2.66699 -0.666992 4 -2v9zM459.009 213.997c2 3.33301 3.83105 5.49902 5.49805 6.49902s3.16699 1.83301 4.5 2.5c-1.33301 -2 -2.16602 -4.16699 -2.49902 -6.5s-1.16602 -4.16602 -2.49902 -5.49902z" />
    <glyph glyph-name="H" unicode="H" horiz-adv-x="718" 
d="M1049 593c-4 28 -14.0029 49.4971 -30.0029 64.4971s-35.667 22.5 -59 22.5c-25.333 0 -52 -10.667 -80 -32s-56 -49.166 -84 -83.499s-55.667 -73.333 -83 -117s-52.666 -87.5 -75.999 -131.5l73 4c2.66699 0 4.66699 -1 6 -3s2 -4 2 -6c0 -4.66699 -2.33301 -7 -7 -7
l-82 -4c-5.33301 -10 -13.5 -27 -24.5 -51s-22.167 -50 -33.5 -78s-21.333 -55.833 -30 -83.5s-13 -50.5 -13 -68.5c0 -15.333 2.33301 -24.333 7 -27s9 -4.33398 13 -5.00098l6 -1.5c1.33301 -0.333008 2 -2.16602 2 -5.49902c0 -4 -1.83301 -6.5 -5.5 -7.5
s-8.16699 -1.5 -13.5 -1.5c-28.667 4 -43 23.667 -43 59c0 18 3.5 39.667 10.5 65s15.333 50.666 25 75.999s19.667 49.5 30 72.5s18.833 41.167 25.5 54.5c-37.333 -1.33301 -73.833 -3 -109.5 -5s-72.5 -3.66699 -110.5 -5l-61.5 -129
c-20.333 -41.333 -40.666 -77.666 -60.999 -108.999s-41 -56.5 -62 -75.5s-42.5 -28.5 -64.5 -28.5c-23.333 0 -41.166 9.33301 -53.499 28s-18.5 42 -18.5 70c0 21.333 4.16699 44.833 12.5 70.5s21 49.834 38 72.501s38.333 41.5 64 56.5s55.5 22.5 89.5 22.5
c4.66699 0 7 -2.33301 7 -7c0 -4 -2.33301 -6.66699 -7 -8c-31.333 -2.66699 -58.666 -11 -81.999 -25s-42.833 -31.167 -58.5 -51.5s-27.334 -42 -35.001 -65s-11.5 -44.833 -11.5 -65.5c0 -23.333 4.16699 -42.166 12.5 -56.499s19.166 -21.5 32.499 -21.5
c16.667 0 33.834 9.16699 51.501 27.5s35.667 42.5 54 72.5s37 64.167 56 102.5l56.5 117.5l-72 -4c-5.33301 0 -8 2.66699 -8 8c0 1.33301 0.666992 2.83301 2 4.5s3.33301 2.5 6 2.5l80 4c20.667 46.667 41.667 91 63 133s42.666 79.667 63.999 113l-63 8
c-22.667 3.33301 -45.667 6 -69 8s-46.333 3 -69 3c-58 0 -101.833 -12.833 -131.5 -38.5s-44.5 -57.834 -44.5 -96.501c0 -21.333 6.5 -40.333 19.5 -57s33.167 -25 60.5 -25c14.667 0 29.5 3.83301 44.5 11.5s28.333 18.167 40 31.5s21.334 28.833 29.001 46.5
s11.834 36.834 12.501 57.501c0 4.66699 2.66699 7 8 7c4.66699 0 7 -2.33301 7 -7c-0.666992 -28 -6 -52.333 -16 -73s-22.5 -37.834 -37.5 -51.501s-31.5 -23.834 -49.5 -30.501s-35 -10 -51 -10c-14 0 -27.5 2.33301 -40.5 7s-24.5 11.334 -34.5 20.001
s-17.833 19.167 -23.5 31.5s-8.5 26.5 -8.5 42.5c0 30.667 6.66699 56 20 76s30.5 35.667 51.5 47s44.667 19.166 71 23.499s52.166 6.5 77.499 6.5s50.166 -1.16699 74.499 -3.5s47.833 -4.83301 70.5 -7.5c12 -1.33301 23.333 -2.66602 34 -3.99902s20.667 -2.33301 30 -3
c19.333 25.333 38.166 44 56.499 56s33.5 18 45.5 18s21.333 -3.16699 28 -9.5s10 -14.166 10 -23.499s-3.33301 -17.666 -10 -24.999s-15.5 -13.666 -26.5 -18.999s-23.167 -9.5 -36.5 -12.5s-26.333 -4.83301 -39 -5.5c-20 -29.333 -40.833 -65.5 -62.5 -108.5
l-64.5 -134.5c38 1.33301 75 3.16602 111 5.49902s72.667 4.16602 110 5.49902l45 82c16.667 29.333 34.167 58.5 52.5 87.5s37.833 56.833 58.5 83.5s41.834 50.167 63.501 70.5s43.834 36.5 66.501 48.5s45.667 18 69 18c29.333 0 55 -9.33301 77 -28
s35.333 -46.667 40 -84c-1.33301 -4.66699 -4 -7 -8 -7c-5.33301 0 -8 2.66699 -8 8zM559.997 612.997c-17.333 -11.333 -33.3311 -27.666 -47.998 -48.999c25.333 0.666992 45.666 5.66699 60.999 15s23 19.666 23 30.999c0 8 -4.33301 12 -13 12
c-6.66699 0 -14.334 -3 -23.001 -9z" />
    <glyph glyph-name="I" unicode="I" horiz-adv-x="395" 
d="M251 340c1.33301 3.33301 2.66602 6.16113 3.99902 8.49414s3.33301 3.5 6 3.5c1.33301 0 3 -0.5 5 -1.5s3 -2.83301 3 -5.5c-1.33301 -14.667 -8.66602 -27 -21.999 -37s-28.666 -15 -45.999 -15c-12 0 -22.667 2.66699 -32 8s-17.166 12.166 -23.499 20.499
s-11.166 17.833 -14.499 28.5s-5 21.334 -5 32.001c0 27.333 7 50.333 21 69s32.5 33.834 55.5 45.501s49 20 78 25s58.5 7.5 88.5 7.5c20 0 39.667 -1 59 -3c19.333 28.667 37.833 48.834 55.5 60.501s32.834 17.5 45.501 17.5c11.333 0 20.166 -3.16699 26.499 -9.5
s9.5 -14.166 9.5 -23.499c0 -8.66699 -3.33301 -16.667 -10 -24s-15.334 -13.666 -26.001 -18.999s-22.334 -9.66602 -35.001 -12.999s-25.334 -5.33301 -38.001 -6c-9.33301 -16 -19.333 -34.5 -30 -55.5l-32.5 -66l-32 -68.5l-28.5 -63l-56.5 -127
c-19.667 -42.667 -39.834 -81 -60.501 -115s-41.5 -61.667 -62.5 -83s-42.167 -32 -63.5 -32c-12.667 0 -23.5 2.83301 -32.5 8.5s-16.5 13 -22.5 22s-10.5 19.5 -13.5 31.5s-4.5 24.333 -4.5 37c0 2.66699 1 4.66699 3 6s3.66699 2 5 2c4 0 6.66699 -2 8 -6
c1.33301 -25.333 6.33301 -45.333 15 -60s20 -22 34 -22c16 0 32.833 10.167 50.5 30.5s35.667 47 54 80s37 70.167 56 111.5l55.5 124l29 67l30.5 66.5l30 61.5c9.66699 19.333 18.5 36 26.5 50c-5.33301 0 -10.166 0.166992 -14.499 0.5s-8.83301 0.833008 -13.5 1.5
c-6.66699 0.666992 -13.834 1.16699 -21.501 1.5s-14.834 0.5 -21.501 0.5c-24 0 -46.833 -3.16699 -68.5 -9.5s-40.5 -15.166 -56.5 -26.499s-28.667 -24.666 -38 -39.999s-14 -32 -14 -50c0 -8.66699 1.33301 -17.334 4 -26.001s6.33398 -16.5 11.001 -23.5
s10 -12.833 16 -17.5s12.667 -7 20 -7c10.667 0 20.334 5.66699 29.001 17zM512 575.995c-7.33301 -6 -14.832 -13.333 -22.499 -22s-15.167 -18.334 -22.5 -29.001c23.333 1.33301 42.666 6.83301 57.999 16.5s23 19.834 23 30.501c0 8.66699 -4.33301 13 -13 13
c-7.33301 0 -15 -3 -23 -9z" />
    <glyph glyph-name="J" unicode="J" horiz-adv-x="487" 
d="M304 462c2 4.66699 4.66309 7.33789 7.99609 8.00488h2c1.33301 -1.33301 2.66602 -2.33301 3.99902 -3s2 -2.33398 2 -5.00098c0 -27.333 -4.83301 -51.333 -14.5 -72s-22.167 -38 -37.5 -52s-32.166 -24.5 -50.499 -31.5s-36.166 -10.5 -53.499 -10.5
c-13.333 0 -26.333 2.16699 -39 6.5s-23.834 10.666 -33.501 18.999s-17.5 18.833 -23.5 31.5s-9 27.667 -9 45c0 48 19.167 85.5 57.5 112.5s90.833 40.5 157.5 40.5c26.667 0 53.5 -1.33301 80.5 -4s52.5 -5.66699 76.5 -9c10.667 -1.33301 20.5 -2.33301 29.5 -3
s18.167 -1.66699 27.5 -3c19.333 24.667 38.333 43.167 57 55.5s33.667 18.5 45 18.5c12 0 21.333 -3.16699 28 -9.5s10 -14.166 10 -23.499s-3.5 -17.5 -10.5 -24.5s-16 -13 -27 -18s-23.167 -8.83301 -36.5 -11.5s-26 -4.33398 -38 -5.00098
c-10.667 -16 -21.834 -34.5 -33.501 -55.5s-23.167 -43 -34.5 -66l-34.5 -70.5l-33.5 -71c-4 -8 -7.66699 -15.833 -11 -23.5l-10 -22.5c17.333 -13.333 29.666 -30 36.999 -50s11 -41.333 11 -64c0 -21.333 -3 -42.5 -9 -63.5s-14.333 -40.167 -25 -57.5
s-23.167 -31.666 -37.5 -42.999s-29.833 -17.333 -46.5 -18c-2.66699 0 -4.66699 1 -6 3s-2 3.66699 -2 5c0 5.33301 2.33301 8 7 8c14.667 0.666992 28.334 6.16699 41.001 16.5s23.667 23.5 33 39.5s16.666 33.833 21.999 53.5s8 39.167 8 58.5
s-3.16699 37.666 -9.5 54.999s-16.166 31.666 -29.499 42.999c-18 -38.667 -35.833 -74.834 -53.5 -108.501s-35.5 -63 -53.5 -88s-36.167 -44.833 -54.5 -59.5s-37.166 -22 -56.499 -22c-24 0 -42 9.5 -54 28.5s-18 42.5 -18 70.5c0 22.667 4.33301 47 13 73
s21.834 49.833 39.501 71.5s39.834 39.667 66.501 54s58 21.5 94 21.5c18 0 35 -2.66699 51 -8l10 21c21.333 47.333 43.833 94.833 67.5 142.5s47.5 90.167 71.5 127.5l-73 8c-21.333 2 -42.666 4.16699 -63.999 6.5s-42.666 3.5 -63.999 3.5c-30 0 -56 -3.83301 -78 -11.5
s-40.333 -17.667 -55 -30s-25.5 -26.166 -32.5 -41.499s-10.5 -30.333 -10.5 -45c0 -12 2 -23.5 6 -34.5s9.66699 -20.667 17 -29s16 -15 26 -20s21 -7.5 33 -7.5c10.667 0 23 3.16699 37 9.5s27.333 15.666 40 27.999s23.5 27.666 32.5 45.999s13.5 39.5 13.5 63.5v1z
M568.996 573.004c-14 -10.667 -27.666 -24.999 -40.999 -42.999h2c23.333 0 42.833 5 58.5 15s23.5 19.667 23.5 29c0 3.33301 -1.33301 6.16602 -4 8.49902s-6.33398 3.5 -11.001 3.5c-8 0 -17.333 -4.33301 -28 -13zM188.997 -25.9951c21.333 26 42.832 59.667 64.499 101
l67.5 134c-6.66699 2 -13.667 3.66699 -21 5s-14.666 2 -21.999 2c-33.333 0 -62.5 -6.5 -87.5 -19.5s-45.833 -29.5 -62.5 -49.5s-29.167 -41.833 -37.5 -65.5s-12.5 -46.167 -12.5 -67.5c0 -28 4.83301 -48 14.5 -60s20.167 -18 31.5 -18c21.333 0 43 12.667 65 38z" />
    <glyph glyph-name="K" unicode="K" horiz-adv-x="622" 
d="M607 577c-9.33301 -5.33301 -18.001 -11.833 -26.001 -19.5s-16 -16.167 -24 -25.5c28 0.666992 49.333 5 64 13s22 16.667 22 26c0 3.33301 -1.16699 6.5 -3.5 9.5s-6.16602 4.5 -11.499 4.5c-7.33301 0 -14.333 -2.33301 -21 -7v-1zM725.999 452
c-32.667 -4.66699 -58.1631 -14.1641 -76.4961 -28.4971s-35.166 -30.166 -50.499 -47.499l-31.5 -32c-11 -10.667 -24 -20.834 -39 -30.501s-32.333 -18.167 -52 -25.5s-43.167 -13 -70.5 -17c13.333 -20 25.166 -43.667 35.499 -71l32.5 -84
c9.33301 -26 19.333 -52 30 -78s22 -49.5 34 -70.5s24.667 -38 38 -51s28 -19.5 44 -19.5c14 0 29.5 5.5 46.5 16.5s35.5 28.833 55.5 53.5c1.33301 1.33301 2.66602 2 3.99902 2c2 0 4 -0.833008 6 -2.5s3 -3.16699 3 -4.5c0 -0.666992 -0.166992 -1.33398 -0.5 -2.00098
s-0.5 -1.33398 -0.5 -2.00098c-24.667 -30.667 -47.667 -52.834 -69 -66.501s-40.666 -20.5 -57.999 -20.5c-20.667 0 -39.334 7.5 -56.001 22.5s-32 34.333 -46 58s-27 50.334 -39 80.001l-35 88.5l-25 63.5c-8.66699 21 -17 39.833 -25 56.5l-64 -115.5
c-20.667 -36.333 -41.167 -68 -61.5 -95s-40.5 -48.5 -60.5 -64.5s-40 -24 -60 -24c-24.667 0 -43 8.66699 -55 26s-18 39.333 -18 66c0 22.667 4.66699 46.667 14 72s23 48.833 41 70.5s40.333 39.667 67 54s57.667 21.5 93 21.5c4.66699 0 7 -2.66699 7 -8
c0 -4.66699 -2.33301 -7 -7 -7c-32.667 0 -61.334 -6.66699 -86.001 -20s-45.334 -30 -62.001 -50s-29.334 -41.833 -38.001 -65.5s-13 -45.834 -13 -66.501c0 -24 4.66699 -42.333 14 -55s19.666 -19 30.999 -19c16.667 0 34.334 8.83301 53.001 26.5s37.667 41 57 70
s39.333 61.833 60 98.5l62 112c-25.333 0.666992 -43 5.66699 -53 15s-15 18.666 -15 27.999s3.33301 17.333 10 24s15.334 10 26.001 10c8 0 16.667 -2.66699 26 -8s18.666 -13.666 27.999 -24.999l63.5 112c21 36 41.5 68 61.5 96
c-5.33301 0.666992 -11.166 1.33398 -17.499 2.00098s-12.833 1.66699 -19.5 3l-50 4c-16.667 1.33301 -33 2 -49 2c-15.333 0 -30.333 -0.833008 -45 -2.5s-28.667 -4.83398 -42 -9.50098c-15.333 -6.66699 -30 -15.834 -44 -27.501s-26.5 -24.834 -37.5 -39.501
s-19.667 -30.5 -26 -47.5s-9.5 -33.833 -9.5 -50.5c0 -17.333 3.33301 -34.666 10 -51.999c0 -6 -2.66699 -9 -8 -9c-3.33301 0 -6.33301 2.83301 -9 8.5s-4.83398 12.5 -6.50098 20.5s-2.83398 15.833 -3.50098 23.5s-1 13.5 -1 17.5c0 26.667 4.83301 51.834 14.5 75.501
s23 44.167 40 61.5s37.167 31 60.5 41s49 15 77 15c18 0 36.333 -1.16699 55 -3.5s37.334 -5.16602 56.001 -8.49902l34.5 -5.5c11 -1.66699 22.167 -3.16699 33.5 -4.5c22 27.333 42 46.333 60 57s33.333 16 46 16c12 0 21.333 -3.33301 28 -10s10 -14.667 10 -24
c0 -10 -3.66699 -18.333 -11 -25s-16.5 -12.167 -27.5 -16.5s-23.333 -7.66602 -37 -9.99902s-26.5 -3.5 -38.5 -3.5c-21.333 -28 -43.5 -61.833 -66.5 -101.5l-67.5 -121.5c26 6.66699 48.167 14 66.5 22s33.833 16.333 46.5 25s23.667 17.5 33 26.5s18 18.167 26 27.5
l24 25c8 8 17.5 15.167 28.5 21.5s24 11.666 39 15.999s33.167 7.16602 54.5 8.49902c3.33301 -2 5 -4.33301 5 -7c0 -4.66699 -2.66699 -7 -8 -7zM356.003 283.003c-8.66699 14 -16.5 23.833 -23.5 29.5s-13.167 8.5 -18.5 8.5c-6 0 -9 -3.33301 -9 -10
c0 -6 3.33301 -11.833 10 -17.5s17.667 -9.16699 33 -10.5h8z" />
    <glyph glyph-name="L" unicode="L" horiz-adv-x="596" 
d="M591 167c2 2 3.99805 2.99805 5.99805 2.99805c1.33301 0 3 -0.666992 5 -2s3 -3.33301 3 -6c0 -2 -0.666992 -3.66699 -2 -5h1c-16.667 -27.333 -33.167 -49.833 -49.5 -67.5s-32.666 -31.5 -48.999 -41.5s-33 -17 -50 -21s-34.167 -6 -51.5 -6
c-14 0 -28.5 0.833008 -43.5 2.5s-30.167 3.83398 -45.5 6.50098c-18 2.66699 -36.667 5.16699 -56 7.5s-38.666 3.5 -57.999 3.5h-15c-19.333 -31.333 -37.666 -53.666 -54.999 -66.999s-32.666 -20 -45.999 -20c-11.333 0 -20.333 3.83301 -27 11.5s-10 16.5 -10 26.5
s3.33301 18.667 10 26s15.167 13.5 25.5 18.5s21.666 8.83301 33.999 11.5s24.166 4.66699 35.499 6c16 27.333 30.833 59.166 44.5 95.499l40.5 111.5l20 58.5c6.66699 19 13.667 37.833 21 56.5c-33.333 12 -57.333 29.667 -72 53s-22 49 -22 77
c0 26 6.33301 53.167 19 81.5s30.5 54 53.5 77s50.333 42 82 57s66.5 22.5 104.5 22.5c4.66699 0 10.334 -0.333008 17.001 -1s12.667 -1.83398 18 -3.50098s10 -3.66699 14 -6s6 -4.83301 6 -7.5c0 -4 -3.33301 -6 -10 -6c-10 2.66699 -21.667 4 -35 4
c-34 0 -65.167 -6.33301 -93.5 -19s-52.5 -29 -72.5 -49s-35.5 -42.5 -46.5 -67.5s-16.5 -49.833 -16.5 -74.5c0 -23.333 4.83301 -44.833 14.5 -64.5s26.167 -35.167 49.5 -46.5c15.333 37.333 32.666 74 51.999 110s40.666 68.333 63.999 97s48.666 51.667 75.999 69
s57 26 89 26c32.667 0 57.667 -10.667 75 -32s26 -47.333 26 -78c0 -27.333 -6.5 -55 -19.5 -83s-32.167 -53.167 -57.5 -75.5s-56.833 -40.5 -94.5 -54.5s-81.5 -21 -131.5 -21c-10 0 -19.5 0.333008 -28.5 1s-17.5 2 -25.5 4l-20.5 -54.5l-20.5 -57.5l-37.5 -107
c-12.333 -34.667 -25.833 -64.667 -40.5 -90c21.333 0 41.333 -1.16699 60 -3.5s37 -4.83301 55 -7.5c16.667 -2.66699 32.334 -4.83398 47.001 -6.50098s29.334 -2.5 44.001 -2.5c16 0 32 1.83301 48 5.5s31.667 10.334 47 20.001s30.833 22.834 46.5 39.501
s31.5 38.334 47.5 65.001h1zM133.998 23.998c1.33301 1.33301 3.33301 4.66797 6 10.001l1 1l2 3c-29.333 -5.33301 -49.833 -12.5 -61.5 -21.5s-17.5 -17.167 -17.5 -24.5c0 -4.66699 1.66699 -8.66699 5 -12s7.66602 -5 12.999 -5c4.66699 0 9.66699 2 15 6
s10.333 8.5 15 13.5s8.83398 10.167 12.501 15.5s6.5 9.66602 8.5 12.999zM510.998 665c-20 -12 -38.8301 -27.6719 -56.4971 -47.0049s-34.334 -41.166 -50.001 -65.499s-30.334 -50.666 -44.001 -78.999s-26.167 -56.833 -37.5 -85.5
c10.667 -3.33301 21.667 -5.66602 33 -6.99902s22.666 -2 33.999 -2c32.667 0 64.667 5.33301 96 16s59.5 25.334 84.5 44.001s45.167 40.834 60.5 66.501s23 53.5 23 83.5c0 28 -6.83301 51.5 -20.5 70.5s-32.5 28.5 -56.5 28.5c-20 0 -42 -7.66699 -66 -23z" />
    <glyph glyph-name="M" unicode="M" horiz-adv-x="781" 
d="M371 -46c3.33301 2 6.33398 9.5 9.00098 22.5s5 29.167 7 48.5c-4.66699 -10 -9.66699 -21.833 -15 -35.5s-8 -24.167 -8 -31.5c0 -3.33301 1 -5 3 -5c1.33301 0 2.66602 0.333008 3.99902 1zM598.001 28c0 38 5.33398 79.3262 16.001 123.993s25 89.834 43 135.501
s38.667 89.667 62 132s47.666 80.166 72.999 113.499c-34 -26.667 -68.667 -59.667 -104 -99s-69 -80.666 -101 -123.999s-61.667 -86.666 -89 -129.999s-50.333 -82.333 -69 -117c-1.33301 -11.333 -3 -24.333 -5 -39s-5.5 -28.5 -10.5 -41.5s-11.5 -23.833 -19.5 -32.5
s-18 -13 -30 -13c-10 0 -15 6.33301 -15 19c0 7.33301 1.5 16.166 4.5 26.499s6.66699 20.666 11 30.999s8.66602 19.833 12.999 28.5l9.5 19c0.666992 1.33301 1.33398 2.16602 2.00098 2.49902s1 0.833008 1 1.5v2c2.66699 38 7.5 81.833 14.5 131.5
s18.167 100.167 33.5 151.5l-38 -71l-66 -121c-22.667 -41.333 -45.834 -78.666 -69.501 -111.999s-47 -60.666 -70 -81.999s-45.5 -32 -67.5 -32c-24.667 0 -43 8.83301 -55 26.5s-18 39.5 -18 65.5c0 22.667 4.66699 46.834 14 72.501s23 49.334 41 71.001
s40.333 39.667 67 54s57.667 21.5 93 21.5c5.33301 0 8 -2.66699 8 -8s-2.66699 -8 -8 -8c-32.667 0 -61.334 -6.66699 -86.001 -20s-45.334 -30 -62.001 -50s-29.334 -41.833 -38.001 -65.5s-13 -45.834 -13 -66.501c0 -25.333 4.66699 -44.166 14 -56.499
s19.333 -18.5 30 -18.5c16.667 0 34.667 9.5 54 28.5s39.333 43.667 60 74s41.834 65 63.501 104l64.5 118.5l71 130c22.667 41.333 45.667 77 69 107c-12 1.33301 -24.167 3.16602 -36.5 5.49902l-38.5 7.5l-74 12c-25.333 4 -49.666 6 -72.999 6
c-25.333 0 -47.833 -3.5 -67.5 -10.5s-36.5 -16.5 -50.5 -28.5s-24.667 -25.833 -32 -41.5s-11 -32.167 -11 -49.5c0 -11.333 2.16699 -22 6.5 -32s10.333 -18.833 18 -26.5s16.334 -13.667 26.001 -18s19.834 -6.5 30.501 -6.5c14 0 28.167 3.66699 42.5 11
s27.333 17.333 39 30s21.667 27.5 30 44.5s13.833 34.833 16.5 53.5c0 4.66699 2.66699 7 8 7c1.33301 0 3 -0.5 5 -1.5s3 -3.16699 3 -6.5c-2.66699 -26 -9.16699 -48.667 -19.5 -68s-22.833 -35.5 -37.5 -48.5s-30.834 -22.833 -48.501 -29.5s-35.167 -10 -52.5 -10
c-14 0 -27.5 2.16699 -40.5 6.5s-24.333 10.833 -34 19.5s-17.5 19.334 -23.5 32.001s-9 27.334 -9 44.001c0 44 17.333 79.5 52 106.5s82 40.5 142 40.5c30 0 61 -2.33301 93 -7s62 -9.66699 90 -15l61 -10c20.667 24.667 39.667 42.334 57 53.001s32.333 16 45 16
s22.167 -3.66699 28.5 -11s9.5 -15.333 9.5 -24s-2.83301 -16.334 -8.5 -23.001s-13.334 -12.334 -23.001 -17.001s-20.334 -8.16699 -32.001 -10.5s-23.5 -3.5 -35.5 -3.5c-16 -26 -30.167 -53.667 -42.5 -83s-23.166 -59.166 -32.499 -89.499
s-17.166 -60.666 -23.499 -90.999s-11.166 -59.833 -14.499 -88.5c24.667 42 53.334 85.833 86.001 131.5s67 89.167 103 130.5s72.833 78 110.5 110s74.167 55.667 109.5 71c6.66699 2.66699 13.667 4 21 4c4.66699 0 8.83398 -0.833008 12.501 -2.5s5.5 -4.16699 5.5 -7.5
c0 -2 -1.33301 -4.33301 -4 -7c-14 -16.667 -29.5 -37 -46.5 -61s-34.5 -51 -52.5 -81s-35.5 -62 -52.5 -96s-32.167 -69.167 -45.5 -105.5s-24 -72.833 -32 -109.5s-12 -72.667 -12 -108c0 -14 1 -27.5 3 -40.5s5.66699 -24.5 11 -34.5s12.166 -18.167 20.499 -24.5
s19.166 -9.5 32.499 -9.5c16 0 30.167 4.83301 42.5 14.5s22.5 21.5 30.5 35.5c1.33301 4 4 6 8 6c4.66699 0 7 -4 7 -12c-10 -19.333 -24 -34.833 -42 -46.5s-37 -17.5 -57 -17.5c-13.333 0 -26 2.5 -38 7.5s-22.5 12.833 -31.5 23.5s-16.333 24.334 -22 41.001
s-8.5 36.334 -8.5 59.001zM557.002 524.993l6 0.000976562c-1.33301 -1.33301 -2 -2.33301 -2 -3s-0.333008 -1.33398 -1 -2.00098zM623.002 577.994c-5.33301 0 -10.832 -1.99902 -16.499 -5.99902s-11.334 -8.83301 -17.001 -14.5s-10.834 -11.5 -15.501 -17.5
s-8.33398 -11 -11.001 -15c6.66699 0 14.334 1 23.001 3s16.834 4.66699 24.501 8s14 7.33301 19 12s7.5 9.66699 7.5 15c0 3.33301 -1.5 6.66602 -4.5 9.99902s-6.16699 5 -9.5 5z" />
    <glyph glyph-name="N" unicode="N" horiz-adv-x="525" 
d="M201 461c0 2.66699 1.15918 4.49023 3.49219 5.49023s4.16602 1.5 5.49902 1.5c4 0 6 -2 6 -6c0 -27.333 -4.83301 -51.5 -14.5 -72.5s-22.167 -38.5 -37.5 -52.5s-32.166 -24.5 -50.499 -31.5s-36.166 -10.5 -53.499 -10.5c-34 0 -59.833 10.333 -77.5 31
s-26.5 45 -26.5 73c0 20 4.83301 40.167 14.5 60.5s24.834 38.166 45.501 53.499c19.333 14 42.666 23.667 69.999 29s56 8 86 8c25.333 0 50.5 -1.16699 75.5 -3.5s49.167 -4.83301 72.5 -7.5c12.667 -1.33301 24.334 -2.66602 35.001 -3.99902s20.667 -2.33301 30 -3
c19.333 25.333 38 43.833 56 55.5s33.333 17.5 46 17.5c11.333 0 20.333 -3.16699 27 -9.5s10 -14.166 10 -23.499s-3.16699 -17.5 -9.5 -24.5s-14.5 -13 -24.5 -18s-21.167 -8.83301 -33.5 -11.5s-24.5 -4.33398 -36.5 -5.00098c-27.333 -48 -46.666 -99.5 -57.999 -154.5
s-17 -108.167 -17 -159.5v-34.5c0 -9.66699 0.666992 -21.167 2 -34.5c14 33.333 30.833 68.833 50.5 106.5s41.334 74.834 65.001 111.501s48.834 71.667 75.501 105s54.334 62.833 83.001 88.5s57.5 46 86.5 61s57.833 22.5 86.5 22.5c5.33301 0 11.833 -0.5 19.5 -1.5
s11.5 -4.5 11.5 -10.5c0 -3.33301 -2 -5 -6 -5h-9c-1.33301 0 -2.66602 0.166992 -3.99902 0.5s-2.66602 0.5 -3.99902 0.5c-21.333 0 -43.333 -6.33301 -66 -19s-44.834 -28.167 -66.501 -46.5s-41.5 -37.666 -59.5 -57.999s-32.667 -37.833 -44 -52.5
c-22.667 -29.333 -44.834 -61.166 -66.501 -95.499s-41.667 -68.833 -60 -103.5s-34.833 -68.167 -49.5 -100.5s-26.667 -61.5 -36 -87.5v-6c0.666992 -4 1.16699 -9 1.5 -15s0.5 -12 0.5 -18c0 -8 -0.666992 -16.333 -2 -25s-3.66602 -16.5 -6.99902 -23.5
s-7.83301 -12.833 -13.5 -17.5s-13.167 -7 -22.5 -7c-12 0 -18 8.66699 -18 26c0 6.66699 0.666992 13.834 2 21.501s3 15.334 5 23.001s4 14.667 6 21l5 15.5c0 0.666992 0.166992 1.5 0.5 2.5s0.5 1.83301 0.5 2.5s0.333008 1.33398 1 2.00098
c-2 20 -3.83301 42.5 -5.5 67.5s-2.5 50.833 -2.5 77.5c0 22 0.666992 44.333 2 67s4 45.667 8 69l-27 -56l-58.5 -125c-20.333 -42.667 -41.5 -81.334 -63.5 -116.001s-44.167 -63.167 -66.5 -85.5s-44.833 -33.5 -67.5 -33.5c-24 0 -42.167 9.33301 -54.5 28
s-18.5 42 -18.5 70c0 21.333 4.16699 44.833 12.5 70.5s20.833 49.5 37.5 71.5s37.834 40.5 63.501 55.5s55.5 22.5 89.5 22.5c4.66699 0 7 -2.33301 7 -7c0 -4 -2.66699 -6.66699 -8 -8c-29.333 -3.33301 -55.5 -12.166 -78.5 -26.499s-42.5 -31.166 -58.5 -50.499
s-28.333 -40.166 -37 -62.499s-13 -43.5 -13 -63.5c0 -23.333 4.83301 -42.333 14.5 -57s20.167 -22 31.5 -22c13.333 0 27.833 7.33301 43.5 22s31.167 33.334 46.5 56.001s30.5 47.334 45.5 74.001s28.5 52.167 40.5 76.5l30.5 63.5c8.33301 18 13.5 29.667 15.5 35
l64.5 135.5c21.667 43.667 43.5 82.5 65.5 116.5l-33.5 4.5c-12.333 1.66699 -24.166 3.16699 -35.499 4.5c-21.333 2.66699 -43.5 5.16699 -66.5 7.5s-45.167 3.5 -66.5 3.5c-30 0 -55.833 -3.83301 -77.5 -11.5s-39.834 -17.667 -54.501 -30s-25.5 -26.166 -32.5 -41.499
s-10.5 -30.333 -10.5 -45c0 -12 2 -23.5 6 -34.5s9.66699 -20.667 17 -29s16 -15 26 -20s21 -7.5 33 -7.5c10.667 0 23 3 37 9s27.333 15.167 40 27.5s23.5 27.666 32.5 45.999s13.833 39.833 14.5 64.5zM505.992 581.99c-3.33301 3.33301 -6.66699 5.00098 -10 5.00098
c-4.66699 0 -10 -2.16699 -16 -6.5s-12 -9.5 -18 -15.5s-11.833 -12.333 -17.5 -19s-10.167 -12.334 -13.5 -17.001c6 0.666992 13.5 2 22.5 4s17.667 4.83301 26 8.5s15.5 8 21.5 13s9 10.5 9 16.5c0 4 -1.33301 7.66699 -4 11zM316.991 4.99121v5c0 2 -0.166992 4 -0.5 6
s-0.5 4 -0.5 6l6 -1zM309.991 -51.0088c5.33301 0.666992 8.00098 9 8.00098 25v14c0 5.33301 -0.333008 11 -1 17c-2.66699 -9.33301 -4.83398 -18.333 -6.50098 -27s-2.5 -15.667 -2.5 -21s0.666992 -8 2 -8z" />
    <glyph glyph-name="O" unicode="O" horiz-adv-x="593" 
d="M405 668c2.66699 0 4.66699 -1.00391 6 -3.00391s2 -3.66699 2 -5c0 -5.33301 -2.33301 -8 -7 -8c-29.333 -2 -56.666 -9.83301 -81.999 -23.5s-48.5 -31.167 -69.5 -52.5s-39.5 -46 -55.5 -74s-29.667 -57.333 -41 -88s-19.833 -62 -25.5 -94s-8.5 -62.667 -8.5 -92
c0 -27.333 2.33301 -53.166 7 -77.499s12 -45.5 22 -63.5s22.5 -32.333 37.5 -43s32.5 -16 52.5 -16c31.333 0 61.666 10.833 90.999 32.5s56.333 49.334 81 83.001s46.5 71 65.5 112s33.833 80.833 44.5 119.5c-10 -4.66699 -20.5 -8.33398 -31.5 -11.001
s-21.167 -4 -30.5 -4c-25.333 0 -47.166 6.66699 -65.499 20s-27.5 33 -27.5 59c0 18.667 3.66699 35.5 11 50.5s16.666 27.833 27.999 38.5s24 18.667 38 24s27.667 8 41 8c24 0 45.167 -8.33301 63.5 -25s27.5 -43.667 27.5 -81c0 -1.33301 -0.166992 -3 -0.5 -5
s-0.5 -3.66699 -0.5 -5c8 15.333 14.333 32.833 19 52.5s7 38.5 7 56.5c0 22 -2.83301 43.5 -8.5 64.5s-14.5 39.667 -26.5 56s-26.833 29.5 -44.5 39.5s-38.5 15 -62.5 15c-14.667 0 -30.834 -2.33301 -48.501 -7s-37.167 -12.334 -58.5 -23.001
c-2.66699 0 -4.66699 1 -6 3s-2 3.66699 -2 5c0 3.33301 1.33301 6 4 8c39.333 19.333 76.333 29 111 29c26 0 48.833 -5.5 68.5 -16.5s36 -25.5 49 -43.5s22.833 -38.333 29.5 -61s10 -45.667 10 -69c0 -16.667 -1.5 -32.167 -4.5 -46.5s-6.66699 -27.166 -11 -38.499
s-8.83301 -21.166 -13.5 -29.499l-11 -19.5c-1.33301 -1.33301 -2.16602 -2.33301 -2.49902 -3l-1.5 -3c-0.666992 -1.33301 -1 -2.33301 -1 -3c-5.33301 -26.667 -12.833 -55.167 -22.5 -85.5s-21.667 -60.666 -36 -90.999s-31 -59.333 -50 -87s-40 -52.167 -63 -73.5
s-48.167 -38.333 -75.5 -51s-56.666 -19 -87.999 -19c-28 0 -52.5 6.33301 -73.5 19s-38.5 29.834 -52.5 51.501s-24.333 47 -31 76s-10 59.833 -10 92.5c0 46 7 93.667 21 143s35 94.5 63 135.5s62.667 75.167 104 102.5s89.666 42.333 144.999 45zM530 394.996v1l1 1z
M461 375.996c24.667 0 47.6689 6.66504 69.002 19.998c2 9.33301 3.66699 19 5 29s2 19.667 2 29c0 28.667 -5.5 49.834 -16.5 63.501s-25.167 20.5 -42.5 20.5c-10.667 0 -21.334 -2.5 -32.001 -7.5s-20.5 -11.667 -29.5 -20s-16.333 -18.333 -22 -30
s-8.5 -24.5 -8.5 -38.5c0 -23.333 7.66699 -40.166 23 -50.499s32.666 -15.5 51.999 -15.5z" />
    <glyph glyph-name="P" unicode="P" horiz-adv-x="451" 
d="M596 401c12.667 8.66699 24.3311 18.8311 34.998 30.498s19.834 24.334 27.501 38.001s13.667 27.667 18 42s6.5 28.5 6.5 42.5c0 30.667 -12.167 58.667 -36.5 84s-63.5 42 -117.5 50c-12.667 -13.333 -25.167 -31.166 -37.5 -53.499s-24.666 -47.5 -36.999 -75.5
s-24.5 -58.167 -36.5 -90.5l-36 -98.5c20 -12 42 -18 66 -18c26 0 52.667 4.83301 80 14.5s50 21.167 68 34.5zM260.997 317.997c5.33301 0 8.00098 -2.67188 8.00098 -8.00488c0 -3.33301 -2 -5.66602 -6 -6.99902c-28.667 -5.33301 -53.334 -15.333 -74.001 -30
s-37.834 -31.667 -51.501 -51s-23.667 -40.166 -30 -62.499s-9.5 -43.5 -9.5 -63.5c0 -24 4.33301 -45.333 13 -64s21 -28 37 -28c14.667 0 29 8.33301 43 25s27.833 38.5 41.5 65.5s27 57.833 40 92.5l38.5 105l16.5 46.5l17.5 46.5c-7.33301 14.667 -11 30.334 -11 47.001
c0 19.333 3.66699 36.333 11 51s13.666 22 18.999 22c1.33301 0 2.66602 -0.833008 3.99902 -2.5s2 -3.16699 2 -4.5c0 -2.66699 -1.66699 -7.33398 -5 -14.001c-3.33301 -6 -6.83301 -13.167 -10.5 -21.5s-5.5 -18.166 -5.5 -29.499c0 -8.66699 1.66699 -17.334 5 -26.001
c10 30 20.333 59.167 31 87.5s21.667 54.833 33 79.5s23 47 35 67s25 36.667 39 50h-10c-43.333 0 -85.666 -8.33301 -126.999 -25s-78 -39.334 -110 -68.001s-57.833 -62.667 -77.5 -102s-29.5 -81.333 -29.5 -126c0 -7.33301 0.333008 -12.666 1 -15.999
c0 -3.33301 0.166992 -6.33301 0.5 -9s0.5 -5.33398 0.5 -8.00098s-1 -4.66699 -3 -6s-4 -2 -6 -2c-2.66699 0 -4.66699 1.66699 -6 5s-2.33301 7.33301 -3 12s-1 9.33398 -1 14.001v12c0 48 11 92.667 33 134s51 77.333 87 108s77 54.834 123 72.501s93 26.5 141 26.5h12
c0.666992 0.666992 6.16699 3.33398 16.5 8.00098s19.833 7 28.5 7c9.33301 0 14 -3.33301 14 -10c0 -3.33301 -1.16699 -5.33301 -3.5 -6s-5.16602 -1.66699 -8.49902 -3c56 -9.33301 96.5 -28 121.5 -56s37.5 -59.667 37.5 -95c0 -26 -6.5 -52 -19.5 -78
s-31.167 -49.667 -54.5 -71s-51.666 -38.666 -84.999 -51.999s-70 -20 -110 -20c-14.667 0 -28.334 1.16699 -41.001 3.5s-24.667 6.5 -36 12.5c-16 -47.333 -32.333 -93.166 -49 -137.499s-34 -83.5 -52 -117.5s-36.833 -61.167 -56.5 -81.5s-40.834 -30.5 -63.501 -30.5
c-23.333 0 -41.5 10.667 -54.5 32s-19.5 47.333 -19.5 78c0 22 3.5 45 10.5 69s17.833 46.5 32.5 67.5s33.334 39.167 56.001 54.5s49.334 25.666 80.001 30.999z" />
    <glyph glyph-name="Q" unicode="Q" horiz-adv-x="685" 
d="M475 662c4.66699 -1.33301 7.00098 -4.00586 7.00098 -8.00586c0 -5.33301 -2.66699 -8 -8 -8c-28 -2.66699 -54.667 -10.667 -80 -24s-48.833 -30.833 -70.5 -52.5s-41.167 -46.5 -58.5 -74.5s-32 -57.5 -44 -88.5s-21.333 -62.5 -28 -94.5s-10 -63 -10 -93
c0 -23.333 2 -45 6 -65c24 -7.33301 48.5 -21.333 73.5 -42l73.5 -63l23 -20c28.667 13.333 56 34 82 62s49.5 59 70.5 93s39 69 54 105s26.167 68.667 33.5 98c-12 -3.33301 -23.667 -5 -35 -5c-25.333 0 -47 7.66699 -65 23s-27 36 -27 62c0 28 8.33301 50.333 25 67
s36.667 25 60 25c26.667 0 48.167 -11 64.5 -33s24.5 -49.333 24.5 -82c0 -1.33301 -0.166992 -2.66602 -0.5 -3.99902s-0.5 -2.66602 -0.5 -3.99902c8.66699 11.333 15.5 25.166 20.5 41.499s7.5 32.5 7.5 48.5c0 19.333 -3.66699 38.833 -11 58.5
s-18.166 37.5 -32.499 53.5s-32.333 29.5 -54 40.5s-46.5 17.5 -74.5 19.5c-5.33301 0 -8 2.33301 -8 7c0 2 1.16699 4 3.5 6s7.16602 3 14.499 3c27.333 0 52 -5.83301 74 -17.5s40.667 -26.5 56 -44.5s27.166 -38.167 35.499 -60.5s12.5 -44.166 12.5 -65.499
c0 -22 -4 -43.333 -12 -64s-19.667 -37.334 -35 -50.001c-5.33301 -30.667 -13.666 -62.334 -24.999 -95.001c-9.33301 -28 -22.333 -59.5 -39 -94.5s-38 -69.5 -64 -103.5c-18.667 -24.667 -39.834 -47 -63.501 -67s-46.834 -34.333 -69.501 -43
c18 -15.333 36.333 -29.333 55 -42s36.667 -19 54 -19c6.66699 0 14.667 2.16699 24 6.5s18.5 10.833 27.5 19.5s16.667 18.834 23 30.501s9.5 25.167 9.5 40.5c0 18.667 -10.333 36.334 -31 53.001c-2 2 -3 4 -3 6c0 5.33301 3.66699 8 11 8
c13.333 -9.33301 23 -19.833 29 -31.5s9 -23.5 9 -35.5c0 -18 -3.83301 -34.167 -11.5 -48.5s-17 -26.5 -28 -36.5s-22.667 -17.5 -35 -22.5s-23.166 -7.5 -32.499 -7.5c-13.333 0 -26.333 2.33301 -39 7s-24.667 10.334 -36 17.001s-21.5 13.5 -30.5 20.5
s-16.5 13.167 -22.5 18.5c-4 2.66699 -6.66699 4.66699 -8 6l-3 3h-12c-2.66699 0 -5.5 -0.166992 -8.5 -0.5s-6.16699 -0.5 -9.5 -0.5c-11.333 0 -24.5 1.5 -39.5 4.5s-30.167 9.33301 -45.5 19s-29.5 23.667 -42.5 42s-23.167 42.833 -30.5 73.5
c-2.66699 1.33301 -5 1.83301 -7 1.5s-4 -0.5 -6 -0.5c-15.333 0 -28.5 -6.66699 -39.5 -20s-16.5 -27.666 -16.5 -42.999c0 -4 0.333008 -7 1 -9c1.33301 -4 2 -7.33301 2 -10c0 -4.66699 -2.66699 -7 -8 -7c-3.33301 0 -5.83301 3.5 -7.5 10.5s-2.5 12.5 -2.5 16.5
c0 10 2 19.667 6 29s9.5 17.833 16.5 25.5s15.333 13.834 25 18.501s20.5 7.33398 32.5 8.00098c-1.33301 8.66699 -2.33301 18.334 -3 29.001s-1 21.334 -1 32.001c0 31.333 3.33301 64.166 10 98.499s16 67.833 28 100.5s27 63.667 45 93s38.333 55.166 61 77.499
s47.5 40 74.5 53s56.167 19.5 87.5 19.5h10.5c3.66699 0 7.16699 -0.333008 10.5 -1h1zM301.001 37.9941l-52.0029 43.5c-17.333 15 -34.666 27.5 -51.999 37.5c4.66699 -12.667 10.667 -25 18 -37s15.833 -22.833 25.5 -32.5s20.667 -17.334 33 -23.001
s25.833 -8.5 40.5 -8.5c2.66699 0 4.33398 -0.166992 5.00098 -0.5s2.33398 -0.166016 5.00098 0.500977zM600.998 402.994v2c0.666992 0 1 0.166992 1 0.5s0.333008 0.5 1 0.5zM567.998 398.994c5.33301 0 10.834 0.5 16.501 1.5s11.167 2.5 16.5 4.5
c1.33301 5.33301 2.33301 11 3 17s1 12 1 18c0 30 -6 54.167 -18 72.5s-27 27.5 -45 27.5c-5.33301 0 -11.166 -1.33301 -17.499 -4s-12.333 -6.66699 -18 -12s-10.334 -12.333 -14.001 -21s-5.5 -19.334 -5.5 -32.001c0 -21.333 8.16699 -38.666 24.5 -51.999
s35.166 -20 56.499 -20z" />
    <glyph glyph-name="R" unicode="R" horiz-adv-x="769" 
d="M775 566c0 28 -11.8301 50.168 -35.4971 66.501s-53.834 26.833 -90.501 31.5c0.666992 -0.666992 1 -1.66699 1 -3c0 -4 -2 -6.66699 -6 -8c-18 -2 -36.833 -12.833 -56.5 -32.5s-39.5 -44.834 -59.5 -75.501s-39.833 -64.834 -59.5 -102.501l-57.5 -113.5
c-2 -3.33301 -4 -7.16602 -6 -11.499s-3.66699 -8.16602 -5 -11.499h4c24.667 0 51.167 3.83301 79.5 11.5s56.166 18 83.499 31s53.5 28.167 78.5 45.5s47.167 35.666 66.5 54.999s34.666 39 45.999 59s17 39.333 17 58zM109.003 343.001
c-1.33301 -2.66699 -3.66406 -3.99902 -6.99707 -3.99902c-2.66699 0 -5 0.666992 -7 2s-2.33301 4 -1 8c24.667 58.667 57.5 109 98.5 151s85.5 76.667 133.5 104s97.5 47.5 148.5 60.5s98.5 19.5 142.5 19.5c28 0 54.167 -2.5 78.5 -7.5s45.166 -12.5 62.499 -22.5
s31 -22.167 41 -36.5s15 -30.833 15 -49.5c0 -20.667 -5.83301 -42 -17.5 -64s-27.5 -43.167 -47.5 -63.5s-43.333 -39.666 -70 -57.999s-55 -34.166 -85 -47.499s-61 -24 -93 -32s-63 -12 -93 -12h-9c-1.33301 0 -2.5 0.166992 -3.5 0.5s-2.16699 0.5 -3.5 0.5
c-1.33301 -1.33301 -2 -3 -2 -5l22 -46l37.5 -74c13 -25.333 26.833 -48.5 41.5 -69.5s30.167 -38.167 46.5 -51.5s34.166 -20 53.499 -20c18 0 37.333 7 58 21s42.667 37 66 69l-1 -1c1.33301 2.66699 3.66602 4 6.99902 4c5.33301 0 7.66602 -3.66699 6.99902 -11
c-27.333 -36 -53 -62.167 -77 -78.5s-47.667 -24.5 -71 -24.5c-20.667 0 -41.167 6.5 -61.5 19.5s-39.666 30.333 -57.999 52s-35.333 46.834 -51 75.501s-29.5 59 -41.5 91l-54.5 -99.5c-17.667 -31 -35.167 -58 -52.5 -81s-34.666 -41.333 -51.999 -55
s-35 -20.5 -53 -20.5c-22 0 -40 8.5 -54 25.5s-21 40.5 -21 70.5c0 22.667 4.33301 46.667 13 72s21.667 48.666 39 69.999s39 39.333 65 54s56 22.667 90 24c5.33301 0 8 -2.66699 8 -8c0 -4 -2.66699 -6 -8 -6c-30.667 -2 -57.834 -10 -81.501 -24s-43.667 -31 -60 -51
s-28.833 -41.5 -37.5 -64.5s-13 -44.833 -13 -65.5c0 -22.667 4.33301 -40.834 13 -54.501s18.667 -20.5 30 -20.5c12 0 25.167 6 39.5 18s28.666 27.167 42.999 45.5s28.5 38.666 42.5 60.999s26.667 43.666 38 63.999l29.5 54.5c8.33301 16 13.833 27 16.5 33
c-4 4.66699 -6.33301 8.33398 -7 11.001l-1 2c-33.333 8.66699 -56.833 19 -70.5 31s-20.5 23.667 -20.5 35c0 9.33301 3.5 17 10.5 23s15.833 9 26.5 9c11.333 0 23.833 -4.5 37.5 -13.5s28.5 -27.167 44.5 -54.5l57 116.5c19.333 38.333 39 73 59 104s40.5 57 61.5 78
s42.833 34.5 65.5 40.5h-6c-41.333 0 -86.166 -6.5 -134.499 -19.5s-95.333 -32.833 -141 -59.5s-88 -60.334 -127 -101.001s-70.167 -88.667 -93.5 -144zM332.005 311.002c-1.33301 1.33301 -2.16797 2.5 -2.50098 3.5s-0.833008 2.16699 -1.5 3.5
c2.66699 -1.33301 5.33398 -2 8.00098 -2zM265.003 368.002c0 -6.66699 4.83203 -14.833 14.499 -24.5s25.834 -18.167 48.501 -25.5c-13.333 20.667 -24.833 35.167 -34.5 43.5s-17.167 12.5 -22.5 12.5c-4 0 -6 -2 -6 -6z" />
    <glyph glyph-name="S" unicode="S" horiz-adv-x="575" 
d="M584 481l8.99902 6c-1.33301 -2 -2.66602 -5 -3.99902 -9zM721.999 650c-6 0 -13.5 -3 -22.5 -9s-19.333 -15.5 -31 -28.5s-24 -29.833 -37 -50.5s-25.833 -45.667 -38.5 -75c50 36 85.333 67.5 106 94.5s31 46.833 31 59.5c0 6 -2.66699 9 -8 9zM551.999 387
c-15.333 -39.333 -33.333 -81.667 -54 -127s-44.334 -87.5 -71.001 -126.5s-56.667 -71.333 -90 -97s-70.333 -38.5 -111 -38.5c-26.667 0 -49.834 4 -69.501 12s-36.167 19 -49.5 33s-23.333 30 -30 48s-10 37 -10 57c0 20.667 3.83301 41 11.5 61s19 38 34 54
s33.667 28.833 56 38.5s48.5 14.5 78.5 14.5c18.667 0 34.834 -3 48.501 -9s25 -14 34 -24s15.667 -21.333 20 -34s6.5 -25.667 6.5 -39c0 -14 -2.33301 -27.667 -7 -41s-11.667 -25.333 -21 -36s-20.833 -19.334 -34.5 -26.001s-29.5 -10 -47.5 -10
c-2.66699 0 -6.83398 0.166992 -12.501 0.5s-11.167 1 -16.5 2s-10.166 2.5 -14.499 4.5s-6.5 4.33301 -6.5 7c0 5.33301 3.33301 8 10 8c14 -4 27 -6 39 -6c15.333 0 29 2.83301 41 8.5s22 13 30 22s14 19.333 18 31s6 23.5 6 35.5c0 11.333 -1.83301 22.5 -5.5 33.5
s-9.5 20.667 -17.5 29s-18 15 -30 20s-26 7.5 -42 7.5c-24 0 -44.667 -4.33301 -62 -13s-31.666 -19.834 -42.999 -33.501s-19.666 -29.334 -24.999 -47.001s-8 -35.5 -8 -53.5s2.5 -35 7.5 -51s12.333 -30.167 22 -42.5s21.667 -22 36 -29s31.166 -10.5 50.499 -10.5
c23.333 0 45.5 6 66.5 18s40.667 28.167 59 48.5s35.5 43.333 51.5 69s30.833 52.334 44.5 80.001s26 55 37 82l29.5 73.5c2.66699 6.66699 5 11.834 7 15.501s4.33301 9.16699 7 16.5c-41.333 -24 -84.333 -44.5 -129 -61.5s-85.667 -25.5 -123 -25.5
c-34 0 -63 4.33301 -87 13s-43.667 20.167 -59 34.5s-26.5 31 -33.5 50s-10.5 39.167 -10.5 60.5c0 26 4.83301 52 14.5 78s23.334 49.5 41.001 70.5s38.5 38 62.5 51s50.333 19.5 79 19.5c2.66699 0 8.33398 -0.5 17.001 -1.5s17.667 -2.5 27 -4.5
s17.666 -4.33301 24.999 -7s11 -6 11 -10c0 -5.33301 -3.66699 -8 -11 -8c-23.333 10.667 -46.333 16 -69 16c-26 0 -50 -6.16699 -72 -18.5s-41.167 -28.166 -57.5 -47.499s-29.166 -41 -38.499 -65s-14 -48 -14 -72c0 -19.333 3.16699 -37.5 9.5 -54.5
s16.5 -32.167 30.5 -45.5s32 -23.833 54 -31.5s48.667 -11.5 80 -11.5c16.667 0 35.667 2.5 57 7.5s43.5 11.833 66.5 20.5s46.5 19 70.5 31s47 25 69 39c31.333 73.333 61.833 129 91.5 167s59.5 57 89.5 57c10 0 18 -2.83301 24 -8.5s9 -13.5 9 -23.5s-4 -22 -12 -36
s-19.333 -29 -34 -45s-32.334 -32.667 -53.001 -50s-43.334 -34.333 -68.001 -51z" />
    <glyph glyph-name="T" unicode="T" horiz-adv-x="426" 
d="M667 800c-1.33301 -2 -2.99512 -3.00195 -4.99512 -3.00195c-6 0 -9 2.66699 -9 8c0 1.33301 1 3 3 5c29.333 34.667 60.166 60 92.499 76s63.166 24 92.499 24c18 0 35 -2.66699 51 -8s29.833 -12.5 41.5 -21.5s20.834 -19.5 27.501 -31.5s10 -25 10 -39
c0 -26 -8.83301 -48.333 -26.5 -67s-39.667 -34 -66 -46s-55.166 -20.667 -86.499 -26s-60.666 -8 -87.999 -8c-23.333 0 -46.5 1 -69.5 3s-44.833 4.66699 -65.5 8c-14 -15.333 -28.333 -35.166 -43 -59.499s-29.167 -51.5 -43.5 -81.5s-28.5 -61.667 -42.5 -95
s-27.333 -66.666 -40 -99.999l-53 -133c-18 -43.333 -36.333 -82.166 -55 -116.499s-38.167 -62 -58.5 -83s-41.833 -31.5 -64.5 -31.5c-25.333 0 -44.333 10.167 -57 30.5s-19 45.5 -19 75.5c0 22 3.83301 45.333 11.5 70s19.167 47.5 34.5 68.5s35 39 59 54
s52 24.5 84 28.5c2.66699 0 4.66699 -1.16699 6 -3.5s2 -4.16602 2 -5.49902c0 -2.66699 -2 -4.66699 -6 -6c-28.667 -4 -54 -13.167 -76 -27.5s-40.333 -31.166 -55 -50.499s-25.667 -40.166 -33 -62.499s-11 -43.5 -11 -63.5c0 -10.667 1.16699 -21.334 3.5 -32.001
s5.66602 -20.167 9.99902 -28.5s9.83301 -15.166 16.5 -20.499s14.334 -8 23.001 -8c16 0 32.333 10 49 30s33.5 46.5 50.5 79.5s34.167 70.5 51.5 112.5l52 129l41.5 103.5c13.667 34.333 27.5 66.166 41.5 95.499s27.833 55.833 41.5 79.5s27.5 42.5 41.5 56.5
c-26 3.33301 -52.333 6.33301 -79 9s-53.334 4 -80.001 4c-43.333 0 -82.166 -5.33301 -116.499 -16s-63.333 -24.667 -87 -42s-41.834 -37.5 -54.501 -60.5s-19 -46.833 -19 -71.5c0 -18.667 3.5 -36.834 10.5 -54.501s16.5 -33.5 28.5 -47.5s26.167 -25.167 42.5 -33.5
s34.166 -12.5 53.499 -12.5c1.33301 0 2.66602 0.166992 3.99902 0.5s2.66602 0.5 3.99902 0.5h6c1.33301 0 3 -0.666992 5 -2s3 -3.33301 3 -6c0 -2 -1.66699 -3.66699 -5 -5s-7.16602 -2.5 -11.499 -3.5s-9 -1.66699 -14 -2s-9.16699 -0.5 -12.5 -0.5
c-20 0 -39.333 4.16699 -58 12.5s-35 20 -49 35s-25.167 32.333 -33.5 52s-12.5 41.167 -12.5 64.5c0 27.333 6.5 53.833 19.5 79.5s33 48.5 60 68.5s61.167 36.167 102.5 48.5s90.666 18.5 147.999 18.5c22 0 44 -1.5 66 -4.5l70 -9.5c29.333 -4.66699 60.333 -9 93 -13
s68 -6 106 -6c23.333 0 48.666 2.33301 75.999 7s52.666 12.167 75.999 22.5s42.833 23.666 58.5 39.999s23.5 36.166 23.5 59.499c0 12 -3 23 -9 33s-14 18.833 -24 26.5s-21.833 13.667 -35.5 18s-28.5 6.5 -44.5 6.5c-27.333 0 -56.333 -7.16699 -87 -21.5
s-60 -38.833 -88 -73.5z" />
    <glyph glyph-name="U" unicode="U" horiz-adv-x="612" 
d="M612 -52c1.33301 1.33301 3.33398 1.99902 6.00098 1.99902s4.83398 -1 6.50098 -3s1.83398 -4.33301 0.500977 -7c-25.333 -28.667 -51.833 -50.334 -79.5 -65.001s-53.167 -22 -76.5 -22c-24 0 -43.667 7.33301 -59 22s-23 37 -23 67c0 23.333 6 50.5 18 81.5
s27 66.5 45 106.5c-26 -34.667 -53 -65 -81 -91s-55.5 -47.833 -82.5 -65.5s-52.833 -30.834 -77.5 -39.501s-46.334 -13 -65.001 -13c-23.333 0 -41.833 6.16699 -55.5 18.5s-20.5 30.833 -20.5 55.5c0 12.667 1.83301 25.834 5.5 39.501s9.16699 28.667 16.5 45
s16.666 34.666 27.999 54.999l40 71.5l49 86l44.5 82c15 28 28.167 54.5 39.5 79.5s20.666 48 27.999 69s11 38.167 11 51.5c0 16 -5.16699 27.5 -15.5 34.5s-22.833 10.5 -37.5 10.5c-23.333 0 -48 -6.16699 -74 -18.5s-50 -28.666 -72 -48.999s-40.167 -44 -54.5 -71
s-21.5 -55.167 -21.5 -84.5c0 -30 8.83301 -55 26.5 -75s46.5 -30 86.5 -30c1.33301 0 2.83301 -0.666992 4.5 -2s2.5 -2.66602 2.5 -3.99902c0 -4.66699 -1 -7.5 -3 -8.5s-5 -1.5 -9 -1.5c-42 0 -73.167 11.667 -93.5 35s-30.5 52 -30.5 86c0 25.333 6 52.333 18 81
s29.167 55.167 51.5 79.5s49.833 44.5 82.5 60.5s70 24 112 24c23.333 0 40.166 -5.16699 50.499 -15.5s15.5 -24.833 15.5 -43.5c0 -18 -4.16699 -39.5 -12.5 -64.5s-19.333 -52 -33 -81s-29 -59.167 -46 -90.5l-51.5 -94l-44.5 -80c-14.333 -26 -27 -50.333 -38 -73
s-19.833 -43.167 -26.5 -61.5s-10 -33.5 -10 -45.5c0 -16 4.33301 -28.833 13 -38.5s21.334 -14.5 38.001 -14.5c22 0 48 7.66699 78 23s61 36.833 93 64.5s63.5 60.834 94.5 99.501s58.833 81.334 83.5 128.001l181 370c0.666992 1.33301 2.83398 2.66602 6.50098 3.99902
s7.5 2 11.5 2c9.33301 0 15.666 -2.66699 18.999 -8c0.666992 -0.666992 1 -1.66699 1 -3l-40 -85l-46 -93l-49 -100l-50 -103.5l-47 -100l-40 -90.5c-6 -13.333 -12 -29.5 -18 -48.5s-9 -37.167 -9 -54.5c0 -15.333 4.16699 -29.333 12.5 -42s23.166 -19 44.499 -19
c12 0 24.167 2.16699 36.5 6.5s24.333 9.66602 36 15.999s22.334 13.333 32.001 21s17.5 14.834 23.5 21.501z" />
    <glyph glyph-name="V" unicode="V" horiz-adv-x="592" 
d="M260 525c0 4.66699 2.66602 6.99414 7.99902 6.99414c4.66699 0 7 -2.33301 7 -7c-0.666992 -24 -5.33398 -45.167 -14.001 -63.5s-19.667 -33.666 -33 -45.999s-28.166 -21.666 -44.499 -27.999s-32.166 -9.5 -47.499 -9.5c-12.667 0 -24.667 1.83301 -36 5.5
s-21.333 9.33398 -30 17.001s-15.667 17.334 -21 29.001s-8 25.167 -8 40.5c0 42.667 17.333 76 52 100s82 36 142 36c22.667 0 45.834 -1 69.501 -3s45.834 -4.33301 66.501 -7c9.33301 -1.33301 18.166 -2.5 26.499 -3.5s16.166 -1.83301 23.499 -2.5
c15.333 24 31.5 40.833 48.5 50.5s32.167 14.5 45.5 14.5c10.667 0 19.334 -2.83301 26.001 -8.5s10 -12.5 10 -20.5s-3 -15.333 -9 -22s-13.833 -12.334 -23.5 -17.001s-20.334 -8.5 -32.001 -11.5s-23.167 -4.83301 -34.5 -5.5c-12 -20.667 -23.167 -44.834 -33.5 -72.501
s-20.333 -57.167 -30 -88.5s-18.667 -63.333 -27 -96l-24.5 -95c-10.667 -45.333 -21.334 -88.166 -32.001 -128.499s-21.334 -71.166 -32.001 -92.499c26.667 10.667 52 28.167 76 52.5s47.167 52.333 69.5 84s43.5 65.834 63.5 102.501l58 110l64.5 120.5
c21.667 39.667 44.334 75 68.001 106s48.334 56.167 74.001 75.5s53.167 29 82.5 29c2 0 7.16699 -0.5 15.5 -1.5s17 -2.66699 26 -5s17 -5 24 -8s10.5 -6.5 10.5 -10.5c0 -1.33301 -1 -3.16602 -3 -5.49902s-4.66699 -2.83301 -8 -1.5
c-16.667 8.66699 -33.334 13 -50.001 13c-27.333 0 -53.166 -9.66699 -77.499 -29s-46.833 -43.333 -67.5 -72s-39.5 -59 -56.5 -91s-31.5 -60.667 -43.5 -86l-18 -36l-71.5 -136c-24.333 -44.667 -50.166 -84.5 -77.499 -119.5s-57 -63.333 -89 -85
s-67.333 -32.5 -106 -32.5c-12 0 -18 3 -18 9c0 2 0.333008 3.33301 1 4c0 0.666992 0.333008 1 1 1c6 6 12.167 16.5 18.5 31.5s12.833 33 19.5 54s13.167 44.167 19.5 69.5s12.5 51.333 18.5 78l23.5 95c8.33301 32.667 17.333 64.5 27 95.5s19.667 60.5 30 88.5
s21.5 52.667 33.5 74l-30.5 4l-32.5 4c-18.667 2.66699 -37.334 5 -56.001 7s-37.334 3 -56.001 3c-26 0 -48.833 -3.5 -68.5 -10.5s-36 -16 -49 -27s-22.667 -23.333 -29 -37s-9.5 -27.167 -9.5 -40.5c0 -21.333 6.83301 -39.833 20.5 -55.5s30.834 -23.5 51.501 -23.5
c9.33301 0 20.166 2.66699 32.499 8s24 13.333 35 24s20.333 24.167 28 40.5s11.834 35.5 12.501 57.5zM455.999 586.994h6l-3 -5zM522.999 637.994c-7.33301 0 -16.001 -3.66797 -26.001 -11.001s-21.667 -20.666 -35 -39.999c26.667 2 45.334 7.33301 56.001 16
s16 16.667 16 24s-3.66699 11 -11 11z" />
    <glyph glyph-name="W" unicode="W" horiz-adv-x="699" 
d="M69 14c6 2.66699 12.8311 11.1807 20.498 25.5137s15.667 32.166 24 53.499s16.833 45.166 25.5 71.499l26 79.5l28.5 92.5c10.333 32.333 21 64 32 95s22.5 60 34.5 87s24 49.833 36 68.5l-59 10l-67.5 11.5c-22.333 3.66699 -44.166 5.5 -65.499 5.5
c-22 0 -41.667 -3.16699 -59 -9.5s-32 -14.833 -44 -25.5s-21.333 -23 -28 -37s-10 -28.333 -10 -43c0 -10 1.83301 -19.333 5.5 -28s8.66699 -16.334 15 -23.001s13.833 -12 22.5 -16s17.667 -6 27 -6c12.667 0 25.167 3.33301 37.5 10s23.666 15.667 33.999 27
s19 24.5 26 39.5s11.5 30.5 13.5 46.5c1.33301 4.66699 4 7 8 7c5.33301 0 8 -2.66699 8 -8c-2 -23.333 -7.66699 -43.666 -17 -60.999s-20.666 -31.666 -33.999 -42.999s-27.833 -20 -43.5 -26s-31.167 -9 -46.5 -9c-25.333 0 -47.5 7.66699 -66.5 23s-28.5 38 -28.5 68
c0 39.333 15.5 71.166 46.5 95.499s73.167 36.5 126.5 36.5c29.333 0 59 -2.33301 89 -7s58 -9.33398 84 -14.001l40 -7c16.667 21.333 33 36.5 49 45.5s30 13.5 42 13.5c11.333 0 20.5 -2.83301 27.5 -8.5s10.5 -12.5 10.5 -20.5c0 -9.33301 -5.5 -18.833 -16.5 -28.5
s-29.167 -16.834 -54.5 -21.501l-31 -1c-12.667 -19.333 -25 -42.5 -37 -69.5s-23.5 -55.667 -34.5 -86s-21.667 -61.5 -32 -93.5l-29.5 -93l-36 -115c-12 -37.333 -23.333 -66.333 -34 -87c18 13.333 36.333 31.166 55 53.499s37.667 47.5 57 75.5s38.666 58 57.999 90
l58 96l64.5 106.5c21 34.333 41.5 65.166 61.5 92.499s39.167 49.666 57.5 66.999s36.166 27 53.499 29h-1c2 0 4 0.333008 6 1c1.33301 0 3 0.166992 5 0.5s4.33301 0.5 7 0.5c3.33301 0 6.66602 -0.666992 9.99902 -2s5 -3.33301 5 -6c0 -1.33301 -1.66699 -4.33301 -5 -9
c-19.333 -7.33301 -36.333 -20.833 -51 -40.5s-27.834 -43.334 -39.501 -71.001s-22.5 -58.334 -32.5 -92.001s-19.667 -67.834 -29 -102.501l-24.5 -86c-8.33301 -28.667 -17.333 -56 -27 -82s-20.167 -50 -31.5 -72s-24 -40.333 -38 -55c24.667 10 49 26.333 73 49
s47.5 49 70.5 79s45.333 62.167 67 96.5l61.5 100.5l68 112c23.333 36.667 47.333 69.667 72 99s50 53 76 71s53 27 81 27c2.66699 0 8.33398 -0.666992 17.001 -2s17.834 -3.16602 27.501 -5.49902s18.334 -5.33301 26.001 -9s11.5 -7.83398 11.5 -12.501
c0 -1.33301 -0.666992 -3 -2 -5s-3.33301 -3 -6 -3c-2 0 -3.33301 0.333008 -4 1c-19.333 10.667 -38.666 16 -57.999 16c-23.333 0 -46.166 -8.33301 -68.499 -25s-44.5 -38.5 -66.5 -65.5s-43.833 -57.833 -65.5 -92.5l-65.5 -107l-72.5 -120
c-25 -40 -51.167 -76.5 -78.5 -109.5s-56.166 -60.833 -86.499 -83.5s-62.166 -36 -95.499 -40h1c-5.33301 -1.33301 -15 -2 -29 -2c-7.33301 0 -13.166 0.5 -17.499 1.5s-6.5 3.16699 -6.5 6.5c0 1.33301 0.5 2.66602 1.5 3.99902s2.16699 2.66602 3.5 3.99902
c18 10 34.167 26.5 48.5 49.5s27.5 49.667 39.5 80s23 62.833 33 97.5l29 103l9 34l7.5 28c2.33301 8.66699 4.83301 17.167 7.5 25.5l9 27.5l-59 -97l-76 -127c-26.667 -43.333 -53.834 -82.833 -81.501 -118.5s-55.334 -64.834 -83.001 -87.501s-54.834 -34 -81.501 -34
c-8 0 -14.833 0.5 -20.5 1.5s-8.5 3.16699 -8.5 6.5c0 1.33301 2.66699 3.66602 8 6.99902zM343.998 600.014c0.666992 0 1.16797 -0.166992 1.50098 -0.5s1.16602 -0.5 2.49902 -0.5l-2 -4zM408.999 645.014c-4.66699 0 -9.83496 -1.5 -15.502 -4.5
s-11.167 -6.83301 -16.5 -11.5s-10.666 -9.66699 -15.999 -15s-9.66602 -10.333 -12.999 -15h5c17.333 0 33.333 3.5 48 10.5s22 14.833 22 23.5c0 4 -1.5 7 -4.5 9s-6.16699 3 -9.5 3z" />
    <glyph glyph-name="X" unicode="X" horiz-adv-x="818" 
d="M811 167c2 2 3.66797 3.00586 5.00098 3.00586c5.33301 0 8 -2.66699 8 -8c0 -2 -0.666992 -3.66699 -2 -5l-22 -31c-10 -14.667 -20.667 -29 -32 -43s-23.5 -26.667 -36.5 -38s-26.833 -20.5 -41.5 -27.5s-30.667 -10.5 -48 -10.5c-27.333 0 -49 12.167 -65 36.5
s-24 59.166 -24 104.499c0 9.33301 0.333008 19 1 29s1.66699 20.333 3 31c-21.333 -30 -45 -57.833 -71 -83.5s-54.5 -48 -85.5 -67s-64 -33.833 -99 -44.5s-72.167 -16 -111.5 -16c-19.333 0 -39 2.5 -59 7.5s-38 13 -54 24s-29.167 24.667 -39.5 41
s-15.5 36.166 -15.5 59.499c0 4.66699 2.66699 7 8 7c3.33301 0 6 -1.66699 8 -5c5.33301 -40 21.333 -69.5 48 -88.5s59 -28.5 97 -28.5c41.333 0 82.666 9.33301 123.999 28s80.333 43.834 117 75.501s69.834 68.5 99.501 110.5s54.167 86 73.5 132
c11.333 30.667 20 59.5 26 86.5s9 50.5 9 70.5c0 45.333 -11 78.5 -33 99.5s-48.333 31.5 -79 31.5c-25.333 0 -52.333 -6.66699 -81 -20s-55.167 -32.5 -79.5 -57.5s-44.5 -55 -60.5 -90s-24 -74.5 -24 -118.5c0 -18 2 -35.167 6 -51.5s10.167 -30.833 18.5 -43.5
s18.833 -22.667 31.5 -30s27.667 -11 45 -11c13.333 0 32 3.66699 56 11c5.33301 0 8 -2.33301 8 -7c0 -4 -3.66699 -7.33301 -11 -10s-15.5 -5 -24.5 -7s-17.667 -3.33301 -26 -4s-13.833 -1 -16.5 -1c-21.333 0 -40 4.16699 -56 12.5s-29.333 19.666 -40 33.999
s-18.5 31 -23.5 50s-7.5 39.5 -7.5 61.5c0 34 6.16699 69.167 18.5 105.5s30.5 69.5 54.5 99.5s53.5 54.667 88.5 74s75.5 29 121.5 29c19.333 0 38.333 -2.83301 57 -8.5s35.167 -14.834 49.5 -27.501s26 -29 35 -49s13.5 -44.333 13.5 -73
c0 -6 -0.166992 -12.667 -0.5 -20s-1.16602 -14.333 -2.49902 -21c14 19.333 31.5 40 52.5 62s44.167 42.167 69.5 60.5s52.166 33.666 80.499 45.999s56.833 18.5 85.5 18.5c14.667 0 28.667 -1.5 42 -4.5s25.166 -8 35.499 -15s18.5 -16.167 24.5 -27.5s9 -25 9 -41
c0 -19.333 -4.66699 -37.666 -14 -54.999s-21.5 -33.5 -36.5 -48.5s-32.5 -28.5 -52.5 -40.5s-40.5 -22.167 -61.5 -30.5s-42.167 -14.833 -63.5 -19.5s-41 -7 -59 -7c-5.33301 0 -10.833 0.5 -16.5 1.5s-8.5 4.16699 -8.5 9.5c1.33301 4 4.33301 6 9 6
c3.33301 -0.666992 6.66602 -1.16699 9.99902 -1.5s6.66602 -0.5 9.99902 -0.5c11.333 0 26 1.83301 44 5.5s36.833 9 56.5 16s39.334 16 59.001 27s37.5 23.5 53.5 37.5s29 29.667 39 47s15 36.333 15 57c0 21.333 -6.83301 36.333 -20.5 45s-30.834 13 -51.501 13
c-40.667 0 -78.667 -8.5 -114 -25.5s-67.333 -39.333 -96 -67s-54.167 -59.334 -76.5 -95.001s-41.166 -72.167 -56.499 -109.5s-27 -73.833 -35 -109.5s-12 -67.5 -12 -95.5c0 -33.333 5 -59.666 15 -78.999s25.667 -29 47 -29c12.667 0 25.5 3.83301 38.5 11.5
s25.5 17.167 37.5 28.5s23.333 23.666 34 36.999s20.334 26 29.001 38c3.33301 5.33301 6.5 10.166 9.5 14.499s6.16699 8.16602 9.5 11.499z" />
    <glyph glyph-name="Y" unicode="Y" horiz-adv-x="558" 
d="M190 386c2.66699 0 4.32715 -0.667969 4.99414 -2.00098s1.66699 -2.66602 3 -3.99902c0 -6 -2.16699 -9.16699 -6.5 -9.5s-9.5 -0.5 -15.5 -0.5c-51.333 0 -88.333 11.167 -111 33.5s-34 50.166 -34 83.499c0 27.333 7.16699 56 21.5 86s33.833 57.5 58.5 82.5
s53.834 45.667 87.501 62s70.167 24.5 109.5 24.5c19.333 0 36 -4.5 50 -13.5s21 -25.833 21 -50.5c0 -18 -4 -39.667 -12 -65s-18.333 -52.5 -31 -81.5s-27 -59.167 -43 -90.5l-48 -93l-38.5 -74c-12.333 -24 -23.166 -46.333 -32.499 -67s-16.833 -39.167 -22.5 -55.5
s-8.5 -29.5 -8.5 -39.5c0 -12 4.16699 -21.333 12.5 -28s19.166 -10 32.499 -10s29.833 3.66699 49.5 11s40.667 17 63 29s45 25.833 68 41.5s44.5 31.834 64.5 48.501l7 14c3.33301 6.66699 7 15.334 11 26.001c6.66699 16 14.834 34.5 24.501 55.5s20 40.833 31 59.5
s22.167 34.334 33.5 47.001s22 19 32 19c7.33301 0 12.666 -2.5 15.999 -7.5s5 -10.833 5 -17.5c0 -11.333 -3.5 -24.166 -10.5 -38.499s-15.833 -29.166 -26.5 -44.499s-22.334 -30.333 -35.001 -45s-25 -28 -37 -40l-90 -210c34 -13.333 63 -32.5 87 -57.5
s38.667 -53.833 44 -86.5c0 -4.66699 -2 -7.66699 -6 -9c-4.66699 0 -8 3 -10 9l-7 20c-3.33301 10 -6.66602 18.667 -9.99902 26v-1c-22.667 38 -57.334 66 -104.001 84l-44.5 -92.5c-15.667 -31.667 -33 -60.5 -52 -86.5s-40.167 -47.167 -63.5 -63.5
s-49.666 -24.5 -78.999 -24.5c-25.333 0 -45.833 8.66699 -61.5 26s-23.5 40 -23.5 68c0 32.667 6.83301 61.834 20.5 87.501s31.334 47.334 53.001 65.001s45.834 31.167 72.501 40.5s52.667 14 78 14c22 0 45.333 -2.66699 70 -8l62 142
c-17.333 -13.333 -36.666 -27 -57.999 -41s-43.5 -26.833 -66.5 -38.5s-45.667 -21.167 -68 -28.5s-43.166 -11 -62.499 -11c-22.667 0 -38.667 5.33301 -48 16s-14 24.334 -14 41.001c0 23.333 6.66699 49 20 77c9.33301 20.667 20.5 44.167 33.5 70.5
s27.167 53.5 42.5 81.5l49 96.5c16.667 33 31.667 64.5 45 94.5s24.166 57.5 32.499 82.5s12.5 45.5 12.5 61.5c0 17.333 -4.16699 28.833 -12.5 34.5s-18.166 8.5 -29.499 8.5c-23.333 0 -45.833 -4.83301 -67.5 -14.5s-41.5 -21.834 -59.5 -36.501
s-33.833 -30.834 -47.5 -48.501s-24.167 -34.834 -31.5 -51.501c-5.33301 -12.667 -9.5 -25.834 -12.5 -39.501s-4.5 -26.167 -4.5 -37.5c0 -14.667 2 -28.334 6 -41.001s10.333 -23.834 19 -33.501s19.834 -17.334 33.501 -23.001s30.167 -8.5 49.5 -8.5h9z
M203.993 -218.001c14.667 10.667 28.999 25 42.999 43s27.167 37.833 39.5 59.5s24 44 35 67l30.5 66.5c-11.333 2.66699 -22.5 4.5 -33.5 5.5s-21.167 1.5 -30.5 1.5c-34.667 0 -65 -6.16699 -91 -18.5s-47.5 -28 -64.5 -47s-29.833 -39.667 -38.5 -62s-13 -43.5 -13 -63.5
c0 -25.333 6 -43.833 18 -55.5s26.333 -17.5 43 -17.5c10.667 0 21.334 2 32.001 6s20.667 9 30 15zM580.992 404.999c-1.33301 -1.33301 -2.33203 -2.16797 -2.99902 -2.50098s-1.33398 -1.16602 -2.00098 -2.49902v3v4zM490.993 259.997l13 15l-8 -18zM575.993 399.997
c-10 -10.667 -21 -26.833 -33 -48.5s-25 -47.167 -39 -76.5c7.33301 8.66699 15.166 18.5 23.499 29.5s16 22.167 23 33.5s12.833 22.5 17.5 33.5s7.33398 20.5 8.00098 28.5z" />
    <glyph glyph-name="Z" unicode="Z" horiz-adv-x="557" 
d="M586 -99c-19.333 0 -37.0049 1.66504 -53.0049 4.99805s-31.333 8 -46 14s-29.167 13.167 -43.5 21.5s-29.833 17.833 -46.5 28.5c-26.667 16.667 -51.667 30.5 -75 41.5s-46 16.5 -68 16.5c-17.333 0 -35.333 -3.66699 -54 -11s-39.334 -19.666 -62.001 -36.999l-8 1
c-2 0 -3 1 -3 3v7c10.667 14.667 21.834 31.667 33.501 51l36 60.5l37 64l36.5 62.5c2 3.33301 4.33301 7 7 11s4.66699 7.66699 6 11c-14.667 6 -28.334 10.167 -41.001 12.5s-24 3.5 -34 3.5c-21.333 0 -39.166 -3.66699 -53.499 -11s-26.166 -13.666 -35.499 -18.999
c-3.33301 -2.66699 -6.33301 -4.83398 -9 -6.50098s-5.66699 -2.5 -9 -2.5c-4.66699 0 -7 2.33301 -7 7c0 2.66699 1 5 3 7c21.333 15.333 41.333 26.166 60 32.499s36.667 9.5 54 9.5c14 0 27.5 -1.66699 40.5 -5s26.167 -7.66602 39.5 -12.999l93 160.5
c30 50.333 59.667 94.166 89 131.499c-24 2.66699 -49.667 7.33398 -77 14.001c-24.667 4.66699 -49.667 9 -75 13s-49.666 6 -72.999 6c-26 0 -48.833 -3.83301 -68.5 -11.5s-36 -17.667 -49 -30s-22.833 -26.333 -29.5 -42s-10 -31.834 -10 -48.501
c0 -22.667 6.5 -41.834 19.5 -57.501s33.5 -23.5 61.5 -23.5c14 0 28.167 3.66699 42.5 11s27.166 17.333 38.499 30s21.166 27.5 29.499 44.5s13.5 34.833 15.5 53.5c1.33301 4.66699 4 7 8 7c5.33301 0 8 -2.66699 8 -8c-2 -22.667 -7.5 -43.5 -16.5 -62.5
s-20.5 -35.5 -34.5 -49.5s-30 -24.833 -48 -32.5s-37.333 -11.5 -58 -11.5c-17.333 0 -32.666 2.83301 -45.999 8.5s-24.5 13.167 -33.5 22.5s-15.833 20.166 -20.5 32.499s-7 25.166 -7 38.499c0 18.667 3.83301 36.834 11.5 54.501s19.5 33.334 35.5 47.001
s36 24.667 60 33s52 12.5 84 12.5c30.667 0 62.167 -2.33301 94.5 -7s62.833 -9.66699 91.5 -15c10.667 -1.33301 20.834 -3.16602 30.501 -5.49902s19.834 -4.16602 30.501 -5.49902c21.333 25.333 41 43 59 53s33 15 45 15c11.333 0 20 -2.66699 26 -8
s9 -12.666 9 -21.999c0 -6 -2 -12.5 -6 -19.5s-10.333 -13.5 -19 -19.5s-19.667 -10.833 -33 -14.5s-29.333 -5.5 -48 -5.5h-7c-14 -17.333 -28.667 -37.5 -44 -60.5l-47.5 -74.5l-49.5 -83l-49 -86c16 -8 32 -15 48 -21s32.667 -9 50 -9c24 0 50.333 9.33301 79 28
c1.33301 1.33301 3 2 5 2c2.66699 0 4.66699 -1 6 -3s2 -3.66699 2 -5c0 -2 -1 -4 -3 -6c-16.667 -12 -32 -20.5 -46 -25.5s-28 -7.5 -42 -7.5c-19.333 0 -37.333 3.33301 -54 10s-33.667 14.334 -51 23.001l-119 -203c19.333 6.66699 38.333 10 57 10h24
c28 0 54 -6.16699 78 -18.5s48 -26.166 72 -41.499l34.5 -20.5c13 -7.66699 26.5 -14.834 40.5 -21.501s28.333 -12.334 43 -17.001s28.334 -7 41.001 -7c4 -2.66699 6 -5.66699 6 -9c0 -1.33301 -0.666992 -3 -2 -5s-3.66602 -3 -6.99902 -3zM522.995 571.998
c0.666992 -0.666992 2 -1 4 -1l-3 -4zM600.995 624.998c-7.33301 0 -17.166 -3.99902 -29.499 -11.999s-27.166 -22 -44.499 -42c1.33301 -0.666992 2.66602 -0.833984 3.99902 -0.500977s2.66602 0.5 3.99902 0.5c26 0 45.333 5.33301 58 16s19 20 19 28
c0 6.66699 -3.66699 10 -11 10z" />
    <glyph glyph-name="bracketleft" unicode="[" horiz-adv-x="274" 
d="M212 365c11.333 -6.66699 23.333 -10.001 36 -10.001c3.33301 0 6.33301 0.333008 9 1c5.33301 1.33301 9.66602 2 12.999 2c1.33301 0 2.83301 -1 4.5 -3s2.5 -3.66699 2.5 -5c0 -4 -4 -6.83301 -12 -8.5s-14 -2.5 -18 -2.5c-6.66699 0 -11.667 0.333008 -15 1
l-53 -106.5l-50 -107.5l-24 -53.5c-8 -17.667 -16.667 -35.5 -26 -53.5c1.33301 0 2.83301 -0.333008 4.5 -1s3.16699 -1 4.5 -1c2.66699 -0.666992 5.16699 -1.16699 7.5 -1.5s5.16602 -0.5 8.49902 -0.5c1.33301 0 2.33301 0.166992 3 0.5s1.66699 0.5 3 0.5
c1.33301 0.666992 4.33301 1 9 1c2.66699 0 4.5 -1 5.5 -3s1.5 -3.66699 1.5 -5c0 -5.33301 -2.66699 -8.33301 -8 -9s-9.66602 -1 -12.999 -1c-4 0 -7.83301 0.166992 -11.5 0.5s-7.16699 0.833008 -10.5 1.5s-7 1.33398 -11 2.00098s-7.66699 1 -11 1s-6 -0.333008 -8 -1
c-4 -1.33301 -8 -2 -12 -2c-1.33301 0 -3 0.5 -5 1.5s-3 2.83301 -3 5.5v1c0 1.33301 0.333008 2.33301 1 3l55 118l54.5 116l56.5 115c2.66699 2.66699 5.33398 4 8.00098 4h4z" />
    <glyph glyph-name="backslash" unicode="\" horiz-adv-x="188" 
d="M16 357c-0.666992 0.666992 -1 2.00098 -1 4.00098c0 8 4.33301 12 13 12c4.66699 0 8.66699 -2.66699 12 -8l124 -349c0 -0.666992 0.166992 -1.33398 0.5 -2.00098s0.5 -1.66699 0.5 -3c0 -4 -1.5 -7 -4.5 -9s-6.16699 -3 -9.5 -3c-2 0 -4 0.5 -6 1.5
s-3.66699 3.16699 -5 6.5z" />
    <glyph glyph-name="bracketright" unicode="]" horiz-adv-x="272" 
d="M63 -7c-1.33301 0 -2.66699 0.666992 -4 2c-6 2.66699 -12 4.83398 -18 6.50098s-11.667 2.5 -17 2.5c-4 0 -7.33301 -0.333008 -10 -1c-5.33301 -1.33301 -9.66602 -2 -12.999 -2c-4 0 -6 2.33301 -6 7s3.66699 7.83398 11 9.50098s13.666 2.5 18.999 2.5
c2.66699 0 5 -0.166992 7 -0.5s4.66699 -0.833008 8 -1.5l59 120.5l57 122.5l37 79c-2 0 -4.33301 0.666992 -7 2c-3.33301 0.666992 -6.33301 1.16699 -9 1.5s-5.66699 0.5 -9 0.5c-1.33301 0 -2.5 -0.166992 -3.5 -0.5s-2.16699 -0.5 -3.5 -0.5
c-2 -0.666992 -4.66699 -1 -8 -1c-5.33301 0 -8 2.66699 -8 8c0 3.33301 3 5.66602 9 6.99902s10.667 2 14 2s7 -0.333008 11 -1s7.66699 -1.33398 11 -2.00098s6.83301 -1.16699 10.5 -1.5s7.5 -0.5 11.5 -0.5c3.33301 0 6 0.333008 8 1c4 1.33301 7.66699 2 11 2
c4.66699 0 6.66699 -3.33301 6 -10l-36 -78l-63.5 -136.5l-65.5 -134.5l-3.5 -3.5c-1 -1 -2.83301 -1.5 -5.5 -1.5z" />
    <glyph glyph-name="asciicircum" unicode="^" horiz-adv-x="191" 
d="M66 113c-1.33301 -3.33301 -3.00098 -5.50098 -5.00098 -6.50098s-4 -1.5 -6 -1.5c-4 0 -8 1.66699 -12 5s-6 6.66602 -6 9.99902l1 3c1.33301 2.66699 2.83301 5.83398 4.5 9.50098s3.16699 7.83398 4.5 12.501l11.5 29.5c4.33301 11 8.66602 21.333 12.999 31
s8.5 17.667 12.5 24s7.66699 9.5 11 9.5c4.66699 0 8.66699 -2.33301 12 -7l47 -111c0 -3.33301 -2.16699 -7 -6.5 -11s-8.5 -6 -12.5 -6c-1.33301 0 -3.16602 1 -5.49902 3s-4.16602 4 -5.49902 6l-28 77z" />
    <glyph glyph-name="underscore" unicode="_" horiz-adv-x="340" 
d="M28 -19c-8.66699 0 -13 4.33301 -13 13c0 3.33301 1 6.33301 3 9s5.33301 4 10 4h236c4 0 7.16699 -1.33301 9.5 -4s3.5 -5.66699 3.5 -9c0 -8.66699 -4.33301 -13 -13 -13h-236z" />
    <glyph glyph-name="grave" unicode="`" horiz-adv-x="192" 
d="M52 290c-1.33301 1.33301 -1.16602 3.16895 0.500977 5.50195s4.16699 3.5 7.5 3.5c20 0 36.833 -4.33301 50.5 -13s20.5 -23.334 20.5 -44.001c0 -5.33301 -2.66699 -8 -8 -8c-1.33301 0 -3.33301 1.33301 -6 4l-8.5 5.5
c-3.66699 2.33301 -7.83398 4.16602 -12.501 5.49902c-4.66699 0.666992 -9.5 1.66699 -14.5 3s-9.5 3.5 -13.5 6.5s-7.5 7 -10.5 12s-4.83301 11.833 -5.5 20.5v-1z" />
    <glyph glyph-name="a" unicode="a" horiz-adv-x="281" 
d="M276 166c2 2 3.66797 3.00098 5.00098 3.00098s3 -1.16699 5 -3.5s2.66699 -5.16602 2 -8.49902l-14 -17c-8.66699 -10.667 -20.5 -24.334 -35.5 -41.001s-30.833 -32.834 -47.5 -48.501s-33 -29.167 -49 -40.5s-29 -17 -39 -17c-6 0 -11 2.66699 -15 8
s-6 12.666 -6 21.999c0 4.66699 0.333008 8.33398 1 11.001c-18 -12.667 -34.833 -22.667 -50.5 -30s-28.5 -11 -38.5 -11c-14.667 0 -25.334 5 -32.001 15s-10 22.667 -10 38c0 16.667 3.5 35 10.5 55s16.667 38.667 29 56s27.166 31.833 44.499 43.5s36.333 17.5 57 17.5
c18.667 0 37.334 -5.33301 56.001 -16c1.33301 2 2.5 4 3.5 6s1.83301 4 2.5 6c0.666992 1.33301 3.16699 2.66602 7.5 3.99902s8.83301 2 13.5 2s8.66699 -0.5 12 -1.5s5 -3.83301 5 -8.5c0 -1.33301 -0.666992 -3.33301 -2 -6l-21 -41c-8 -16 -15.667 -32.5 -23 -49.5
s-13.5 -33.5 -18.5 -49.5s-7.5 -29.667 -7.5 -41c0 -4 0.666992 -6 2 -6c6 0 15.333 5.33301 28 16s26.5 23.834 41.5 39.501l45.5 49c15.333 17 28 31.833 38 44.5zM16.001 18.001c7.33301 0 16.833 3.16797 28.5 9.50098s26.167 16.833 43.5 31.5
c4.66699 14.667 11.167 32.5 19.5 53.5s19.5 45.167 33.5 72.5c-12 5.33301 -23 8 -33 8c-16 0 -31 -5 -45 -15s-26.167 -22.5 -36.5 -37.5s-18.333 -30.833 -24 -47.5s-8.5 -31.334 -8.5 -44.001c0 -8.66699 1.66699 -16 5 -22s9 -9 17 -9z" />
    <glyph glyph-name="b" unicode="b" 
d="M259 565l12 3.50098c3.33301 1 7 1.5 11 1.5c14 0 24.667 -5 32 -15s11 -22.667 11 -38c0 -14.667 -3.5 -31 -10.5 -49s-17.333 -36.333 -31 -55s-31 -36.5 -52 -53.5s-45.5 -31.833 -73.5 -44.5c-8.66699 -3.33301 -17.667 -6.5 -27 -9.5s-18.666 -4.83301 -27.999 -5.5
l-45 -96c13.333 5.33301 25.5 9.16602 36.5 11.499s21.5 3.5 31.5 3.5c22.667 0 39.167 -6.16699 49.5 -18.5s15.5 -28.166 15.5 -47.499c0 -9.33301 -1.33301 -20 -4 -32s-6.33398 -23 -11.001 -33c23.333 6 46.5 15.167 69.5 27.5s42.5 29.166 58.5 50.499c2 2 4 3 6 3
c1.33301 0 3 -0.666992 5 -2s3 -3.33301 3 -6c0 -2 -0.666992 -3.66699 -2 -5c-20.667 -24.667 -44.5 -44 -71.5 -58s-53.833 -24 -80.5 -30c-14 -20 -32.5 -37.5 -55.5 -52.5s-49.5 -22.5 -79.5 -22.5c-22.667 0 -34 8.33301 -34 25c0 8.66699 2.83301 16.167 8.5 22.5
s13.334 11.5 23.001 15.5s21 7.33301 34 10s26.833 5 41.5 7l23 4c7.33301 10.667 13.666 22.834 18.999 36.501s8 27.167 8 40.5c0 17.333 -4.16699 29.5 -12.5 36.5s-17.5 10.5 -27.5 10.5c-9.33301 0 -19.333 -2 -30 -6s-19.334 -7.66699 -26.001 -11
c-1.33301 -0.666992 -2.83301 -1.33398 -4.5 -2.00098s-2.83398 -1 -3.50098 -1l-43 -91l-44 -91c-2.66699 -4.66699 -10 -7 -22 -7c-4.66699 0 -9 0.833008 -13 2.5s-5.33301 5.16699 -4 10.5l142 300c12.667 26.667 26.334 54 41.001 82s30.334 54.167 47.001 78.5
s34 45.5 52 63.5s36.333 30 55 36zM62 22.001c19.333 8.66699 35.667 21.002 49 37.002c-12 -2 -24 -4.16699 -36 -6.5s-22.667 -5 -32 -8s-16.833 -6.33301 -22.5 -10s-8.5 -7.83398 -8.5 -12.501c0 -6 5 -9 15 -9c4 0 9 0.666992 15 2s12.667 3.66602 20 6.99902z
M251.001 526.003c-14 -12 -27.834 -26.502 -41.501 -43.502s-26.5 -35.167 -38.5 -54.5s-23.167 -38.666 -33.5 -57.999l-27.5 -53c29.333 5.33301 56.166 15.833 80.499 31.5s45.333 33.334 63 53.001s31.334 39.667 41.001 60s14.5 37.5 14.5 51.5c0 20 -7 30 -21 30
c-11.333 0 -23.666 -5.66699 -36.999 -17z" />
    <glyph glyph-name="c" unicode="c" horiz-adv-x="217" 
d="M212 165c1.33301 2.66699 3.66211 4.00293 6.99512 4.00293c1.33301 0 3 -0.833008 5 -2.5s3 -3.16699 3 -4.5c0 -2 -0.666992 -3.66699 -2 -5c-16 -22.667 -34.167 -43.834 -54.5 -63.501s-40.666 -36.834 -60.999 -51.501s-40.166 -26.334 -59.499 -35.001
s-36.333 -13 -51 -13c-16.667 0 -29.167 4.83301 -37.5 14.5s-12.5 22.167 -12.5 37.5c0 17.333 4.33301 36.5 13 57.5s19.834 40.5 33.501 58.5s29 33.167 46 45.5s33.5 18.5 49.5 18.5c13.333 0 22.666 -3.5 27.999 -10.5s8 -15.167 8 -24.5
c0 -3.33301 -0.666992 -8 -2 -14s-3 -12 -5 -18s-4.5 -11.333 -7.5 -16s-6.16699 -7 -9.5 -7c-1.33301 0 -3 0.666992 -5 2s-3 3 -3 5s0.666992 3.66699 2 5h-1c10 15.333 15 30 15 44c0 4 -0.833008 7.5 -2.5 10.5s-4.5 4.5 -8.5 4.5c-10.667 0 -22.5 -6 -35.5 -18
s-25 -26.5 -36 -43.5s-20.167 -34.833 -27.5 -53.5s-11 -35 -11 -49c0 -8.66699 1.83301 -15.667 5.5 -21s9.83398 -8 18.501 -8c14.667 0 31.334 5.16699 50.001 15.5s37.334 23 56.001 38s36.167 31.333 52.5 49s29.833 34.167 40.5 49.5z" />
    <glyph glyph-name="d" unicode="d" horiz-adv-x="299" 
d="M215 314c12.667 26.667 27.0039 54.832 43.0039 84.499s33.167 57 51.5 82s37.666 45.667 57.999 62s41.166 24.5 62.499 24.5c15.333 0 26.666 -5 33.999 -15s11 -22.667 11 -38c0 -16.667 -4.66699 -36.667 -14 -60s-23.5 -46 -42.5 -68s-42.667 -41.333 -71 -58
s-61.166 -26 -98.499 -28l-5 -11l-28 -60.5l-33.5 -77c-11 -26.333 -20.5 -51.333 -28.5 -75s-12 -41.834 -12 -54.501c0 -3.33301 0.333008 -5 1 -5c5.33301 0 14.166 5.33301 26.499 16s26 23.834 41 39.501l45.5 49l39 44.5c2 2 3.66699 3 5 3c2 0 4 -1.16699 6 -3.5
s2.66699 -5.16602 2 -8.49902c-4.66699 -6 -11.5 -14 -20.5 -24l-30 -33.5l-35 -37.5c-12.333 -12.667 -24.666 -24 -36.999 -34s-23.833 -18.333 -34.5 -25s-20 -10 -28 -10c-7.33301 0 -12.5 2.83301 -15.5 8.5s-4.5 12.834 -4.5 21.501v7c0 2.66699 0.333008 5 1 7
c-30.667 -24.667 -58 -37 -82 -37c-18.667 0 -33.167 6.33301 -43.5 19s-15.5 29.334 -15.5 50.001c0 14.667 3.66699 31.167 11 49.5s17.166 35.666 29.499 51.999s27.166 30 44.499 41s36 16.5 56 16.5c10.667 0 21.334 -1.83301 32.001 -5.5s19.667 -8.83398 27 -15.501
l19.5 42c6.33301 13.333 13.166 27 20.499 41zM109.004 59.998c0.666992 0.666992 1.33301 1 2 1s1 0.333008 1 1zM109.003 59.998c5.33301 19.333 12.166 40.8301 20.499 64.4971s17.166 45.834 26.499 66.501c-6 6.66699 -12.167 11.167 -18.5 13.5
s-13.166 3.5 -20.499 3.5c-14 0 -28 -5.16699 -42 -15.5s-26.5 -23.166 -37.5 -38.499s-20 -31.666 -27 -48.999s-10.5 -33.333 -10.5 -48c0 -10 2.5 -19 7.5 -27s13.167 -12 24.5 -12c12.667 0 25.334 4.33301 38.001 13s22.667 16 30 22zM383.003 511.995
c-12.667 -12 -25.002 -26.3311 -37.002 -42.998s-23.333 -33.834 -34 -51.501s-20.667 -35.167 -30 -52.5l-25 -48c24 2.66699 47.833 10 71.5 22s44.834 27 63.501 45s33.834 38.333 45.501 61s17.5 45.667 17.5 69c0 18.667 -6.66699 28 -20 28
c-6.66699 0 -14.5 -2.33301 -23.5 -7s-18.5 -12.334 -28.5 -23.001z" />
    <glyph glyph-name="e" unicode="e" horiz-adv-x="219" 
d="M215 166c2 2 4.00293 2.99707 6.00293 2.99707c4.66699 0 7 -3.66699 7 -11c-16 -23.333 -33.667 -45.166 -53 -65.499s-39 -37.833 -59 -52.5s-39.833 -26.167 -59.5 -34.5s-37.5 -12.5 -53.5 -12.5c-14.667 0 -26.834 4 -36.501 12s-14.5 21.333 -14.5 40
c0 18 4 37.5 12 58.5s18.5 40.5 31.5 58.5s28 32.833 45 44.5s34.833 17.5 53.5 17.5c8 0 14.833 -1.66699 20.5 -5s8.5 -9.33301 8.5 -18c0 -7.33301 -2.33301 -15.833 -7 -25.5s-11.834 -19.167 -21.501 -28.5s-22 -17.833 -37 -25.5s-32.5 -13.5 -52.5 -17.5
c-3.33301 -9.33301 -6.5 -19.333 -9.5 -30s-4.5 -20.667 -4.5 -30c0 -8.66699 1.83301 -16 5.5 -22s10.167 -9 19.5 -9c15.333 0 32.5 5.16699 51.5 15.5s37.667 23.333 56 39s35.666 32.334 51.999 50.001s29.5 33.834 39.5 48.501zM69.0029 190.997
c-11.333 -8.66699 -21.499 -18.999 -30.499 -30.999s-17.167 -24.667 -24.5 -38c15.333 4 28.833 9.16699 40.5 15.5s21.334 13 29.001 20s13.5 14.167 17.5 21.5s6 13.666 6 18.999c0 4 -2.33301 6 -7 6s-9.83398 -1.33301 -15.501 -4s-10.834 -5.66699 -15.501 -9z" />
    <glyph glyph-name="f" unicode="f" horiz-adv-x="168" 
d="M224 577c1.33301 0.666992 4.66699 1.00098 10 1.00098c15.333 0 27.333 -6.33301 36 -19s13 -29 13 -49c0 -16 -4.5 -35.333 -13.5 -58s-22 -45 -39 -67s-38 -41.833 -63 -59.5s-53.5 -28.834 -85.5 -33.501l-49 -146l-49 -147l57 57.5l52 49l42.5 37.5
c12.333 10.667 22.5 18.667 30.5 24c6.66699 0 10 -2.66699 10 -8c0 -2.66699 -3.16699 -6.66699 -9.5 -12l-26.5 -22l-38 -32.5l-43.5 -39.5c-15 -14 -30 -28.833 -45 -44.5s-28.5 -31.5 -40.5 -47.5l1 1c-7.33301 -21.333 -13.833 -41.833 -19.5 -61.5
s-11.167 -37.834 -16.5 -54.501l-26 -85c-7.33301 -24 -14.833 -44 -22.5 -60s-15.667 -27.833 -24 -35.5s-17.833 -11.5 -28.5 -11.5s-19.167 4.83301 -25.5 14.5s-9.5 22.834 -9.5 39.501c0 15.333 3.16699 31.666 9.5 48.999s15 35.333 26 54s23.833 37.834 38.5 57.501
s30.334 39.5 47.001 59.5l-1 -1c9.33301 26 18.166 52.167 26.499 78.5l24.5 78.5c3.33301 13.333 7 26.833 11 40.5s8.33301 27.167 13 40.5l28 86c10 30 20.667 59.667 32 89s23.333 57.5 36 84.5s26 51.333 40 73s28.5 39.5 43.5 53.5s30.833 22.667 47.5 26z
M178.001 501.001c-9.33301 -14 -18.167 -29.167 -26.5 -45.5s-16.333 -33 -24 -50s-14.667 -33.667 -21 -50l-17.5 -45.5c26 5.33301 50 15.333 72 30s41 31.667 57 51s28.333 39.666 37 60.999s13 41 13 59c0 13.333 -2.16699 24 -6.5 32s-10.833 12 -19.5 12
c-7.33301 0 -16.333 -4.16699 -27 -12.5s-23 -22.166 -37 -41.499zM-110 -185.999l8.50195 35.001c2.33301 10 6.16602 22.667 11.499 38l-31.5 -41.5c-11 -15 -20.833 -30.333 -29.5 -46s-15.834 -31.334 -21.501 -47.001s-8.5 -30.5 -8.5 -44.5
c0 -17.333 3.33301 -26 10 -26c6 0 13 6.5 21 19.5s16.667 34.5 26 64.5z" />
    <glyph glyph-name="g" unicode="g" horiz-adv-x="322" 
d="M320 168c2.66699 0 4.83008 -1 6.49707 -3s2.5 -3.66699 2.5 -5c0 -2 -1 -4 -3 -6l-190 -140c0.666992 -0.666992 -1 -5.83398 -5 -15.501l-14 -35.5l-25.5 -68.5c-9.66699 -26.333 -20.334 -53.166 -32.001 -80.499s-23.667 -53.833 -36 -79.5s-24.5 -47.5 -36.5 -65.5
c-14 -20 -29.667 -37.5 -47 -52.5s-35.333 -22.5 -54 -22.5c-14 0 -26.167 5.33301 -36.5 16s-15.5 27.334 -15.5 50.001c0 28.667 6.83301 57.167 20.5 85.5s32 56.666 55 84.999s50 56.333 81 84s63.833 55.167 98.5 82.5c2.66699 6 4.33398 10.667 5.00098 14
s2.33398 8.33301 5.00098 15c-13.333 -9.33301 -26.166 -16.333 -38.499 -21s-23.833 -7 -34.5 -7c-19.333 0 -34.833 6.66699 -46.5 20s-17.5 30.666 -17.5 51.999c0 12 2.83301 26.667 8.5 44s14.5 34.333 26.5 51s27 30.834 45 42.501s39 17.5 63 17.5
c12 0 23.167 -1.5 33.5 -4.5s19.5 -9.16699 27.5 -18.5l4 12c2.66699 1.33301 5.83398 2.5 9.50098 3.5s7.16699 1.5 10.5 1.5c10 0 16.667 -2.33301 20 -7c0 -0.666992 0.166992 -1.16699 0.5 -1.5s0.5 -0.833008 0.5 -1.5l-64 -167zM130.996 111
c5.33301 12.667 10 25.335 14 38.002s8.66699 25 14 37c-14 14.667 -28.333 22 -43 22s-28.834 -5.33301 -42.501 -16s-26 -23.834 -37 -39.501s-19.833 -32.334 -26.5 -50.001s-10 -33.834 -10 -48.501c0 -10.667 2.5 -19.667 7.5 -27s13.5 -11 25.5 -11
c4.66699 0 10.334 1.33301 17.001 4s13.667 6 21 10s14.5 8.33301 21.5 13s13.167 9.33398 18.5 14.001zM-86.0039 -364.999c14 12.667 28.1689 30.835 42.502 54.502s28.166 50 41.499 79s26 59 38 90l34 87.5c0.666992 3.33301 2.16699 7.33301 4.5 12
s4.16602 8.66699 5.49902 12c-32 -25.333 -62 -50.833 -90 -76.5s-52.333 -51.5 -73 -77.5s-37 -52.333 -49 -79s-18 -53.334 -18 -80.001c0 -14.667 2.5 -25.334 7.5 -32.001s10.833 -10 17.5 -10c10.667 0 23.667 6.66699 39 20z" />
    <glyph glyph-name="h" unicode="h" 
d="M256 563c8 2.66699 15.667 4 23 4c14 0 24.5 -4.66699 31.5 -14s10.5 -21.666 10.5 -36.999c0 -14.667 -3.5 -31 -10.5 -49s-17.5 -36.167 -31.5 -54.5s-31.5 -36 -52.5 -53s-45.5 -31.833 -73.5 -44.5c-8 -3.33301 -16.667 -6.33301 -26 -9s-18.333 -4.66699 -27 -6
l-55.5 -122c-19 -43.333 -35.833 -85 -50.5 -125l42 57.5c15.333 20.333 31.166 39 47.499 56s32.833 31.167 49.5 42.5s32.334 17 47.001 17c17.333 0 26 -8.66699 26 -26c0 -12.667 -3.5 -28 -10.5 -46s-14.5 -36 -22.5 -54l-20 -46c-6 -14 -9 -25 -9 -33
c0 -4 1.33301 -6 4 -6c4.66699 0 11.5 3.5 20.5 10.5s19 15.833 30 26.5s22.333 22.5 34 35.5l32.5 36.5l29 32c8 8.66699 13.333 13 16 13c1.33301 0 3 -1 5 -3s3 -3.66699 3 -5c0 -2.66699 -3.66699 -8.66699 -11 -18s-16.833 -20.333 -28.5 -33
s-24.5 -25.834 -38.5 -39.501s-28 -26.167 -42 -37.5s-26.833 -20.833 -38.5 -28.5s-20.834 -11.5 -27.501 -11.5c-7.33301 0 -13.5 2.33301 -18.5 7s-7.5 12.667 -7.5 24c0 13.333 2.66699 26.5 8 39.5s11.666 26.833 18.999 41.5l18 37.5c6 13 10.667 27.167 14 42.5
c2 6 3 11 3 15s-1.66699 6 -5 6c-10.667 0 -23.167 -6 -37.5 -18s-29 -26.833 -44 -44.5s-29.667 -36.334 -44 -56.001l-36.5 -51.5c-4.66699 -7.33301 -9 -13.666 -13 -18.999l-10 -13c-8 -8 -16.333 -12 -25 -12c-6 0 -10.333 1.16699 -13 3.5s-4 5.16602 -4 8.49902
c7.33301 22 16 46 26 72l31.5 78.5l34 78.5l32.5 72c12.667 28 26.667 55.833 42 83.5s31.333 53.334 48 77.001s33.834 44.167 51.501 61.5s35.834 29.333 54.501 36zM261 536c-16 -11.333 -31.1699 -25.333 -45.5029 -42s-28 -34.667 -41 -54s-25 -39.666 -36 -60.999
l-31.5 -62c32 5.33301 60.333 16.333 85 33s45.334 35.167 62.001 55.5s29.334 40.5 38.001 60.5s13 36 13 48c0 9.33301 -1.66699 16.666 -5 21.999s-8.66602 8 -15.999 8s-15 -2.66699 -23 -8z" />
    <glyph glyph-name="i" unicode="i" horiz-adv-x="148" 
d="M112 105l-34.001 -36.998c-10.667 -11.333 -20.667 -21.333 -30 -30c-3.33301 -3.33301 -7.83301 -7.33301 -13.5 -12s-11.834 -9.5 -18.501 -14.5s-13.5 -9.16699 -20.5 -12.5s-13.833 -5 -20.5 -5c-15.333 0 -23 10 -23 30c0 13.333 3.33301 31.666 10 54.999
s18.334 52 35.001 86l27 54c3.33301 5.33301 10.333 8 21 8c4.66699 0 9 -1 13 -3s6 -5.66699 6 -11c-26 -49.333 -45 -90.333 -57 -123s-18 -54.334 -18 -65.001c0 -4.66699 1 -7 3 -7c3.33301 0 10.5 4.33301 21.5 13s23.833 20 38.5 34s30.334 29.833 47.001 47.5
s32 35.5 46 53.5c2 2 3.66699 3 5 3s3 -1 5 -3s3 -4 3 -6c0 -1.33301 -4.83301 -7.83301 -14.5 -19.5s-20.167 -23.5 -31.5 -35.5zM56.999 270.002c6 0 10.667 -2.16699 14 -6.5s5 -8.83301 5 -13.5c0 -6 -1.66699 -11 -5 -15s-8 -6 -14 -6s-10.833 2 -14.5 6
s-5.5 9 -5.5 15c0 5.33301 1.83301 10 5.5 14s8.5 6 14.5 6z" />
    <glyph glyph-name="j" unicode="j" horiz-adv-x="171" 
d="M43 269c6 0 10.833 -1.99902 14.5 -5.99902s5.5 -8.66699 5.5 -14c0 -6 -1.83301 -11 -5.5 -15s-8.5 -6 -14.5 -6c-5.33301 0 -10 1.66699 -14 5s-6 8.66602 -6 15.999c0 6 2 10.833 6 14.5s8.66699 5.5 14 5.5zM-239 -367.999c16.667 14 32.499 32.832 47.499 56.499
s29 49.5 42 77.5s25.167 56.833 36.5 86.5l31 83.5l12 34c-32 -25.333 -61.833 -50.833 -89.5 -76.5s-51.667 -51.667 -72 -78s-36.5 -52.666 -48.5 -78.999s-18 -52.5 -18 -78.5c0 -13.333 1.83301 -24 5.5 -32s9.83398 -12 18.501 -12c9.33301 0 21 6 35 18zM27.999 133
l-15.001 -45.998l-16 -46l84.5 62.5l85.5 62.5c1.33301 1.33301 3 2 5 2s3.66699 -1 5 -3s2 -3.66699 2 -5c0 -2 -1 -4 -3 -6l-188 -139l-17 -48l-27.5 -75c-10.333 -27.333 -21.5 -54.833 -33.5 -82.5s-24.667 -54.334 -38 -80.001s-27.333 -48.667 -42 -69
s-30 -36.5 -46 -48.5s-32.333 -18 -49 -18s-29 6.16699 -37 18.5s-12 28.166 -12 47.499c0 28.667 6.83301 57.167 20.5 85.5s32 56.666 55 84.999s49.833 56.333 80.5 84s63 55.167 97 82.5l75 220c2.66699 6 9.33398 9 20.001 9c5.33301 0 10 -1.16699 14 -3.5
s6 -6.16602 6 -11.499z" />
    <glyph glyph-name="k" unicode="k" horiz-adv-x="229" 
d="M223 574c2.66699 0.666992 6.66406 1 11.9971 1c15.333 0 27.166 -6.16699 35.499 -18.5s12.5 -28.166 12.5 -47.499c0 -16 -4.66699 -35.333 -14 -58s-22.666 -45 -39.999 -67s-38.333 -41.667 -63 -59s-52.334 -28.666 -83.001 -33.999l-15.5 -39.5
c-5 -13 -9.83301 -27.167 -14.5 -42.5c10.667 6.66699 22 12 34 16s24.333 6 37 6c2.66699 0 6 -0.166992 10 -0.5s7.83301 -1 11.5 -2s6.83398 -2.33301 9.50098 -4s4 -3.83398 4 -6.50098c0 -1.33301 -0.666992 -3 -2 -5s-3.33301 -3 -6 -3
c-3.33301 0 -7.66602 0.666992 -12.999 2s-9.33301 2 -12 2c-8.66699 0 -17.667 -1.33301 -27 -4s-18 -5.83398 -26 -9.50098s-14.833 -7.66699 -20.5 -12s-9.16699 -8.5 -10.5 -12.5c-2 -5.33301 -3.33301 -10.5 -4 -15.5s-1 -10.167 -1 -15.5
c0 -14 2.16699 -28.333 6.5 -43s10 -28 17 -40s14.667 -21.833 23 -29.5s16.5 -11.5 24.5 -11.5c6.66699 0.666992 14.334 5 23.001 13s17.5 18 26.5 30s17.833 24.5 26.5 37.5l23 35.5l15 23c4 6 7 9 9 9c6 0 8.66699 -3.66699 8 -11l-14 -24l-28.5 -46
c-10.333 -16.667 -21.333 -32 -33 -46s-23.834 -25.667 -36.501 -35s-25.334 -14 -38.001 -14c-15.333 0 -30.166 6.16699 -44.499 18.5s-26.166 33.5 -35.499 63.5c-3.33301 -12 -6.5 -22.5 -9.5 -31.5l-10.5 -30.5l-4 -12c-0.666992 -2 -3.66699 -4 -9 -6
s-10.666 -3 -15.999 -3c-10 0 -15 4 -15 12l29 88.5l24 73l22 64.5l23 63l32 83c12 30.667 25.333 60 40 88s31 52.333 49 73s37.667 33 59 37zM199.997 528c-23.333 -25.333 -43.667 -57.166 -61 -95.499s-34.333 -80.5 -51 -126.5c25.333 6 49 16.5 71 31.5
s41 32.333 57 52s28.5 40 37.5 61s13.5 40.5 13.5 58.5c0 13.333 -2.33301 23.666 -7 30.999s-11.334 11 -20.001 11c-11.333 0 -24.666 -7.66699 -39.999 -23z" />
    <glyph glyph-name="l" unicode="l" horiz-adv-x="215" 
d="M56 317c6 14.667 13.666 31.1689 22.999 49.502s19.5 36.833 30.5 55.5s22.833 37.167 35.5 55.5s25.834 34.5 39.501 48.5s27.667 25.333 42 34s28.833 13 43.5 13c16 0 27.667 -6 35 -18s11 -26 11 -42c0 -10.667 -1.66699 -22.667 -5 -36s-9 -27.333 -17 -42
s-18.5 -29.334 -31.5 -44.001s-28.833 -28.334 -47.5 -41.001c-19.333 -13.333 -39.666 -24.666 -60.999 -33.999s-41.666 -14.333 -60.999 -15l-18 -41c-8 -18.667 -16.167 -39.334 -24.5 -62.001s-15.5 -45.834 -21.5 -69.501s-9 -44.5 -9 -62.5c0 -14 2.5 -26 7.5 -36
s13.833 -15 26.5 -15c13.333 0 27.666 5.83301 42.999 17.5s30.333 25.5 45 41.5s28 32.5 40 49.5s21.667 31.167 29 42.5l-1 -1c1.33301 2.66699 3.66602 4 6.99902 4c1.33301 0 3 -0.833008 5 -2.5s3 -3.16699 3 -4.5c0 -2 -0.666992 -3.66699 -2 -5l-32.5 -48
c-13 -18.667 -27.333 -36.5 -43 -53.5s-32.5 -31.5 -50.5 -43.5s-36.333 -18 -55 -18c-22.667 0 -38.667 6.83301 -48 20.5s-14 31.167 -14 52.5s3.16699 44.833 9.5 70.5s13.833 50.334 22.5 74.001s17.167 45 25.5 64zM235.999 530.002
c-14 -12.667 -27.501 -28 -40.501 -46s-25.333 -36.833 -37 -56.5s-22.5 -39.167 -32.5 -58.5s-18.333 -36.333 -25 -51c24 2.66699 47.667 10.167 71 22.5s44.333 27.666 63 45.999s33.834 38.5 45.501 60.5s17.5 44 17.5 66c0 12.667 -2.16699 21.834 -6.5 27.501
s-9.83301 8.5 -16.5 8.5c-11.333 0 -24.333 -6.33301 -39 -19z" />
    <glyph glyph-name="m" unicode="m" horiz-adv-x="433" 
d="M249 210c-22.667 -10 -47.0029 -30.6621 -73.0029 -61.9951l1 1l-78 -144c-1.33301 -2.66699 -4.16602 -4.83398 -8.49902 -6.50098s-8.5 -2.5 -12.5 -2.5c-5.33301 0 -9.83301 1 -13.5 3s-5.5 4.66699 -5.5 8c0 1.33301 0.333008 2.66602 1 3.99902l40 74l39 74
c6.66699 11.333 10 22.666 10 33.999c0 8 -2 14 -6 18s-8.66699 6 -14 6c-13.333 0 -28.5 -5.66699 -45.5 -17s-34.167 -27.333 -51.5 -48l1 1l-81 -150c-2.66699 -4.66699 -10 -7 -22 -7c-5.33301 0 -9.66602 0.666992 -12.999 2s-5 3.66602 -5 6.99902
c0 1.33301 0.333008 2.66602 1 3.99902l113 207c1.33301 1.33301 4.5 2.66602 9.5 3.99902s9.16699 2 12.5 2c11.333 0 17 -2.66699 17 -8c0 -0.666992 -0.166992 -1.33398 -0.5 -2.00098s-0.5 -1.33398 -0.5 -2.00098l-6 -10c13.333 12 27 21.167 41 27.5s29 9.5 45 9.5
c10.667 0 20.834 -3.33301 30.501 -10s14.5 -18 14.5 -34c0 -2.66699 0.333008 -3.66699 1 -3s0.333984 -0.666016 -0.999023 -3.99902c18.667 16.667 36.834 29.334 54.501 38.001s33.167 13 46.5 13c16 0 27.333 -4 34 -12s10 -17.667 10 -29
c0 -9.33301 -1.33301 -18.5 -4 -27.5s-6.33398 -17.5 -11.001 -25.5l-43 -83l-12 -22c-4.66699 -8.66699 -7 -15 -7 -19c0 -2 0.666992 -3 2 -3c6 0 15.333 4.83301 28 14.5s26.334 21.334 41.001 35.001l44.5 43l37.5 38.5c5.33301 6.66699 10.166 12 14.499 16
s7.16602 6 8.49902 6s3 -0.666992 5 -2s3 -3.33301 3 -6s-4 -8.66699 -12 -18s-18.167 -20.166 -30.5 -32.499s-25.666 -25 -39.999 -38l-39.5 -34.5l-42 -32c-4 -2.66699 -9.33301 -5.5 -16 -8.5s-13.667 -4.5 -21 -4.5c-8 0 -13.667 2.33301 -17 7s-5 10 -5 16
c0 8.66699 2.33301 18 7 28s8.66699 18 12 24l45 84c3.33301 7.33301 6.33301 15.166 9 23.499s4 15.5 4 21.5s-1.33301 11.167 -4 15.5s-7.33398 6.5 -14.001 6.5s-16 -3 -28 -9z" />
    <glyph glyph-name="n" unicode="n" horiz-adv-x="288" 
d="M25 216c0.666992 0.666992 3.49805 1.83789 8.49805 3.50488s10.167 2.5 15.5 2.5c10.667 0 16 -2.66699 16 -8c0 -0.666992 -0.166992 -1.33398 -0.5 -2.00098s-0.5 -1.33398 -0.5 -2.00098l-5 -9c31.333 24 58.333 36 81 36c16 0 27.667 -4.66699 35 -14
s11 -20.666 11 -33.999c0 -12 -4.83301 -27.833 -14.5 -47.5s-19.834 -39.167 -30.501 -58.5l-20 -38c-6 -11.333 -9 -19.333 -9 -24c0 -2 1 -3 3 -3c5.33301 0 13.5 4.16699 24.5 12.5s23.333 18.666 37 30.999s27.334 25.333 41.001 39l37.5 37.5l22.5 22.5
c5.66699 5.66699 9.16699 8.5 10.5 8.5c5.33301 0 8 -2.66699 8 -8c0 -2.66699 -3.33301 -8 -10 -16s-15.5 -17.5 -26.5 -28.5l-36.5 -35c-13.333 -12.333 -26.666 -24 -39.999 -35s-26 -20.833 -38 -29.5s-21.667 -14.667 -29 -18c-8 -3.33301 -14.667 -5 -20 -5
c-6.66699 0 -12.167 2.16699 -16.5 6.5s-6.5 10.166 -6.5 17.499c0 13.333 3.66699 26.833 11 40.5l24 43.5c10 15.333 19.167 30.833 27.5 46.5s12.5 30.5 12.5 44.5c0 7.33301 -1.66699 13.166 -5 17.499s-8.66602 6.5 -15.999 6.5c-10.667 0 -24.667 -5.5 -42 -16.5
s-34.333 -26.5 -51 -46.5l1 1l-84 -152c-1.33301 -2 -4 -3.5 -8 -4.5s-8 -1.5 -12 -1.5c-4.66699 0 -9.16699 0.666992 -13.5 2s-5.83301 4.66602 -4.5 9.99902z" />
    <glyph glyph-name="o" unicode="o" horiz-adv-x="291" 
d="M285 165c1.33301 2.66699 3.66699 4.00293 7 4.00293c5.33301 0 8 -2.66699 8 -8c0 -2 -0.666992 -3.66699 -2 -5l-32 -36.5c-10.667 -11.667 -22.334 -21.834 -35.001 -30.501s-26.167 -15.5 -40.5 -20.5s-30.166 -7.5 -47.499 -7.5h-8.5c-3 0 -5.83301 0.333008 -8.5 1
c-17.333 -22.667 -35.666 -39.834 -54.999 -51.501s-36.666 -17.5 -51.999 -17.5c-16.667 0 -30.167 5.66699 -40.5 17s-15.5 28 -15.5 50c0 16.667 3.33301 34.667 10 54s16 37.333 28 54s26.333 30.5 43 41.5s35 16.5 55 16.5c4.66699 0 11 -0.5 19 -1.5
s12 -3.83301 12 -8.5c0 -5.33301 -4 -8 -12 -8c-2 0 -3.83301 0.166992 -5.5 0.5s-3.16699 0.5 -4.5 0.5c-14.667 0 -28.334 -5.33301 -41.001 -16s-23.834 -23.667 -33.501 -39s-17.167 -32 -22.5 -50s-8 -34.333 -8 -49c0 -11.333 2.16699 -21 6.5 -29
s11.166 -12 20.499 -12c6.66699 0 13.834 1.66699 21.501 5s15 7.66602 22 12.999s13.667 10.833 20 16.5s11.5 11.167 15.5 16.5c-11.333 5.33301 -20 12.666 -26 21.999s-9 19.333 -9 30c0 10 2 20 6 30s9.16699 19 15.5 27s13.666 14.667 21.999 20s16.833 8 25.5 8
c11.333 0 19.333 -2.83301 24 -8.5s7 -13.167 7 -22.5c0 -15.333 -4.16699 -32.166 -12.5 -50.499s-16.166 -32.833 -23.499 -43.5c14.667 0 28 1.5 40 4.5s23.667 8 35 15s22.833 16.167 34.5 27.5s24.5 25.333 38.5 42zM119.001 78.0029l1 1h2zM91.001 117.003
c0 -20 9.66699 -32.667 29 -38l13 20.5c4.66699 7.66699 8.66699 15.667 12 24s6.16602 16.5 8.49902 24.5s3.5 15.333 3.5 22c0 10.667 -4.33301 16 -13 16c-7.33301 0 -14.166 -2.16699 -20.499 -6.5s-12 -9.83301 -17 -16.5s-8.83301 -14 -11.5 -22s-4 -16 -4 -24z" />
    <glyph glyph-name="p" unicode="p" horiz-adv-x="343" 
d="M337 166c2 2 3.66504 2.99707 4.99805 2.99707c5.33301 0 8 -2.66699 8 -8c0 -2 -0.666992 -3.66699 -2 -5c-16 -19.333 -32.333 -34.833 -49 -46.5s-33.167 -21 -49.5 -28s-32.333 -11.833 -48 -14.5s-30.5 -4 -44.5 -4c-18.667 -24 -38.834 -41.833 -60.501 -53.5
s-40.167 -17.5 -55.5 -17.5c-12 0 -20.833 2.5 -26.5 7.5s-8.5 10.833 -8.5 17.5c0 11.333 4.33301 20.833 13 28.5s19.167 13.834 31.5 18.501s25.5 8.16699 39.5 10.5s26.333 3.83301 37 4.5c8 11.333 15.667 25.333 23 42s11 32.334 11 47.001s-3.5 24.834 -10.5 30.501
s-14.5 8.5 -22.5 8.5s-16.5 -1.5 -25.5 -4.5s-18 -6.83301 -27 -11.5s-17.167 -10.167 -24.5 -16.5s-13.333 -12.5 -18 -18.5l1 1l-112 -298c-17.333 -46 -33.333 -84 -48 -114s-28.167 -53.833 -40.5 -71.5s-23.666 -30 -33.999 -37s-19.5 -10.5 -27.5 -10.5
c-11.333 0 -19.333 4.83301 -24 14.5s-7 21.167 -7 34.5c0 12.667 2.33301 27.167 7 43.5s12.667 33.333 24 51s26 35 44 52s40.667 32.833 68 47.5l133 346c1.33301 1.33301 3.83301 2.83301 7.5 4.5s7.5 2.5 11.5 2.5c4.66699 0 9 -0.833008 13 -2.5s6 -4.16699 6 -7.5
c0 -2 -0.833008 -4.83301 -2.5 -8.5s-3.16699 -7.16699 -4.5 -10.5l-1 -3c30.667 22.667 61.334 34 92.001 34c18 0 32.833 -4.66699 44.5 -14s17.5 -23.666 17.5 -42.999c0 -11.333 -2.5 -24.5 -7.5 -39.5s-12.833 -31.167 -23.5 -48.5c12.667 0 25.667 1 39 3
s26.833 6 40.5 12s27.834 14.667 42.501 26s29.667 26.666 45 45.999zM-198.002 -309.003c8 12.667 15.8291 26.502 23.4961 41.502s14.667 29.667 21 44l17 40c5 12.333 9.16699 22.166 12.5 29.499c-21.333 -12.667 -39.666 -26.167 -54.999 -40.5
s-27.666 -29 -36.999 -44s-16.166 -29.5 -20.499 -43.5s-6.5 -26.667 -6.5 -38c0 -16.667 3.33301 -25 10 -25c3.33301 0 7.83301 2.66699 13.5 8s12.834 14.666 21.501 27.999zM57.9941 18.999c22 10.667 40.666 25 55.999 43c-30.667 -1.33301 -53.5 -6.83301 -68.5 -16.5
s-22.5 -19.167 -22.5 -28.5c0 -4 3 -6 9 -6c6.66699 0 15.334 2.66699 26.001 8z" />
    <glyph glyph-name="q" unicode="q" horiz-adv-x="304" 
d="M299 166c2 2 3.99902 3.00098 5.99902 3.00098c1.33301 0 3 -0.666992 5 -2s3 -3.33301 3 -6c0 -2 -0.666992 -3.66699 -2 -5l-51 -66l-56 -72c-18 -24 -36.333 -45.667 -55 -65c8 -14 12 -31.667 12 -53c0 -25.333 -5.33301 -53.833 -16 -85.5s-23.667 -61.5 -39 -89.5
s-31.666 -51.5 -48.999 -70.5s-32.666 -28.5 -45.999 -28.5c-8 0 -14.5 3.16699 -19.5 9.5s-7.5 16.166 -7.5 29.499c0 15.333 2.16699 33.5 6.5 54.5s9.83301 43.167 16.5 66.5s14 47 22 71s16 46.833 24 68.5l22 58c6.66699 17 11.667 30.167 15 39.5
c-12.667 -8 -25 -13.833 -37 -17.5s-22.667 -5.5 -32 -5.5c-22.667 0 -38.334 6 -47.001 18s-13 25.667 -13 41c0 22 4 43.167 12 63.5s18.667 38.333 32 54s28.333 28 45 37s33.667 13.5 51 13.5c12 0 23.333 -2.33301 34 -7s20.334 -10.667 29.001 -18
c4 9.33301 7.16699 15 9.5 17s6.16602 3 11.499 3c4 0 8 -1 12 -3s7 -4.66699 9 -8v-2l-94 -232c5.33301 0 10.333 -1.33301 15 -4s9 -5.66699 13 -9c11.333 11.333 26 28.833 44 52.5l55 71.5l33 43.5c10 13.667 19 25.167 27 34.5zM157.999 186.001
c-12 14 -26.334 21.001 -43.001 21.001c-16 0 -31.167 -5.16699 -45.5 -15.5s-26.666 -23 -36.999 -38s-18.666 -31.333 -24.999 -49s-9.5 -33.834 -9.5 -48.501c0 -14 2.83301 -23.667 8.5 -29s12.5 -8 20.5 -8c12 0 25.167 3.5 39.5 10.5s26.166 14.167 35.499 21.5z
M106.998 -39.998c-0.666992 -0.666992 -1.5 -2.33203 -2.5 -4.99902s-1.5 -5.33398 -1.5 -8.00098s1.33301 -4 4 -4c5.33301 0 12.333 3.66699 21 11c-2.66699 2 -5.33398 3.83301 -8.00098 5.5s-5.66699 2.5 -9 2.5c-1.33301 0 -2.66602 -0.666992 -3.99902 -2z
M97.998 -64.9961l-2 -4l-3 3zM107.998 -72.9961c-4.66699 0 -8.66504 1.33887 -11.998 4.00586c-2.66699 -6.66699 -7.83398 -20.834 -15.501 -42.501s-15.667 -45.834 -24 -72.501s-15.833 -53.334 -22.5 -80.001s-10 -48.334 -10 -65.001c0 -11.333 1.66699 -17 5 -17
c8 0 18.667 9 32 27s26.166 39.833 38.499 65.5s23 52.5 32 80.5s13.5 52.333 13.5 73c0 7.33301 -0.5 14.666 -1.5 21.999s-3.16699 13.666 -6.5 18.999c-4 -4 -8.5 -7.33301 -13.5 -10s-10.167 -4 -15.5 -4z" />
    <glyph glyph-name="r" unicode="r" horiz-adv-x="208" 
d="M31 10c2.66699 0 11.165 5.66797 25.498 17.001s30.666 25 48.999 41s36.5 33 54.5 51s32.667 33.667 44 47c2 2 3.66699 3 5 3s2.5 -1 3.5 -3s1.5 -4 1.5 -6c0 0.666992 -2.83301 -2.33301 -8.5 -9s-12.834 -14.667 -21.501 -24l-39.5 -42.5
c-15 -16.333 -30.5 -31.833 -46.5 -46.5s-31.667 -27 -47 -37s-28.666 -15 -39.999 -15c-9.33301 0 -14 6.33301 -14 19c0 10.667 3.5 24.834 10.5 42.501s14.833 35.167 23.5 52.5s16.834 32.666 24.501 45.999s12.167 21.333 13.5 24c2 2 3 4 3 6l-11 -6h1
c-6 -3.33301 -13.167 -6.83301 -21.5 -10.5s-16.166 -5.5 -23.499 -5.5c-10 0 -17.333 4.33301 -22 13s-7 16 -7 22c0 10 3.33301 18.5 10 25.5s12.667 10.5 18 10.5c9.33301 0 14 -5.66699 14 -17c0 -7.33301 -1.5 -14.833 -4.5 -22.5s-6.16699 -14.167 -9.5 -19.5
c0.666992 0 0.833984 -0.166992 0.500977 -0.5s-0.166016 -0.5 0.500977 -0.5c4 0 9.33301 1.66699 16 5l21 11c6.66699 4 13.667 7.66699 21 11s13.333 5 18 5c5.33301 0 9.16602 -2 11.499 -6s3.5 -7.66699 3.5 -11c0 -7.33301 -3.83301 -18.833 -11.5 -34.5
s-16.5 -32.167 -26.5 -49.5l-28 -50.5c-8.66699 -15.667 -13 -26.834 -13 -33.501c0 -1.33301 0.666992 -2 2 -2z" />
    <glyph glyph-name="s" unicode="s" horiz-adv-x="169" 
d="M151 139l-122.001 -68.999c-0.666992 -10.667 -2 -22 -4 -34s-5.5 -23.167 -10.5 -33.5s-12.333 -19 -22 -26s-22.167 -10.5 -37.5 -10.5c-10.667 0 -18.667 2.66699 -24 8s-8 12 -8 20c0 12 5.33301 23.5 16 34.5s27 23.167 49 36.5c0 5.33301 0.333008 10.166 1 14.499
s1 9.16602 1 14.499v9c0.666992 10 1.66699 22 3 36s4 27.5 8 40.5s9.83301 24.167 17.5 33.5s18.5 14 32.5 14c4.66699 0 8.83398 -1.16699 12.501 -3.5s5.5 -6.16602 5.5 -11.499s-2 -9.83301 -6 -13.5s-8.66699 -6.16699 -14 -7.5
c-5.33301 -12.667 -9.5 -28.167 -12.5 -46.5s-5.16699 -35.5 -6.5 -51.5v-4l136 78l-1 -1c1.33301 1.33301 3 2 5 2c2.66699 0 4.66699 -1 6 -3s2 -3.66699 2 -5c0 -4 -1.66699 -6.33301 -5 -7h1zM-30.001 -0.999023c5.33301 6 9 13.167 11 21.5s3.66699 16.5 5 24.5
c-18 -10.667 -30.333 -20 -37 -28s-10 -15.667 -10 -23c0 -6.66699 2.66699 -10 8 -10c7.33301 0 15 5 23 15z" />
    <glyph glyph-name="t" unicode="t" horiz-adv-x="160" 
d="M154 512c1.33301 3.33301 7.33496 5 18.002 5c4 0 8 -0.833008 12 -2.5s6 -4.5 6 -8.5c0 -2.66699 -0.333008 -4.66699 -1 -6l-34 -66l44.5 2c15 0.666992 30.5 1.66699 46.5 3c4.66699 0 7 -2.33301 7 -7c0 -2.66699 -4.33301 -5 -13 -7s-18.834 -3.5 -30.501 -4.5
s-23.334 -1.66699 -35.001 -2s-20.834 -0.5 -27.501 -0.5l-48 -107l-46.5 -112c-14.333 -36 -26.166 -69 -35.499 -99s-14 -52.667 -14 -68c0 -5.33301 1 -8 3 -8c4.66699 0 11.334 3.16699 20.001 9.5s18.334 14.5 29.001 24.5s21.834 21.167 33.501 33.5l33.5 36.5
l18.5 20.5c5.66699 6.33301 11.167 12.166 16.5 17.499c1.33301 1.33301 3 2 5 2c2.66699 0 4.66699 -1 6 -3s2 -4 2 -6s-0.666992 -3.66699 -2 -5l-31 -32l-37.5 -40.5c-13.667 -14.333 -27.167 -27.5 -40.5 -39.5s-26.333 -21.833 -39 -29.5s-24 -11.5 -34 -11.5
c-14 0 -21 11.333 -21 34c0 15.333 3 34.666 9 57.999s14 47.333 24 72l3 7l21 54l25.5 63l28 66.5l27.5 62.5c-24.667 1.33301 -44.834 5.5 -60.501 12.5s-23.834 18.833 -24.501 35.5c0 4.66699 2 7 6 7c3.33301 0 5.66602 -2 6.99902 -6
c1.33301 -11.333 9.5 -19.166 24.5 -23.499s33.5 -7.16602 55.5 -8.49902c7.33301 15.333 14.5 29.5 21.5 42.5s14.167 25.167 21.5 36.5v-2z" />
    <glyph glyph-name="u" unicode="u" horiz-adv-x="293" 
d="M171 49c8.66699 7.33301 17.667 15.5039 27 24.5039l27.5 27l26 26.5l21.5 22c2.66699 3.33301 5.16699 6 7.5 8s4.5 4 6.5 6c2.66699 2 4.66699 4 6 6c2.66699 0 4.66699 -1 6 -3s2 -4 2 -6c0 -2.66699 -5.5 -10 -16.5 -22s-24.5 -25.667 -40.5 -41l-49.5 -45.5
c-17 -15 -31.5 -26.833 -43.5 -35.5l-8 -6c-6 -4.66699 -12 -8.83398 -18 -12.501s-12.333 -5.16699 -19 -4.5c-8 0.666992 -13.667 3.5 -17 8.5s-5 11.167 -5 18.5c0 9.33301 1.5 19.333 4.5 30s6.5 20.667 10.5 30l-23 -28.5c-8 -9.66699 -16.5 -18.5 -25.5 -26.5
s-18.333 -14.667 -28 -20s-19.5 -8 -29.5 -8c-11.333 0 -19.333 3.66699 -24 11s-7 17 -7 29c0 13.333 2.5 29.166 7.5 47.499s11 36.333 18 54s14 34 21 49l15.5 32.5c1.33301 2 3.83301 3.5 7.5 4.5s7.5 1.5 11.5 1.5c5.33301 0 10.166 -0.833008 14.499 -2.5
s5.83301 -4.83398 4.5 -9.50098c-4 -6.66699 -9.5 -17.667 -16.5 -33s-14 -31.833 -21 -49.5s-13.167 -35.167 -18.5 -52.5s-8 -31.333 -8 -42c0 -11.333 3.66699 -17 11 -17c12 0 25.833 8.33301 41.5 25s31 35.834 46 57.501s28.667 43 41 64l26.5 44.5l5 9
c1.33301 2.66699 3.83301 4.33398 7.5 5.00098s7.83398 1 12.501 1c5.33301 0 10 -0.833008 14 -2.5s5.33301 -4.83398 4 -9.50098l-23.5 -44c-9.66699 -18 -19 -36.5 -28 -55.5s-16.667 -36.833 -23 -53.5s-9.5 -29.334 -9.5 -38.001c0 -2.66699 0.666992 -4 2 -4
c2.66699 0 6.5 1.66699 11.5 5s10.833 7.66602 17.5 12.999z" />
    <glyph glyph-name="v" unicode="v" horiz-adv-x="314" 
d="M53 195l-16.499 -37l-18.5 -44.5c-6 -15 -11 -29.667 -15 -44s-6 -26.166 -6 -35.499c0 -12 4 -18 12 -18c8.66699 0 18.5 3.16699 29.5 9.5s22.5 14.666 34.5 24.999s23.667 21.666 35 33.999s21.666 24.5 30.999 36.5c-3.33301 5.33301 -5.83301 12 -7.5 20
s-2.5 15.667 -2.5 23c0 14 2 26.5 6 37.5s9 20.5 15 28.5s12.167 14 18.5 18s12.166 6 17.499 6c14.667 0 22 -9.66699 22 -29c0 -12 -4.33301 -27.333 -13 -46s-20.667 -38 -36 -58c12.667 -16 28.334 -24 47.001 -24c10 0 20 2.16699 30 6.5s19.333 10 28 17
s16.834 14.5 24.501 22.5s14.5 15.667 20.5 23c2 2 4 3 6 3c5.33301 0 8 -2.66699 8 -8c0 -3.33301 -2 -7.5 -6 -12.5s-8.5 -10.167 -13.5 -15.5s-10.333 -10.333 -16 -15s-9.83398 -8.33398 -12.501 -11.001c-20.667 -17.333 -43.667 -26 -69 -26c-10.667 0 -21 2 -31 6
s-18.667 10.667 -26 20c-11.333 -13.333 -23.333 -26.666 -36 -39.999s-25.667 -25.5 -39 -36.5s-26.833 -19.833 -40.5 -26.5s-27.167 -10 -40.5 -10c-12 0 -20.833 3.83301 -26.5 11.5s-8.5 17.834 -8.5 30.501c0 11.333 2 24.5 6 39.5s9 30.333 15 46
s12.333 30.667 19 45l18 37.5c0.666992 2 2 5 4 9s3.66699 6.66699 5 8c2.66699 4 8.66699 6 18 6c4.66699 0 9 -0.833008 13 -2.5s6 -5.16699 6 -10.5zM148.001 131l3 4c0 -2 0.666992 -3.66699 2 -5zM146.001 163c0 -4.66699 0.332031 -9.33008 0.999023 -13.9971
s2 -9.33398 4 -14.001c12 18 22.167 35.167 30.5 51.5s12.5 29.166 12.5 38.499c0 8.66699 -3 13 -9 13c-7.33301 0 -15.666 -6.83301 -24.999 -20.5s-14 -31.834 -14 -54.501z" />
    <glyph glyph-name="w" unicode="w" horiz-adv-x="454" 
d="M347 96c21.333 0 40.3369 7.33398 57.0039 22.001s31.334 30.667 44.001 48c2 2 3.66699 3 5 3c2 0 4 -0.666992 6 -2s3 -3.33301 3 -6s-1.83301 -6.33398 -5.5 -11.001s-8.16699 -9.66699 -13.5 -15l-16.5 -16c-5.66699 -5.33301 -10.167 -9.33301 -13.5 -12
c-10.667 -8.66699 -21.167 -15.334 -31.5 -20.001s-21.833 -7 -34.5 -7c-14 0 -25.833 2.66699 -35.5 8s-17.5 11.666 -23.5 18.999c-8.66699 -11.333 -19.167 -23.5 -31.5 -36.5s-25.5 -25.167 -39.5 -36.5s-28.167 -20.833 -42.5 -28.5s-28.166 -11.5 -41.499 -11.5
c-14 0 -23.5 4.5 -28.5 13.5s-7.5 19.167 -7.5 30.5c0 3.33301 -0.166992 5 -0.5 5s-0.166016 1.33301 0.500977 4c-15.333 -14 -32 -26.333 -50 -37s-35.667 -16 -53 -16c-12.667 0 -21.667 3.83301 -27 11.5s-8 17.834 -8 30.501c0 17.333 4.16699 38.166 12.5 62.499
s17.166 46.5 26.499 66.5l26 55c0.666992 2 3 3.33301 7 4s8.33301 1 13 1c5.33301 0 9.83301 -0.666992 13.5 -2s5.5 -4.66602 5.5 -9.99902l-9 -17l-19 -40c-6.66699 -14 -12.834 -28 -18.501 -42s-10.334 -27.5 -14.001 -40.5s-5.5 -24.833 -5.5 -35.5
c0 -8 1.33301 -13.5 4 -16.5s6.33398 -4.5 11.001 -4.5c7.33301 0 16.166 2.83301 26.499 8.5s20.166 12 29.499 19s17.333 13.833 24 20.5s10.334 11 11.001 13c3.33301 12 8.33301 26.333 15 43s14 32.834 22 48.501s16.167 28.834 24.5 39.501s15.833 16 22.5 16
c7.33301 0 12.333 -2.33301 15 -7s4 -9 4 -13c0 -6 -1.83301 -13 -5.5 -21s-8.16699 -16.333 -13.5 -25s-10.833 -17.167 -16.5 -25.5s-10.834 -15.5 -15.501 -21.5l-12 -19l1 1c-2 -7.33301 -4.16699 -16 -6.5 -26s-3.5 -19.667 -3.5 -29
c0 -6.66699 0.833008 -12.834 2.5 -18.501s5.16699 -8.5 10.5 -8.5c4.66699 0 10.667 1.83301 18 5.5s14.833 8 22.5 13s15 10.5 22 16.5l17.5 15c8 8 16.833 17.5 26.5 28.5s18.167 21.167 25.5 30.5c-3.33301 5.33301 -6 12 -8 20s-3 15.667 -3 23
c0 11.333 1.66699 22.333 5 33s7.5 20 12.5 28s10.833 14.5 17.5 19.5s13.667 7.5 21 7.5s13.166 -2.16699 17.499 -6.5s6.5 -11.166 6.5 -20.499c0 -8 -2 -17 -6 -27s-8.83301 -20.167 -14.5 -30.5s-11.334 -19.833 -17.001 -28.5s-10.5 -15.334 -14.5 -20.001
c5.33301 -6.66699 12.166 -12 20.499 -16s18.5 -6.33301 30.5 -7zM293.004 140.001l12 19.501c4.66699 7.66699 9 15.334 13 23.001s7.33301 15.167 10 22.5s4 13.666 4 18.999c0 8.66699 -2.66699 13 -8 13c-7.33301 0 -15.833 -6.83301 -25.5 -20.5
s-14.5 -30.834 -14.5 -51.501c0 -10.667 2 -21 6 -31zM149.004 128.002c2 2.66699 4.33301 5.33301 7 8s5 6 7 10l-9 -21z" />
    <glyph glyph-name="x" unicode="x" horiz-adv-x="367" 
d="M362 166c2 2 3.66113 2.99902 4.99414 2.99902s3 -0.833008 5 -2.5s3 -3.16699 3 -4.5c0 -2 -0.333008 -3.33301 -1 -4c-16 -28 -33.5 -52.333 -52.5 -73s-38.167 -37.834 -57.5 -51.501s-38.333 -23.667 -57 -30s-36 -9.5 -52 -9.5c-20 0 -36.5 4.5 -49.5 13.5
s-20.167 23.167 -21.5 42.5c-15.333 -15.333 -32.166 -28.5 -50.499 -39.5s-36.166 -16.5 -53.499 -16.5c-14 0 -26.667 4.66699 -38 14s-20.333 25.333 -27 48c0 5.33301 2.66699 8 8 8c2.66699 0 5 -1.66699 7 -5c5.33301 -17.333 11.333 -29.333 18 -36
s14.334 -10 23.001 -10c10 0 20.833 4 32.5 12s23.5 17.333 35.5 28c15.333 14 28.666 28.667 39.999 44s20.666 30.5 27.999 45.5s12.833 29.5 16.5 43.5s5.5 26.333 5.5 37c0 9.33301 -1.66699 17 -5 23s-8 9 -14 9c-9.33301 0 -23.666 -8.5 -42.999 -25.5
s-37.666 -40.833 -54.999 -71.5c-2.66699 -2.66699 -5 -4 -7 -4c-1.33301 0 -3 0.666992 -5 2s-3 3 -3 5s0.666992 3.66699 2 5l-1 -1c21.333 39.333 42.666 67.5 63.999 84.5s40.333 25.5 57 25.5c12.667 0 23.5 -4 32.5 -12s15.167 -19 18.5 -33
c15.333 16.667 30.333 28.167 45 34.5s28.334 9.5 41.001 9.5c17.333 0 31.333 -5.16699 42 -15.5s16 -22.833 16 -37.5c0 -2 -0.5 -5.16699 -1.5 -9.5s-2.33301 -8.83301 -4 -13.5s-3.66699 -8.66699 -6 -12s-5.16602 -5 -8.49902 -5c-5.33301 0 -8 2.66699 -8 8
c0 4.66699 1.66699 10.334 5 17.001l4 8c1.33301 2.66699 2 5.33398 2 8.00098c0 7.33301 -2.16699 14.166 -6.5 20.499s-11.166 9.5 -20.499 9.5c-7.33301 0 -15 -1.83301 -23 -5.5s-15.833 -8.16699 -23.5 -13.5s-14.667 -11 -21 -17s-11.166 -11.333 -14.499 -16
c-21.333 -26.667 -37 -51.834 -47 -75.501s-15 -44.167 -15 -61.5c0 -14.667 3.83301 -26.167 11.5 -34.5s18.834 -12.5 33.501 -12.5c21.333 0 41.166 4.66699 59.499 14s35.5 21.333 51.5 36s30.5 30.834 43.5 48.501s24.833 34.834 35.5 51.501h1z" />
    <glyph glyph-name="y" unicode="y" horiz-adv-x="332" 
d="M109 26l39 98.9961c-30 -46 -57.833 -79.5 -83.5 -100.5s-46.834 -31.5 -63.501 -31.5c-24.667 0 -37 17 -37 51c0 15.333 2.66699 32.833 8 52.5s13.666 41.834 24.999 66.501c1.33301 2.66699 2.33301 4.83398 3 6.50098l3 7.5c4 10.667 9.33301 21.5 16 32.5
s16 16.5 28 16.5c5.33301 0 9.66602 -1 12.999 -3s5 -5.33301 5 -10c-4 -6.66699 -9.5 -17.167 -16.5 -31.5s-14 -30 -21 -47s-13 -34.167 -18 -51.5s-7.5 -32 -7.5 -44c0 -6.66699 0.833008 -12.334 2.5 -17.001s4.83398 -7 9.50098 -7c8.66699 0 19.5 5.33301 32.5 16
s27 25.334 42 44.001s30.5 40.5 46.5 65.5s32 51.5 48 79.5c2 4.66699 6.33301 7 13 7c5.33301 0 10.5 -1.16699 15.5 -3.5s8.5 -4.83301 10.5 -7.5v-3c-7.33301 -17.333 -14.666 -35.666 -21.999 -54.999l-22 -59l-17 -48l-4 -9l170 124c1.33301 1.33301 3 2 5 2
c4.66699 0 7 -2.66699 7 -8c0 -2.66699 -0.666992 -4.66699 -2 -6l-190 -139c-3.33301 -5.33301 -7.83301 -15.666 -13.5 -30.999l-19.5 -52l-39 -105.5c-14.667 -39 -31.167 -75.833 -49.5 -110.5s-38.333 -63.667 -60 -87s-44.5 -35 -68.5 -35
c-15.333 0 -27.833 5.66699 -37.5 17s-14.5 28 -14.5 50c0 28.667 6.66699 57.167 20 85.5s31.5 56.5 54.5 84.5s49.833 55.833 80.5 83.5s63.334 55.167 98.001 82.5zM-77 -365.004c15.333 13.333 30.499 32.5 45.499 57.5s29.333 52.5 43 82.5s26.667 61.167 39 93.5
l34.5 90.5c2 2.66699 3.33301 6.66699 4 12c-32 -26 -62 -52 -90 -78s-52.167 -52.167 -72.5 -78.5s-36.333 -52.666 -48 -78.999s-17.5 -52.5 -17.5 -78.5c0 -14.667 2.33301 -25.334 7 -32.001s10.334 -10 17.001 -10c6 0 12.167 1.83301 18.5 5.5s12.833 8.5 19.5 14.5z
" />
    <glyph glyph-name="z" unicode="z" horiz-adv-x="394" 
d="M389 166c2 2 3.66992 2.99805 5.00293 2.99805c6 0 8.66699 -3.33301 8 -10c-17.333 -35.333 -34.666 -64.166 -51.999 -86.499s-35 -40.166 -53 -53.499s-35.833 -22.5 -53.5 -27.5s-35.167 -7.5 -52.5 -7.5c-19.333 0 -37.5 2 -54.5 6s-33.5 8.33301 -49.5 13l-22 7
c-9.33301 -8.66699 -17.833 -14.667 -25.5 -18s-14.5 -5 -20.5 -5c-7.33301 0 -12.833 2 -16.5 6s-5.5 8.66699 -5.5 14s2.83301 11 8.5 17s14.5 9 26.5 9c0.666992 0 1.16699 -0.166992 1.5 -0.5s1.16602 -0.5 2.49902 -0.5h4l40 38.5l44 44.5l44.5 45.5
c14.333 14.333 28.166 27.5 41.499 39.5c-0.666992 0 -1.33398 0.166992 -2.00098 0.5s-1.33398 0.5 -2.00098 0.5c-15.333 3.33301 -32.166 6.33301 -50.499 9s-36.5 4 -54.5 4c-21.333 0 -40.5 -3.66699 -57.5 -11s-27.167 -21.333 -30.5 -42
c-2 -3.33301 -4.66699 -5 -8 -5c-4.66699 0 -7 2.66699 -7 8c4.66699 25.333 16.834 42.666 36.501 51.999s41.834 14 66.501 14c21.333 0 43.166 -2 65.499 -6s41.5 -8 57.5 -12c7.33301 6.66699 14 11.167 20 13.5s11.667 3.5 17 3.5c7.33301 0 12.666 -1.66699 15.999 -5
s5 -7.66602 5 -12.999s-2.83301 -9.83301 -8.5 -13.5s-13.5 -5.83398 -23.5 -6.50098c-12.667 -11.333 -25.834 -24.166 -39.501 -38.499l-42.5 -43.5c-15.333 -16.667 -30.333 -32.167 -45 -46.5s-29 -27.5 -43 -39.5l4 -2c1.33301 -0.666992 2.66602 -1 3.99902 -1
c16 -4.66699 32.333 -9 49 -13s33.667 -6 51 -6c16 0 32.333 2.5 49 7.5s33.5 13.667 50.5 26s33.833 29 50.5 50s33.334 47.833 50.001 80.5zM261.003 208.998c1.33301 0 2.16699 0.167969 2.5 0.500977s0.833008 0.5 1.5 0.5s1 0.333008 1 1
c3.33301 1.33301 5 0.666016 5 -2.00098c0 -2 -1.66699 -3.33301 -5 -4c-0.666992 0 -1 -0.166992 -1 -0.5s-0.333008 -0.5 -1 -0.5h-1zM26.0039 16.999c-2 0 -4.33301 -0.666992 -7 -2l9 7l2 -5h-4z" />
    <glyph glyph-name="braceleft" unicode="{" horiz-adv-x="228" 
d="M74 16c4 -2.66699 5.99902 -5.33398 5.99902 -8.00098c0 -4.66699 -2 -7.33398 -6 -8.00098s-7.66699 -1 -11 -1c-13.333 0 -22.833 2.66699 -28.5 8s-8.5 12.333 -8.5 21c0 13.333 4.16699 27.5 12.5 42.5l22.5 39.5v-1l5 8l7 13l13 22.5c5.33301 9 9 16.5 11 22.5
c-3.33301 -3.33301 -8.33301 -5 -15 -5c-10 0 -15 4.33301 -15 13c0 6 2.5 10.667 7.5 14s10.167 5 15.5 5c1.33301 0 2 -0.166992 2 -0.5s1 -0.5 3 -0.5l12 31c4.66699 14 10.334 28.833 17.001 44.5s14.167 30 22.5 43s17.666 23.833 27.999 32.5s22.166 13 35.499 13
c3.33301 0 7.83301 -1 13.5 -3s8.5 -5 8.5 -9c0 -4.66699 -2.33301 -7 -7 -7c-2 0 -3.33301 0.333008 -4 1c-8.66699 -1.33301 -16.667 -5.33301 -24 -12s-14.166 -15 -20.499 -25s-12 -21 -17 -33l-14.5 -34l-13 -31c-4 -9.33301 -8 -16.666 -12 -21.999
c3.33301 -4.66699 5 -9.66699 5 -15c0 -9.33301 -2.83301 -19.666 -8.5 -30.999s-11.167 -21.333 -16.5 -30l-7 -11l-3 -5h1c-5.33301 -8 -11.666 -18.5 -18.999 -31.5s-11 -24.5 -11 -34.5c0 -8 4.33301 -13.333 13 -16zM81.999 184v-1v1zM81.999 184
c1.33301 0 2.33301 0.333008 3 1c-0.666992 -0.666992 -1.66699 -1 -3 -1zM91.999 186c-1.33301 0 -2.50098 -0.166992 -3.50098 -0.5s-2.16699 -0.5 -3.5 -0.5c0.666992 0 1.66699 1 3 3c0 0.666992 0.666992 1.66699 2 3c0.666992 0.666992 1.33398 1 2.00098 1v-6z" />
    <glyph glyph-name="bar" unicode="|" horiz-adv-x="147" 
d="M65 364c0 4.66699 1.33301 8 4 10s5.33398 3 8.00098 3c3.33301 0 6.33301 -1 9 -3s4 -5.33301 4 -10v-354c0 -4.66699 -1.33301 -8 -4 -10s-5.66699 -3 -9 -3c-2.66699 0 -5.33398 1 -8.00098 3s-4 5.33301 -4 10v354z" />
    <glyph glyph-name="braceright" unicode="}" horiz-adv-x="226" 
d="M153 353c-2.66699 0 -4.50195 1.00195 -5.50195 3.00195s-1.5 3.66699 -1.5 5c0 4 1.66699 6.33301 5 7s7.33301 1 12 1c13.333 0 22.833 -2.5 28.5 -7.5s8.5 -12.167 8.5 -21.5c0 -12.667 -4 -26.167 -12 -40.5s-15.333 -26.833 -22 -37.5h-1l-6 -9
c-0.666992 -0.666992 -1 -1.33398 -1 -2.00098v-2c-3.33301 -6.66699 -8.5 -15.834 -15.5 -27.501s-11.5 -21.167 -13.5 -28.5c4.66699 4 9.66699 6 15 6c10 0 15 -4.66699 15 -14c0 -5.33301 -2.66699 -9.66602 -8 -12.999s-10.666 -5 -15.999 -5
c-1.33301 0 -2 -0.166992 -2 -0.5s-0.666992 -0.166016 -2 0.500977l-12 -29l-18 -45c-6.66699 -16 -14.167 -30.5 -22.5 -43.5s-17.666 -23.833 -27.999 -32.5s-21.833 -13 -34.5 -13c-3.33301 0 -7.83301 0.833008 -13.5 2.5s-8.5 4.5 -8.5 8.5c0 2 0.666992 4 2 6
s3.33301 3 6 3c1.33301 0 2.33301 -0.333008 3 -1c8.66699 0.666992 16.667 4.5 24 11.5s14.166 15.667 20.499 26s12.166 21.333 17.499 33s10.333 23.167 15 34.5l12.5 30c3.66699 8.66699 7.5 15 11.5 19c-3.33301 4.66699 -5 10 -5 16c0 11.333 3.33301 23.5 10 36.5
s12.667 23.5 18 31.5l4 5c1.33301 1.33301 2.33301 3.16602 3 5.49902s1.33398 4.16602 2.00098 5.49902c4.66699 7.33301 10.334 16.833 17.001 28.5s10 22.167 10 31.5c0 8 -4 13.333 -12 16zM134.998 182.002c4.66699 0 6.66699 1.33398 6 4.00098l3 -2
c-1.33301 0 -2.5 -0.833008 -3.5 -2.5s-1.83301 -2.83398 -2.5 -3.50098z" />
    <glyph glyph-name="asciitilde" unicode="~" horiz-adv-x="338" 
d="M56 253c-2.66699 -2.66699 -5 -3.99902 -7 -3.99902c-4.66699 0 -7 3.33301 -7 10c7.33301 16 16.833 26.667 28.5 32s24.167 8 37.5 8c9.33301 0 18.666 -0.833008 27.999 -2.5s18.666 -3.16699 27.999 -4.5c9.33301 -2 18.666 -3.66699 27.999 -5s18.333 -2 27 -2
c11.333 0 21.333 2 30 6s15.667 11 21 21c3.33301 3.33301 6.33301 5 9 5c4 0 6 -2.33301 6 -7c0 -11.333 -2.16699 -20.5 -6.5 -27.5s-9.66602 -12.667 -15.999 -17s-13.5 -7.33301 -21.5 -9s-15.667 -2.5 -23 -2.5c-9.33301 0 -19.166 0.833008 -29.499 2.5
s-20.833 3.5 -31.5 5.5l-30 6c-10 2 -19.333 3 -28 3c-9.33301 0 -17.666 -1.33301 -24.999 -4s-13.333 -7.33398 -18 -14.001z" />
    <glyph glyph-name="acute" unicode="&#xb4;" horiz-adv-x="171" 
d="M122 294c-1.33301 -16.667 -6.66602 -27.335 -15.999 -32.002s-18.333 -7.66699 -27 -9c-4.66699 -1.33301 -9 -2.33301 -13 -3s-6.33301 -2.66699 -7 -6c-2.66699 -4 -5.33398 -6 -8.00098 -6c-5.33301 0 -8 2.66699 -8 8c0 20.667 7 35.334 21 44.001s30.667 13 50 13
c3.33301 0 5.5 -1.16699 6.5 -3.5s1.5 -4.16602 1.5 -5.49902z" />
    <glyph glyph-name="circumflex" unicode="&#x2c6;" horiz-adv-x="628" 
 />
    <glyph glyph-name="tilde" unicode="&#x2dc;" horiz-adv-x="365" 
d="M80 248c-2 -2 -4.66504 -3 -7.99805 -3c-4 0 -6 3.33301 -6 10c6.66699 19.333 15.667 32.333 27 39s23.666 10 36.999 10c9.33301 0 18.333 -1 27 -3l27 -6c9.33301 -2 18.666 -3.83301 27.999 -5.5s18 -2.5 26 -2.5c10.667 0 20.334 2.16699 29.001 6.5
s15.667 13.5 21 27.5c3.33301 3.33301 5.66602 5 6.99902 5c4 0 6.66699 -2.66699 8 -8c-3.33301 -27.333 -10.833 -45.5 -22.5 -54.5s-25.5 -13.5 -41.5 -13.5c-9.33301 0 -19.166 1 -29.499 3s-20.5 4.33301 -30.5 7s-20 5.16699 -30 7.5s-19 3.5 -27 3.5
c-9.33301 0 -17.333 -1.5 -24 -4.5s-12.334 -8.83301 -17.001 -17.5z" />
    <glyph glyph-name="quoteleft" unicode="&#x2018;" horiz-adv-x="151" 
d="M60 145c-4.66699 0 -7.00098 2.33203 -7.00098 6.99902c0.666992 0.666992 1.33398 1.66699 2.00098 3s1.33398 2.33301 2.00098 3l3 3c3.33301 4 7 8 11 12s6.66699 8.66699 8 14c-7.33301 0.666992 -12.666 3.5 -15.999 8.5s-5 10.5 -5 16.5s2.16699 11.833 6.5 17.5
s11.166 8.5 20.499 8.5c7.33301 0 12.833 -2.83301 16.5 -8.5s5.5 -12.5 5.5 -20.5c0 -6.66699 -1.33301 -13.667 -4 -21s-6.33398 -14.166 -11.001 -20.499s-9.66699 -11.5 -15 -15.5s-10.333 -6.33301 -15 -7h-2z" />
    <glyph glyph-name="fraction" unicode="&#x2044;" horiz-adv-x="237" 
d="M67 7c-1.33301 -3.33301 -3 -5.5 -5 -6.5s-4.33301 -1.5 -7 -1.5c-8.66699 0 -13 4 -13 12c0 2 0.333008 3.66699 1 5l62 174.5l62 174.5c2.66699 5.33301 6.66699 8 12 8c8 0 12 -5.33301 12 -16z" />
    <glyph glyph-name="a.001" unicode="&#xe000;" horiz-adv-x="281" 
d="M566 266c1.33301 -1.33301 2.00098 -3.00195 2.00098 -5.00195c0 -4.66699 -2.33301 -7 -7 -7c-2 0 -5.66699 1.33301 -11 4l-10.5 6c-3.66699 2 -7.83398 3 -12.501 3c-17.333 0 -38.833 -6.66699 -64.5 -20s-52.834 -30 -81.501 -50s-57.834 -42 -87.501 -66l-83.5 -69
l-49 -40c-11.333 -9.33301 -21.666 -16.666 -30.999 -21.999s-17.666 -8 -24.999 -8c-6.66699 0 -12.167 2.66699 -16.5 8s-6.5 13 -6.5 23c0 4.66699 0.333008 8.33398 1 11.001c-17.333 -12.667 -34 -22.667 -50 -30s-29 -11 -39 -11c-14.667 0 -25.167 5 -31.5 15
s-9.5 23 -9.5 39s3.5 34 10.5 54s16.667 38.833 29 56.5s27 32.334 44 44.001s35.833 17.5 56.5 17.5c9.33301 0 18.833 -1.33301 28.5 -4s19.167 -7 28.5 -13c1.33301 2 2.5 4.16699 3.5 6.5s1.83301 4.5 2.5 6.5c0.666992 1.33301 3.16699 2.66602 7.5 3.99902
s8.83301 2 13.5 2c5.33301 0 9.5 -0.5 12.5 -1.5s4.5 -3.83301 4.5 -8.5c0 -2 -0.666992 -4.33301 -2 -7c-6 -10.667 -13 -24 -21 -40s-15.667 -32.5 -23 -49.5s-13.5 -33.667 -18.5 -50s-7.5 -30.166 -7.5 -41.499c0 -4 0.666992 -6 2 -6c5.33301 0 15 6 29 18l64 54
l78.5 67c27.667 23.333 55 44.666 82 63.999s52.833 35.333 77.5 48s46.667 19 66 19c18.667 0 33.667 -7 45 -21zM16.001 17.998c7.33301 0 16.999 3.16895 28.999 9.50195s26.333 16.833 43 31.5c4.66699 14.667 11.334 32.667 20.001 54s20 45.333 34 72
c-12 5.33301 -23 8 -33 8c-16 0 -31 -5 -45 -15s-26.167 -22.333 -36.5 -37s-18.5 -30.334 -24.5 -47.001s-9 -31.334 -9 -44.001c0 -9.33301 1.66699 -17 5 -23s9 -9 17 -9z" />
    <glyph glyph-name="b.001" unicode="&#xe001;" 
d="M4 388c0 2.66699 1 4.66699 3 6s3.66699 2 5 2c5.33301 0 8 -2.33301 8 -7c1.33301 -15.333 5.5 -29.833 12.5 -43.5s19.167 -22.834 36.5 -27.501c14 28.667 29.333 58.167 46 88.5s34 57.666 52 81.999s36.833 44.333 56.5 60s39.5 23.5 59.5 23.5
c14 0 24.667 -5 32 -15s11 -22.667 11 -38c0 -14.667 -3.5 -31.167 -10.5 -49.5s-17.5 -36.666 -31.5 -54.999s-31.5 -36.166 -52.5 -53.499s-45.5 -32.333 -73.5 -45c-8.66699 -3.33301 -17.667 -6.5 -27 -9.5s-18.666 -4.83301 -27.999 -5.5l-45 -97
c13.333 6 25.666 10.167 36.999 12.5s21.666 3.5 30.999 3.5c22.667 0 39.334 -6.16699 50.001 -18.5s16 -28.166 16 -47.499c0 -9.33301 -1.5 -20.166 -4.5 -32.499s-6.83301 -23.5 -11.5 -33.5c24 6 47.5 15.167 70.5 27.5s42.5 29.5 58.5 51.5c2 2 4 3 6 3
c1.33301 0 3 -0.666992 5 -2s3 -3.33301 3 -6c0 -2 -0.666992 -3.66699 -2 -5c-20.667 -25.333 -44.5 -45 -71.5 -59s-54.167 -24 -81.5 -30c-14 -20 -32.5 -37.5 -55.5 -52.5s-49.5 -22.5 -79.5 -22.5c-22.667 0 -34 8.33301 -34 25c0 9.33301 3.66699 17.333 11 24
s17 12.167 29 16.5s25.833 8 41.5 11s31.834 5.5 48.501 7.5c7.33301 10.667 13.666 23 18.999 37s8 27.667 8 41c0 17.333 -4.16699 29.333 -12.5 36s-17.166 10 -26.499 10s-19.5 -2 -30.5 -6s-19.833 -7.66699 -26.5 -11
c-1.33301 -0.666992 -2.83301 -1.33398 -4.5 -2.00098s-2.83398 -1 -3.50098 -1l-43.5 -91l-43.5 -91c-2.66699 -4.66699 -10 -7 -22 -7c-5.33301 0 -10 0.833008 -14 2.5s-5.33301 5.16699 -4 10.5l116 245l26 53c-20 5.33301 -34.333 15.666 -43 30.999s-14 33.333 -16 54
zM62 22c10 4.66699 19.001 10.001 27.001 16.001s15.667 13 23 21c-12.667 -2 -25 -4.16699 -37 -6.5s-22.833 -4.83301 -32.5 -7.5s-17.334 -6 -23.001 -10s-8.5 -8.33301 -8.5 -13c0 -6 5.33301 -9 16 -9c4 0 9 0.666992 15 2s12.667 3.66602 20 6.99902zM251.001 527.001
c-14 -11.333 -27.667 -25.668 -41 -43.001s-26 -35.5 -38 -54.5s-23.167 -38.333 -33.5 -58l-27.5 -53.5c29.333 5.33301 56.166 15.833 80.499 31.5s45.333 33.334 63 53.001s31.334 39.667 41.001 60s14.5 37.833 14.5 52.5c0 20 -7 30 -21 30c-11.333 0 -24 -6 -38 -18z
" />
    <glyph glyph-name="c.001" unicode="&#xe002;" horiz-adv-x="217" 
d="M498 268c1.33301 -1.33301 2.00195 -2.99805 2.00195 -4.99805c0 -4.66699 -2.33301 -7 -7 -7s-7.33398 0.666992 -8.00098 2s-2.33398 2.66602 -5.00098 3.99902c-3.33301 2.66699 -7.16602 5.16699 -11.499 7.5s-8.5 3.5 -12.5 3.5c-12 0 -26.333 -4 -43 -12
s-34.5 -18.5 -53.5 -31.5s-38.833 -27.667 -59.5 -44l-62 -48.5l-66.5 -53c-22.333 -17.333 -44 -32.833 -65 -46.5s-40.5 -24.667 -58.5 -33s-34 -12.5 -48 -12.5c-14.667 0 -26.834 4.83301 -36.501 14.5s-14.5 23.167 -14.5 40.5c0 16.667 4.33301 35.5 13 56.5
s20 40.667 34 59s29.5 33.666 46.5 45.999s33.5 18.5 49.5 18.5c13.333 0 22.666 -3.5 27.999 -10.5s8 -15.5 8 -25.5c0 -3.33301 -0.666992 -8 -2 -14s-3 -12 -5 -18s-4.5 -11.167 -7.5 -15.5s-6.16699 -6.5 -9.5 -6.5c-1.33301 0 -3 0.666992 -5 2s-3 3 -3 5
s0.666992 3.66699 2 5h-1c10 15.333 15 29.666 15 42.999c0 4 -0.833008 7.5 -2.5 10.5s-4.5 4.5 -8.5 4.5c-11.333 0 -23.333 -5.83301 -36 -17.5s-24.667 -26 -36 -43s-20.666 -34.833 -27.999 -53.5s-11 -35 -11 -49c0 -9.33301 1.83301 -16.666 5.5 -21.999
s10.167 -8 19.5 -8c3.33301 0 8.66602 1.16699 15.999 3.5l20 6.5c12.667 5.33301 26.5 12.833 41.5 22.5s30.5 20.5 46.5 32.5l48 37.5l47 39.5l57.5 48c19.667 16 38.834 30.5 57.501 43.5s36.5 23.667 53.5 32s32.167 12.5 45.5 12.5c19.333 0 36 -8 50 -24z" />
    <glyph glyph-name="d.001" unicode="&#xe003;" horiz-adv-x="299" 
d="M295 167c2 2 3.66895 2.99707 5.00195 2.99707c2 0 4 -1.16699 6 -3.5s2.66699 -5.16602 2 -8.49902l-34.5 -40.5c-15.667 -18.333 -32.667 -36.666 -51 -54.999s-36.5 -34.5 -54.5 -48.5s-33 -21 -45 -21c-7.33301 0 -12.5 2.83301 -15.5 8.5s-4.5 12.834 -4.5 21.501v7
c0 2.66699 0.333008 5 1 7c-30.667 -24.667 -58 -37 -82 -37c-18.667 -0 -33.334 6.33301 -44.001 19s-16 29.334 -16 50.001c0 14.667 3.66699 31.334 11 50.001s17.333 36.167 30 52.5s27.667 30 45 41s36 16.5 56 16.5c10.667 0 21.5 -1.83301 32.5 -5.5
s20.167 -9.16699 27.5 -16.5c4.66699 11.333 9.83398 23 15.501 35l16.5 35l13 26c-18 5.33301 -32 15.833 -42 31.5s-15 33.834 -15 54.501c0 4.66699 2.66699 7 8 7c4 0 6.66699 -2 8 -6c1.33301 -16.667 6.16602 -31.834 14.499 -45.501s19.5 -22.834 33.5 -27.501
l44 84.5c16 29.667 33 56.834 51 81.501s37.167 45.167 57.5 61.5s41.166 24.5 62.499 24.5c15.333 0 26.666 -5 33.999 -15s11 -22.667 11 -38c0 -16.667 -4.66699 -36.834 -14 -60.501s-23.5 -46.5 -42.5 -68.5s-42.667 -41.333 -71 -58s-61.166 -26 -98.499 -28l-5 -11
l-28.5 -60.5c-11.667 -25 -23 -50.833 -34 -77.5s-20.5 -51.834 -28.5 -75.501s-12 -41.834 -12 -54.501c0 -3.33301 0.333008 -5 1 -5c5.33301 0 14.333 5.33301 27 16s26.5 23.834 41.5 39.501l45 49c15 17 27.833 32.167 38.5 45.5zM109.002 59.9971
c0.666992 0.666992 1.33301 1 2 1s1 0.333008 1 1zM109.001 59.9971c5.33301 19.333 12.333 40.998 21 64.998s17.667 46 27 66c-12 12 -25.333 18 -40 18s-29 -5.16699 -43 -15.5s-26.5 -23.166 -37.5 -38.499s-19.833 -31.833 -26.5 -49.5s-10 -33.5 -10 -47.5
c0 -10.667 2.5 -20 7.5 -28s13.167 -12 24.5 -12c12 0 24.5 4.33301 37.5 13s23.167 16.334 30.5 23.001zM384.001 513.995c-12.667 -12 -25.002 -26.3291 -37.002 -42.9961s-23.5 -33.834 -34.5 -51.501s-21.167 -35.334 -30.5 -53.001s-17.333 -33.834 -24 -48.501
c24 2.66699 47.833 10 71.5 22s44.834 27.167 63.501 45.5s33.834 38.666 45.501 60.999s17.5 45.5 17.5 69.5c0 18.667 -6.66699 28 -20 28c-14.667 0 -32 -10 -52 -30z" />
    <glyph glyph-name="e.001" unicode="&#xe004;" horiz-adv-x="219" 
d="M501 268c1.33301 -1.33301 1.99609 -3 1.99609 -5c0 -4.66699 -2.33301 -7 -7 -7c-3.33301 0 -7.66602 1.66699 -12.999 5h1c-3.33301 2 -7.16602 4.16699 -11.499 6.5s-8.16602 3.5 -11.499 3.5c-11.333 0 -25.333 -4 -42 -12s-34.5 -18.5 -53.5 -31.5
s-38.833 -27.333 -59.5 -43l-61 -47.5l-51.5 -40.5l-52 -38.5c-17 -12 -33.167 -22.833 -48.5 -32.5s-29 -16.834 -41 -21.501c-18 -7.33301 -34.333 -11 -49 -11s-26.834 4 -36.501 12s-14.5 21.667 -14.5 41c0 18 4 37.5 12 58.5s18.667 40.333 32 58s28.5 32.5 45.5 44.5
s34.833 18 53.5 18c8 0 14.833 -1.66699 20.5 -5s8.5 -9.66602 8.5 -18.999c0 -7.33301 -2.33301 -15.666 -7 -24.999s-12 -18.666 -22 -27.999s-22.333 -18 -37 -26s-32 -14 -52 -18c-4 -9.33301 -7.5 -19.333 -10.5 -30s-4.5 -20.334 -4.5 -29.001c0 -9.33301 2 -17 6 -23
s10.667 -9 20 -9c8 0 17.667 2.33301 29 7c26 10 54.5 27 85.5 51s62.5 50 94.5 78l62.5 52.5c21 17 41.333 32.167 61 45.5s38.334 24.166 56.001 32.499s33.834 12.5 48.501 12.5c19.333 0 35 -8 47 -24zM68.9961 191c-10.667 -8 -20.501 -18.168 -29.501 -30.501
s-17.167 -25.166 -24.5 -38.499c30.667 8 53.834 19.833 69.501 35.5s23.5 29.167 23.5 40.5c0 4 -2.33301 6 -7 6s-10 -1.33301 -16 -4s-11.333 -5.66699 -16 -9z" />
    <glyph glyph-name="f.001" unicode="&#xe005;" horiz-adv-x="163" 
d="M163 168c6 0 8.99902 -2.66992 8.99902 -8.00293c0 -2.66699 -3.33301 -6.66699 -10 -12s-15.667 -13 -27 -23l-38 -32.5l-43.5 -39.5c-15 -14 -30 -28.833 -45 -44.5s-28.833 -31.5 -41.5 -47.5l1 1l-18.5 -61.5l-16.5 -55.5
c-19.333 -65.333 -35.666 -113.666 -48.999 -144.999s-30.666 -47 -51.999 -47c-10.667 0 -19.334 4.83301 -26.001 14.5s-10 23.167 -10 40.5c0 14.667 3.16699 30.667 9.5 48s15 35.333 26 54s24 38 39 58s30.833 40 47.5 60l-1 -1c15.333 42 28.5 80.667 39.5 116
l32.5 103c8.66699 25.333 16.667 49.833 24 73.5s15.666 48.167 24.999 73.5c-17.333 4.66699 -32.5 14.334 -45.5 29.001s-19.5 32 -19.5 52c0 4.66699 2.33301 7 7 7s7.66699 -2 9 -6c3.33301 -17.333 9.33301 -32 18 -44s20.667 -19.667 36 -23
c8.66699 24.667 19.334 52.834 32.001 84.501s27 61.334 43 89.001s33.333 51 52 70s38.667 28.5 60 28.5c15.333 0 27.333 -6.33301 36 -19s13 -29 13 -49c0 -16 -4.5 -35.5 -13.5 -58.5s-22.167 -45.5 -39.5 -67.5s-38.5 -41.833 -63.5 -59.5s-53.5 -28.834 -85.5 -33.501
l-49 -147l-49 -147l57 57.5l52 49.5l42.5 38c12.333 10.667 22.5 18.667 30.5 24h2zM173.999 502.997c-9.33301 -14 -18.332 -29.333 -26.999 -46s-16.834 -33.5 -24.501 -50.5s-14.667 -33.667 -21 -50l-17.5 -45.5c26.667 5.33301 51 15.333 73 30s41 31.667 57 51
s28.333 39.666 37 60.999s13 41.333 13 60c0 12.667 -2.16699 23.167 -6.5 31.5s-10.833 12.5 -19.5 12.5c-7.33301 0 -16.5 -4.16699 -27.5 -12.5s-23.167 -22.166 -36.5 -41.499zM-116 -186.003c3.33301 13.333 6.33594 24.834 9.00293 34.501s6.66699 22.5 12 38.5
c-10.667 -12.667 -21.334 -26.667 -32.001 -42s-20.334 -30.833 -29.001 -46.5s-15.834 -31.334 -21.501 -47.001s-8.5 -30.5 -8.5 -44.5c0 -17.333 3.33301 -26 10 -26c6 0 12.833 6.5 20.5 19.5s16.167 34.5 25.5 64.5z" />
    <glyph glyph-name="g.001" unicode="&#xe006;" horiz-adv-x="322" 
d="M503 206c-32 0 -78.6719 -15.333 -140.005 -46s-136.666 -79.334 -225.999 -146.001c0.666992 0.666992 -1.16602 -4 -5.49902 -14s-8.83301 -22.333 -13.5 -37l-25.5 -69c-9.66699 -26.667 -20.334 -53.667 -32.001 -81s-23.667 -53.833 -36 -79.5
s-24.833 -47.5 -37.5 -65.5c-14 -20 -29.667 -37.667 -47 -53s-35.333 -23 -54 -23c-14 0 -26.167 5.33301 -36.5 16s-15.5 27.667 -15.5 51c0 28.667 6.83301 57.167 20.5 85.5s32 56.666 55 84.999s50 56.5 81 84.5s64.167 55.667 99.5 83
c2.66699 6 4.33398 10.667 5.00098 14s2.33398 8.33301 5.00098 15c-13.333 -9.33301 -26.333 -16.333 -39 -21s-24 -7 -34 -7c-20 0 -35.833 6.66699 -47.5 20s-17.5 30.666 -17.5 51.999c0 12 3 26.833 9 44.5s15 34.667 27 51s27 30.5 45 42.5s39 18 63 18
c12 0 23.167 -1.66699 33.5 -5s19.5 -9.66602 27.5 -18.999l4 13c2.66699 1.33301 5.83398 2.5 9.50098 3.5s7.16699 1.5 10.5 1.5c10 0 16.667 -2.33301 20 -7c0 -0.666992 0.166992 -1.16699 0.5 -1.5s0.5 -0.833008 0.5 -1.5l-64 -171c81.333 60 150.5 106.333 207.5 139
s103.5 49 139.5 49c4 0 9.33301 -0.666992 16 -2s13.167 -3.16602 19.5 -5.49902s11.833 -5.5 16.5 -9.5s7 -8.66699 7 -14c0 -4.66699 -2.33301 -7 -7 -7c-3.33301 0 -7.66602 1.66699 -12.999 5c-4 2.66699 -8.66699 5.33398 -14 8.00098s-11 4 -17 4zM-86.0049 -366
c14 12.667 28.1699 30.834 42.5029 54.501s28.166 50 41.499 79s26.166 59 38.499 90l33.5 87.5c0.666992 3.33301 2.16699 7.5 4.5 12.5s4.16602 9.16699 5.49902 12.5c-32 -25.333 -62 -51 -90 -77s-52.333 -52 -73 -78s-37 -52.333 -49 -79s-18 -53.334 -18 -80.001
c0 -14.667 2.5 -25.5 7.5 -32.5s10.833 -10.5 17.5 -10.5c10.667 0 23.667 7 39 21zM131.998 111c5.33301 13.333 10 26.332 14 38.999s8.33301 24.667 13 36c-12.667 14.667 -26.667 22 -42 22c-14.667 0 -29 -5.33301 -43 -16s-26.333 -23.667 -37 -39
s-19.334 -32 -26.001 -50s-10 -34 -10 -48c0 -11.333 2.5 -20.666 7.5 -27.999s13.5 -11 25.5 -11c4.66699 0 10.334 1.33301 17.001 4s13.667 6 21 10s14.5 8.5 21.5 13.5s13.167 9.83301 18.5 14.5z" />
    <glyph glyph-name="h.001" unicode="&#xe007;" 
d="M305 167c2 2 4.00293 3.00391 6.00293 3.00391c1.33301 0 3 -1 5 -3s3 -3.66699 3 -5c0 -2.66699 -3.66699 -8.83398 -11 -18.501s-16.833 -20.667 -28.5 -33l-39 -39.5c-14.333 -14 -28.5 -26.667 -42.5 -38s-26.833 -20.833 -38.5 -28.5s-20.834 -11.5 -27.501 -11.5
s-12.5 2.33301 -17.5 7s-7.5 12.667 -7.5 24c0 13.333 2.66699 26.5 8 39.5s11.333 26.833 18 41.5l18 38.5c6 13 10.667 26.833 14 41.5c2 6 3 11 3 15s-1.66699 6 -5 6c-10 0 -22.167 -6 -36.5 -18s-29.166 -26.833 -44.499 -44.5s-30.166 -36.334 -44.499 -56.001
l-36.5 -51.5c-4.66699 -7.33301 -9 -13.666 -13 -18.999l-10 -13c-8 -8 -16.333 -12 -25 -12c-6 0 -10.5 1.16699 -13.5 3.5s-4.5 5.16602 -4.5 8.49902c7.33301 22 16 45.833 26 71.5l31.5 78l33.5 78l33 71.5c-20.667 5.33301 -35 16 -43 32s-13 33.667 -15 53
c0 2.66699 0.833008 4.66699 2.5 6s3.16699 2 4.5 2c5.33301 0 8 -2.33301 8 -7c1.33301 -16.667 5.66602 -31.667 12.999 -45s19.666 -22 36.999 -26c14 29.333 29.333 59 46 89s34.167 57 52.5 81s37.166 43.5 56.499 58.5s39 22.5 59 22.5c14 0 24.5 -4.66699 31.5 -14
s10.5 -21.666 10.5 -36.999c0 -14.667 -3.5 -31 -10.5 -49s-17.667 -36.333 -32 -55s-32 -36.5 -53 -53.5s-45.5 -31.833 -73.5 -44.5c-8 -3.33301 -16.5 -6.33301 -25.5 -9s-18.167 -4.66699 -27.5 -6l-55.5 -122c-19 -43.333 -35.833 -85 -50.5 -125l42 57
c15.333 20 31.333 38.667 48 56s33.167 31.666 49.5 42.999s31.833 17 46.5 17c18 0 27 -9 27 -27c0 -12.667 -3.5 -27.834 -10.5 -45.501s-14.833 -35.834 -23.5 -54.501l-20 -46c-6 -14 -9 -25 -9 -33c0 -4 1.33301 -6 4 -6c7.33301 0 18.5 6.66699 33.5 20
s30.833 28.666 47.5 45.999s32.167 34.333 46.5 51s24.166 28.334 29.499 35.001zM261.003 537.004c-16 -10.667 -31.1709 -24.334 -45.5039 -41.001s-27.833 -34.834 -40.5 -54.501s-24.667 -40.167 -36 -61.5s-21.666 -42 -30.999 -62c32 5.33301 60.333 16.333 85 33
s45.334 35.334 62.001 56.001s29.334 41 38.001 61s13 36 13 48c0 8.66699 -1.66699 15.834 -5 21.501s-8.66602 8.5 -15.999 8.5s-15.333 -3 -24 -9z" />
    <glyph glyph-name="i.001" unicode="&#xe008;" horiz-adv-x="148" 
d="M-48 24c0 14 3.33008 32.6689 9.99707 56.002s18.667 52 36 86l27 54c3.33301 5.33301 10 8 20 8c4.66699 0 9 -1 13 -3s6 -5.66699 6 -11c-25.333 -49.333 -44 -90.333 -56 -123s-18 -54.667 -18 -66c0 -4.66699 1 -7 3 -7c3.33301 0 8.83301 2.83301 16.5 8.5
s16.834 13.5 27.501 23.5l63 57l75 70.5c25.333 23 50 43.833 74 62.5s46.333 33.667 67 45s39 17 55 17c2.66699 0 6.5 -0.5 11.5 -1.5s9.83301 -2.5 14.5 -4.5s8.66699 -4.5 12 -7.5s5 -6.5 5 -10.5c0 -4.66699 -2.33301 -7 -7 -7c-3.33301 0 -6.33301 1 -9 3l-10.5 6.5
c-3.66699 2.33301 -7.5 3.5 -11.5 3.5c-14.667 0 -33 -6.33301 -55 -19s-45.667 -28.834 -71 -48.501s-51.5 -41.667 -78.5 -66l-78.5 -71.5l-22.5 -21c-7.66699 -7.33301 -15.167 -14 -22.5 -20c-3.33301 -3.33301 -8.16602 -7.5 -14.499 -12.5s-13 -9.83301 -20 -14.5
s-14.167 -8.83398 -21.5 -12.501s-13.666 -5.5 -18.999 -5.5s-10 2 -14 6s-6.33301 10.667 -7 20v5zM56.9971 271.002c6.66699 0 11.667 -2.16699 15 -6.5s5 -8.83301 5 -13.5c0 -6 -1.83301 -11 -5.5 -15s-8.5 -6 -14.5 -6s-10.833 2 -14.5 6s-5.5 9 -5.5 15
c0 5.33301 1.83301 10 5.5 14s8.5 6 14.5 6z" />
    <glyph glyph-name="j.001" unicode="&#xe009;" horiz-adv-x="171" 
d="M27 137l-17 -47.5c-6 -17 -11.667 -34.5 -17 -52.5c81.333 60.667 151.166 107.5 209.499 140.5s105.5 49.5 141.5 49.5c4 0 9.5 -0.666992 16.5 -2s13.667 -3.16602 20 -5.49902s11.833 -5.5 16.5 -9.5s7 -8.66699 7 -14c0 -4.66699 -2.33301 -7 -7 -7
c-1.33301 0 -2.83301 0.666992 -4.5 2s-3.83398 2.66602 -6.50098 3.99902v-1c-4 2.66699 -9 5.33398 -15 8.00098s-12.333 4 -19 4c-32 0 -79.333 -15.833 -142 -47.5s-138 -80.167 -226 -145.5l-18 -50l-24.5 -68.5c-9.66699 -26.333 -20.167 -53.333 -31.5 -81
s-23.333 -54.334 -36 -80.001s-25 -47.5 -37 -65.5c-14 -20 -29.667 -37.667 -47 -53s-35.666 -23 -54.999 -23c-13.333 0 -25.166 5.33301 -35.499 16s-15.5 27.667 -15.5 51c0 28.667 6.83301 57.167 20.5 85.5s32 56.666 55 84.999s50 56.5 81 84.5
s64.167 55.667 99.5 83l75 221c2.66699 6 9 9 19 9c4.66699 0 9 -1.16699 13 -3.5s6 -6.16602 6 -11.499c-4 -13.333 -8.16699 -25.833 -12.5 -37.5zM-237 -366c14.667 12.667 29.001 30.834 43.001 54.501s27.833 50 41.5 79s26.5 59 38.5 90l34 87.5
c0.666992 3.33301 2.16699 7.5 4.5 12.5s4.16602 9.16699 5.49902 12.5c-32 -25.333 -62 -51 -90 -77s-52.333 -52 -73 -78s-37 -52.333 -49 -79s-18 -53.334 -18 -80.001c0 -14.667 2.5 -25.5 7.5 -32.5s10.833 -10.5 17.5 -10.5c10 0 22.667 7 38 21zM44.001 270
c6 0 10.833 -1.99902 14.5 -5.99902s5.5 -8.66699 5.5 -14c0 -6 -1.83301 -11 -5.5 -15s-8.5 -6 -14.5 -6c-5.33301 0 -10 1.66699 -14 5s-6 8.66602 -6 15.999c0 6 2 10.833 6 14.5s8.66699 5.5 14 5.5z" />
    <glyph glyph-name="k.001" unicode="&#xe00a;" horiz-adv-x="298" 
d="M1 388c0 5.33301 1.99805 8 5.99805 8c4.66699 0 7.66699 -2.33301 9 -7c1.33301 -16.667 5.83301 -31.167 13.5 -43.5s19.5 -20.833 35.5 -25.5c10.667 24 23.5 50.833 38.5 80.5s31.333 57.334 49 83.001s36.5 47.334 56.5 65.001s40.333 26.5 61 26.5
c15.333 0 27.333 -5.66699 36 -17s13 -26 13 -44c0 -16 -5.16699 -35.5 -15.5 -58.5s-25 -45.5 -44 -67.5s-42 -41.333 -69 -58s-57.5 -26.334 -91.5 -29.001c-6.66699 -13.333 -12.5 -25.666 -17.5 -36.999l-17.5 -40c9.33301 4.66699 19.5 8.5 30.5 11.5
s22.167 4.5 33.5 4.5c2.66699 0 6.33398 -0.333008 11.001 -1s9.33398 -1.5 14.001 -2.5s8.66699 -2.5 12 -4.5s5 -4.33301 5 -7c0 -6 -2.66699 -9 -8 -9c-6 0 -11 1 -15 3c-3.33301 1.33301 -6.33301 2.33301 -9 3s-5.33398 1 -8.00098 1c-18 0 -32.667 -2.16699 -44 -6.5
s-20.333 -10 -27 -17s-11.167 -15 -13.5 -24s-3.5 -18.5 -3.5 -28.5c0 -14 1.5 -29 4.5 -45s7.66699 -30.667 14 -44s14 -24.333 23 -33s19.5 -13 31.5 -13c24.667 0 51.667 13.333 81 40s62 65 98 115c2 2 4 3 6 3c1.33301 0 3 -0.666992 5 -2s3 -3.33301 3 -6
c0 -2 -0.666992 -3.66699 -2 -5c-42 -58 -79.167 -99.667 -111.5 -125s-63.5 -38 -93.5 -38c-22.667 0 -42.334 8.16699 -59.001 24.5s-28 41.5 -34 75.5l-15 -40l-22 -55c-2.66699 -4.66699 -10 -7 -22 -7c-5.33301 0 -10 1 -14 3s-5.33301 5.66699 -4 11l62 152l64 147
c-19.333 5.33301 -33.166 15.666 -41.499 30.999s-13.166 32.666 -14.499 51.999zM236.998 530c-26 -23.333 -49.168 -53.168 -69.501 -89.501s-40.833 -77.166 -61.5 -122.499c26.667 4 51.834 13 75.501 27s44.5 30.5 62.5 49.5s32.167 39 42.5 60s15.5 40.5 15.5 58.5
c0 11.333 -2.33301 20.333 -7 27s-11 10 -19 10c-5.33301 0 -11.333 -1.5 -18 -4.5s-13.667 -8.16699 -21 -15.5z" />
    <glyph glyph-name="l.001" unicode="&#xe00b;" horiz-adv-x="215" 
d="M27 347c8 -13.333 19.002 -21.9961 33.002 -25.9961c10 22 22.5 47.5 37.5 76.5s31.667 56.667 50 83s37.833 48.666 58.5 66.999s42 27.5 64 27.5c16.667 0 28.667 -6 36 -18s11 -26 11 -42c0 -10.667 -1.66699 -22.834 -5 -36.501s-9 -27.667 -17 -42
s-18.5 -28.833 -31.5 -43.5s-28.833 -28.667 -47.5 -42c-19.333 -13.333 -39.666 -24.666 -60.999 -33.999s-42 -14.333 -62 -15l-18.5 -41c-8.33301 -18.667 -16.5 -39.334 -24.5 -62.001s-15.167 -45.834 -21.5 -69.501s-9.5 -44.834 -9.5 -63.501c0 -14 2.5 -26 7.5 -36
s14.167 -15 27.5 -15s27.666 5.83301 42.999 17.5s30.333 25.5 45 41.5s28.167 32.667 40.5 50s22.166 31.666 29.499 42.999l-1 -1c1.33301 2.66699 3.66602 4 6.99902 4c1.33301 0 3 -0.833008 5 -2.5s3 -3.16699 3 -4.5c0 -2 -0.666992 -3.66699 -2 -5l-33 -49
c-12.667 -18.667 -27 -36.5 -43 -53.5s-33 -31.5 -51 -43.5s-36.333 -18 -55 -18c-22.667 0 -38.667 6.83301 -48 20.5s-14 31.167 -14 52.5c0 20 2.83301 41.833 8.5 65.5s12.5 46.834 20.5 69.501s16.167 43.167 24.5 61.5l19.5 42.5c-8 2.66699 -16.5 7.5 -25.5 14.5
s-13.5 14.167 -13.5 21.5c0 4.66699 2.33301 7 7 7c2 0 3.66699 -0.666992 5 -2h1zM237.002 531.004c-14 -12 -27.666 -26.9971 -40.999 -44.9971s-25.833 -36.833 -37.5 -56.5s-22.334 -39.334 -32.001 -59.001l-25.5 -51.5c24 2.66699 47.667 10.167 71 22.5
s44.5 27.666 63.5 45.999s34.333 38.666 46 60.999s17.5 44.5 17.5 66.5c0 12 -2.16699 21 -6.5 27s-10.166 9 -17.499 9c-5.33301 0 -11.333 -1.66699 -18 -5s-13.334 -8.33301 -20.001 -15z" />
    <glyph glyph-name="m.001" unicode="&#xe00c;" horiz-adv-x="433" 
d="M689 317c3.33301 0 7.66406 -0.494141 12.9971 -1.49414s10.666 -2.5 15.999 -4.5s9.83301 -4.66699 13.5 -8s5.5 -7.33301 5.5 -12s-2.33301 -7 -7 -7c-2 0 -5.66699 1.33301 -11 4c-3.33301 2 -7 4 -11 6s-8.33301 3 -13 3c-16.667 0 -35.5 -5.16699 -56.5 -15.5
s-43.167 -24 -66.5 -41s-47.666 -36 -72.999 -57l-76 -64l-75 -62.5c-24.667 -20 -48.334 -37.333 -71.001 -52c-3.33301 -2 -8.33301 -4.5 -15 -7.5s-13.667 -4.5 -21 -4.5c-8 0 -13.5 2.33301 -16.5 7s-4.5 10 -4.5 16c0 8.66699 2.16699 18.167 6.5 28.5
s8.16602 18.166 11.499 23.499l45 85c3.33301 7.33301 6.33301 15 9 23s4 15 4 21c0 6.66699 -1.33301 12.167 -4 16.5s-7.33398 6.5 -14.001 6.5s-16 -3 -28 -9c-22.667 -11.333 -47 -32 -73 -62l1 1l-78 -145c-1.33301 -2.66699 -4.16602 -4.83398 -8.49902 -6.50098
s-8.5 -2.5 -12.5 -2.5c-5.33301 0 -9.83301 1 -13.5 3s-5.5 4.66699 -5.5 8c0 2 0.666992 3.66699 2 5l-1 -1l79 149c6.66699 11.333 10 22.333 10 33c0 8.66699 -2 15 -6 19s-9 6 -15 6c-13.333 0 -28.333 -5.83301 -45 -17.5s-34 -27.5 -52 -47.5l1 1l-81 -151
c-2.66699 -4.66699 -10 -7 -22 -7c-5.33301 0 -9.66602 0.666992 -12.999 2s-5 3.66602 -5 6.99902c0 1.33301 0.333008 2.66602 1 3.99902l113 208c1.33301 1.33301 4.5 2.66602 9.5 3.99902s9.5 2 13.5 2c11.333 0 17 -2.66699 17 -8
c0 -0.666992 -0.166992 -1.33398 -0.5 -2.00098s-0.5 -1.33398 -0.5 -2.00098l-6 -11c13.333 12.667 26.833 22.167 40.5 28.5s28.834 9.5 45.501 9.5c10.667 0 20.834 -3.33301 30.501 -10s14.5 -18.334 14.5 -35.001c0 -2.66699 0.333008 -3.66699 1 -3
s0.333984 -0.666016 -0.999023 -3.99902c18.667 17.333 36.834 30.333 54.501 39s33.167 13 46.5 13c16.667 0 28.334 -4 35.001 -12s10 -18 10 -30c0 -9.33301 -1.33301 -18.333 -4 -27s-6.33398 -17 -11.001 -25l-44 -84c-3.33301 -5.33301 -7.33301 -12.5 -12 -21.5
s-7 -15.5 -7 -19.5c0 -2 0.666992 -3 2 -3c4.66699 0 9.66699 1.66699 15 5c20 12.667 41.333 28.834 64 48.501l70 62l73 66c24.667 22.333 49 42.333 73 60s47.333 32 70 43s44 16.5 64 16.5z" />
    <glyph glyph-name="n.001" unicode="&#xe00d;" horiz-adv-x="288" 
d="M181 63l22 19.0029l80 69c28.667 24 57.167 46.333 85.5 67s55.333 37.667 81 51s48.167 20 67.5 20c2.66699 0 6.66699 -0.5 12 -1.5s10.666 -2.5 15.999 -4.5s9.83301 -4.66699 13.5 -8s5.5 -7.33301 5.5 -12s-2.33301 -7 -7 -7c-2 0 -5.66699 1.33301 -11 4
c-3.33301 2 -7 4 -11 6s-8 3 -12 3c-18 0 -40.667 -7.33301 -68 -22s-56.833 -33.334 -88.5 -56.001s-64 -47.667 -97 -75l-94.5 -78c-14.667 -12.667 -29 -23.167 -43 -31.5s-25.667 -12.5 -35 -12.5c-7.33301 0 -13.166 2.16699 -17.499 6.5s-6.5 10.166 -6.5 17.499
c0 13.333 3.66699 26.833 11 40.5s15.666 28.167 24.999 43.5c10 16 19.167 31.833 27.5 47.5s12.5 30.167 12.5 43.5c0 7.33301 -1.66699 13.333 -5 18s-8.66602 7 -15.999 7c-10.667 0 -24.834 -5.66699 -42.501 -17s-34.5 -26.666 -50.5 -45.999l1 1l-85 -153
c-3.33301 -4 -9.66602 -6 -18.999 -6c-5.33301 0 -10.166 0.666992 -14.499 2s-5.83301 4.66602 -4.5 9.99902l113 208c0.666992 0.666992 3.5 1.83398 8.5 3.50098s10.167 2.5 15.5 2.5c10 0 15 -2.66699 15 -8c0 -0.666992 -0.166992 -1.33398 -0.5 -2.00098
s-0.5 -1.33398 -0.5 -2.00098l-4 -10c14.667 12 29.167 21.167 43.5 27.5s26.833 9.5 37.5 9.5c16 0 27.667 -4.83301 35 -14.5s11 -21.167 11 -34.5c0 -11.333 -4.83301 -27.166 -14.5 -47.499s-19.834 -39.833 -30.501 -58.5l-20 -37.5c-6 -11.667 -9 -19.834 -9 -24.501
c0 -2 1 -3 3 -3c4 0 10.333 3 19 9s18.667 13.667 30 23z" />
    <glyph glyph-name="o.001" unicode="&#xe00e;" horiz-adv-x="291" 
d="M369 397c-1.33301 1.33301 -1.99609 3.33789 -1.99609 6.00488c0 4 2.33301 6 7 6s8.66699 -2 12 -6s6 -9 8 -15s3.5 -12.167 4.5 -18.5s1.5 -11.5 1.5 -15.5c0 -17.333 -3.66699 -36.5 -11 -57.5s-17.333 -42.333 -30 -64s-27.5 -42.667 -44.5 -63
s-35.333 -38.5 -55 -54.5s-40.167 -28.833 -61.5 -38.5s-42.333 -14.5 -63 -14.5h-8c-17.333 -22.667 -35.833 -39.834 -55.5 -51.501s-37.167 -17.5 -52.5 -17.5c-16.667 0 -30.167 5.66699 -40.5 17s-15.5 28 -15.5 50c0 16.667 3.33301 34.834 10 54.501
s16 37.834 28 54.501s26.333 30.5 43 41.5s35 16.5 55 16.5c4.66699 0 11.167 -0.5 19.5 -1.5s12.5 -3.83301 12.5 -8.5c0 -6 -4 -9 -12 -9c-5.33301 1.33301 -9 2 -11 2c-14.667 0 -28.334 -5.33301 -41.001 -16s-23.834 -23.834 -33.501 -39.501
s-17.167 -32.334 -22.5 -50.001s-8 -33.834 -8 -48.501c0 -12 2.33301 -22 7 -30s11.667 -12 21 -12c6.66699 0 13.667 1.83301 21 5.5s14.666 8 21.999 13s14.166 10.5 20.499 16.5s11.5 11.333 15.5 16c-11.333 5.33301 -20.166 12.666 -26.499 21.999
s-9.5 19.333 -9.5 30c0 10 2 20 6 30s9.16699 19.167 15.5 27.5s13.666 15 21.999 20s17.166 7.5 26.499 7.5c10.667 0 18.334 -2.83301 23.001 -8.5s7 -12.834 7 -21.501c0 -15.333 -4.16699 -32.333 -12.5 -51s-15.833 -33.334 -22.5 -44.001
c20 1.33301 40 7.16602 60 17.499s38.833 23.333 56.5 39s34.167 33.334 49.5 53.001s28.5 39.834 39.5 60.501s19.667 40.667 26 60s9.5 36.666 9.5 51.999c0 14.667 -3.33301 27 -10 37zM120.004 78.0049l1 1h2zM91.0039 117.005c0 -20.667 10 -33.3359 30 -38.0029
c4 6 8.16699 12.833 12.5 20.5s8.33301 15.834 12 24.501s6.5 17 8.5 25s3 15.333 3 22c0 4 -0.833008 7.5 -2.5 10.5s-4.83398 4.5 -9.50098 4.5c-7.33301 0 -14.166 -2.16699 -20.499 -6.5s-12 -9.66602 -17 -15.999s-9 -13.666 -12 -21.999s-4.5 -16.5 -4.5 -24.5z" />
    <glyph glyph-name="p.001" unicode="&#xe00f;" horiz-adv-x="343" 
d="M349 311c0 18 -2.33398 34.4971 -7.00098 49.4971s-11.334 27.167 -20.001 36.5c-1.33301 0.666992 -2.33301 1.66699 -3 3s-1 2.66602 -1 3.99902c0 4.66699 3.66699 6.66699 11 6c14 -8.66699 24.333 -21.667 31 -39s10 -37 10 -59c0 -26 -4.66699 -53.667 -14 -83
s-22.5 -56.333 -39.5 -81s-37.5 -45.167 -61.5 -61.5s-51 -24.5 -81 -24.5h-7.5c-3 0 -5.83301 0.333008 -8.5 1c-19.333 -24 -39.833 -41.833 -61.5 -53.5s-40.167 -17.5 -55.5 -17.5c-12 0 -20.833 2.5 -26.5 7.5s-8.5 10.833 -8.5 17.5c0 11.333 4.33301 20.833 13 28.5
s19.167 13.834 31.5 18.501s25.5 8.16699 39.5 10.5s26.333 3.83301 37 4.5c8 11.333 15.833 25.5 23.5 42.5s11.5 32.833 11.5 47.5c0 14 -3.66699 23.833 -11 29.5s-15 8.5 -23 8.5s-16.5 -1.5 -25.5 -4.5s-18 -6.83301 -27 -11.5s-17.167 -10 -24.5 -16
s-13.333 -12 -18 -18l1 1l-112 -300c-17.333 -46 -33.5 -84 -48.5 -114s-28.667 -53.833 -41 -71.5s-23.666 -30 -33.999 -37s-19.5 -10.5 -27.5 -10.5c-11.333 0 -19.333 4.83301 -24 14.5s-7 21.167 -7 34.5c0 12.667 2.33301 27.167 7 43.5s12.667 33.333 24 51
s26 35.167 44 52.5s40.667 33 68 47l134 348c1.33301 1.33301 3.83301 2.83301 7.5 4.5s7.5 2.5 11.5 2.5c4.66699 0 9 -0.833008 13 -2.5s6 -4.16699 6 -7.5c0 -2 -0.833008 -5 -2.5 -9l-4.5 -11l-1 -3c31.333 23.333 62 35 92 35c18.667 0 33.834 -4.66699 45.501 -14
s17.5 -23.666 17.5 -42.999c0 -11.333 -2.5 -24.666 -7.5 -39.999s-12.833 -31.666 -23.5 -48.999h4c27.333 0 51.833 7.5 73.5 22.5s40 33.833 55 56.5s26.333 47.667 34 75s11.5 53.333 11.5 78zM-199.001 -310.003c8 12.667 15.8281 26.668 23.4951 42.001l21.5 44.5
c6.66699 14.333 12.334 27.5 17.001 39.5s8.66699 21.667 12 29c-21.333 -12 -39.666 -25.333 -54.999 -40s-27.666 -29.334 -36.999 -44.001s-16.166 -29.167 -20.499 -43.5s-6.5 -27.166 -6.5 -38.499c0 -16.667 3.33301 -25 10 -25c3.33301 0 7.83301 2.66699 13.5 8
s12.834 14.666 21.501 27.999zM57.9941 18.998c11.333 5.33301 21.499 11.5 30.499 18.5s17.5 15.167 25.5 24.5c-30.667 -1.33301 -53.5 -6.83301 -68.5 -16.5s-22.5 -19.167 -22.5 -28.5c0 -4 3 -6 9 -6c6.66699 0 15.334 2.66699 26.001 8z" />
    <glyph glyph-name="q.001" unicode="&#xe010;" horiz-adv-x="304" 
d="M593 205c1.33301 -1.33301 2 -2.99805 2 -4.99805c0 -4.66699 -2.33301 -7 -7 -7c-2 0 -4 0.666992 -6 2c-16.667 6.66699 -32.667 10 -48 10c-23.333 0 -47.166 -5.16699 -71.499 -15.5s-49 -24 -74 -41s-49.833 -36 -74.5 -57l-73 -62.5l-46 -41
c-14 -12.667 -28.667 -24.667 -44 -36c7.33301 -12 11 -29.333 11 -52c0 -16.667 -2.5 -35.167 -7.5 -55.5s-11.5 -40.666 -19.5 -60.999s-17.333 -40 -28 -59s-21.5 -35.833 -32.5 -50.5s-22 -26.5 -33 -35.5s-21.167 -13.5 -30.5 -13.5c-8 0 -14.5 3.16699 -19.5 9.5
s-7.5 16.166 -7.5 29.499c0 22.667 4.5 51.5 13.5 86.5s19.5 70.333 31.5 106s23.833 68.834 35.5 99.501l25.5 67c-12 -8 -24 -13.833 -36 -17.5s-23 -5.5 -33 -5.5c-22.667 0 -38.167 6 -46.5 18s-12.5 25.667 -12.5 41c0 22.667 4 44.167 12 64.5
s18.667 38.166 32 53.499s28.166 27.666 44.499 36.999s33.166 14 50.499 14c12.667 0 24.334 -2.33301 35.001 -7s20.334 -11 29.001 -19c4 9.33301 7.16699 15.166 9.5 17.499s6.16602 3.5 11.499 3.5c4 0 8 -1 12 -3s7 -4.66699 9 -8v-2l-94 -233
c5.33301 0 10.5 -1.5 15.5 -4.5s9.5 -6.16699 13.5 -9.5l39.5 34l45.5 42l75 66.5c26.667 23 53.167 44.167 79.5 63.5s52.333 35.333 78 48s49.167 19 70.5 19c25.333 0 46.333 -10.333 63 -31zM159 186.002c-12 14 -26.333 21.001 -43 21.001
c-16 0 -31.167 -5.16699 -45.5 -15.5s-26.833 -23 -37.5 -38s-19.167 -31.167 -25.5 -48.5s-9.5 -33.333 -9.5 -48s2.83301 -24.667 8.5 -30s12.5 -8 20.5 -8c12.667 0 26 3.66699 40 11s25.667 14.666 35 21.999zM98 -64.9971l-2 -4l-3 3zM108 -72.9971
c-4.66699 0 -8.66699 1.33594 -12 4.00293c-2.66699 -6.66699 -7.83398 -20.834 -15.501 -42.501s-15.667 -46 -24 -73s-15.833 -53.833 -22.5 -80.5s-10 -48.334 -10 -65.001c0 -11.333 2 -17 6 -17c5.33301 0 12 4.16699 20 12.5s16.333 19.333 25 33
s17.167 29.334 25.5 47.001s15.833 35.667 22.5 54s12.167 36.333 16.5 54s6.5 33.167 6.5 46.5c0 7.33301 -0.5 14.666 -1.5 21.999s-3.16699 13.666 -6.5 18.999c-4 -4 -8.66699 -7.33301 -14 -10s-10.666 -4 -15.999 -4zM107 -39.9941
c-0.666992 -0.666992 -1.5 -2.5 -2.5 -5.5s-1.5 -5.83301 -1.5 -8.5s1.33301 -4 4 -4c6 0 13.333 3.66699 22 11c-6 6 -11.667 9 -17 9c-2 0 -3.66699 -0.666992 -5 -2z" />
    <glyph glyph-name="r.001" unicode="&#xe011;" horiz-adv-x="208" 
d="M36 -11c-6.66699 -5.33301 -12.3291 -8.83008 -16.9961 -10.4971s-8.33398 -2.5 -11.001 -2.5c-8.66699 0 -13 5.33301 -13 16s3.66699 25.667 11 45s15.5 38.5 24.5 57.5s17.333 35.833 25 50.5l13.5 26c2 2 3 3.66699 3 5l-10 -5h1
c-6 -3.33301 -13.167 -6.83301 -21.5 -10.5s-16.166 -5.5 -23.499 -5.5c-10.667 0 -18.334 4.16699 -23.001 12.5s-7 15.5 -7 21.5c0 10.667 3.33301 19.5 10 26.5s13 10.5 19 10.5c9.33301 0 14 -6 14 -18c0 -7.33301 -1.5 -14.833 -4.5 -22.5
s-6.16699 -13.834 -9.5 -18.501c0.666992 0 0.833984 -0.166992 0.500977 -0.5s-0.166016 -0.5 0.500977 -0.5c4 0 9.33301 1.66699 16 5l21 10c6 4 12.667 7.66699 20 11s13.666 5 18.999 5s9.16602 -2 11.499 -6s3.5 -7.66699 3.5 -11
c0 -6.66699 -3.83301 -17.5 -11.5 -32.5l-25.5 -48.5l-25.5 -49c-7.66699 -15.333 -11.5 -26.333 -11.5 -33c0 -2 0.666992 -3 2 -3c2.66699 0 6.16699 1.33301 10.5 4s9.16602 6 14.499 10l57 45l84 66c30 23.333 59.833 44.833 89.5 64.5s58.167 36 85.5 49
s51.333 19.5 72 19.5c4 0 9 -0.5 15 -1.5s12 -2.66699 18 -5s11.167 -5.33301 15.5 -9s6.5 -7.83398 6.5 -12.501s-2.33301 -7 -7 -7c-2.66699 0 -4.83398 0.333008 -6.50098 1s-3.83398 1.66699 -6.50098 3l-12.5 6c-4.33301 2 -8.83301 3 -13.5 3
c-19.333 0 -42.666 -6.33301 -69.999 -19s-56.333 -28.834 -87 -48.501s-61.834 -41.167 -93.501 -64.5l-89.5 -67l-45 -34z" />
    <glyph glyph-name="s.001" unicode="&#xe012;" horiz-adv-x="169" 
d="M-29 -32c-2.66699 -0.666992 -5.16406 -1.17188 -7.49707 -1.50488s-5.16602 -0.5 -8.49902 -0.5c-10.667 0 -18.667 2.66699 -24 8s-8 12 -8 20c0 12 5.33301 23.5 16 34.5s27.334 23.167 50.001 36.5c0 4 0.166992 7.5 0.5 10.5s0.5 6.16699 0.5 9.5
c1.33301 20.667 2.66602 38.5 3.99902 53.5s3.33301 28 6 39s6.66699 20.167 12 27.5s12.666 13.666 21.999 18.999h-1c4.66699 2.66699 10.667 4 18 4c4.66699 0 9 -1.16699 13 -3.5s6 -6.16602 6 -11.499c0 -13.333 -7.33301 -20.666 -22 -21.999
c-6 -11.333 -9.83301 -24.666 -11.5 -39.999s-2.83398 -31 -3.50098 -47c0 -3.33301 -0.166992 -5.66602 -0.5 -6.99902s-0.5 -3.66602 -0.5 -6.99902l88.5 50c31.667 17.333 63.167 33.166 94.5 47.499s61.333 26 90 35s54 13.5 76 13.5c5.33301 0 11.5 -0.666992 18.5 -2
s13.667 -3.16602 20 -5.49902s11.666 -5.5 15.999 -9.5s6.5 -9 6.5 -15c0 -1.33301 -0.5 -3 -1.5 -5s-2.83301 -3 -5.5 -3s-6 1.66699 -10 5s-9.16699 6.66602 -15.5 9.99902s-13.833 5 -22.5 5c-20 0 -44.5 -4.5 -73.5 -13.5s-59.667 -20.667 -92 -35
s-65 -30.166 -98 -47.499l-92.5 -50c-2 -24 -6.83301 -45.667 -14.5 -65s-22.834 -31.666 -45.501 -36.999zM-29.9971 -1.00488c5.33301 6 9.16895 13.167 11.502 21.5s4.16602 16.833 5.49902 25.5c-18.667 -11.333 -31.334 -21 -38.001 -29s-10 -15.667 -10 -23
c0 -6.66699 2.66699 -10 8 -10c7.33301 0 15 5 23 15z" />
    <glyph glyph-name="t.001" unicode="&#xe013;" horiz-adv-x="150" 
d="M154 514c1.33301 3.33301 7.33301 5.00488 18 5.00488c4.66699 0 9 -0.833008 13 -2.5s6 -4.5 6 -8.5c0 -2.66699 -0.333008 -4.66699 -1 -6c-20 -37.333 -38.833 -75.333 -56.5 -114s-34.167 -77 -49.5 -115l-29.5 -75.5l-26.5 -72
c-8 -22.333 -14.333 -41.833 -19 -58.5s-7 -28.334 -7 -35.001c0 -5.33301 1 -8 3 -8c4.66699 0 11.5 3.16699 20.5 9.5s18.833 14.666 29.5 24.999l33.5 34l33.5 36.5l18.5 20.5c5.66699 6.33301 11.167 12.166 16.5 17.499c1.33301 1.33301 3 2 5 2
c2.66699 0 4.66699 -1 6 -3s2 -4 2 -6s-0.666992 -3.66699 -2 -5l-31 -33l-37.5 -40.5c-13.667 -14.333 -27.334 -27.5 -41.001 -39.5s-26.834 -21.833 -39.501 -29.5s-24 -11.5 -34 -11.5c-13.333 0 -20 11.333 -20 34c0 15.333 3 34.666 9 57.999s13.667 47.666 23 72.999
l3 7c8.66699 24 18.834 50.667 30.501 80s24.334 59.333 38.001 90l42 91c14.333 30 28.833 57.333 43.5 82v-2zM249 432.005c-24 -2 -48.666 -3.66699 -73.999 -5s-50.333 -2 -75 -2c-27.333 0 -53 1.16699 -77 3.5s-45 6.33301 -63 12s-32.333 13.5 -43 23.5
s-16.334 22.667 -17.001 38c0 5.33301 2.33301 8 7 8c2.66699 0 5.66699 -2.66699 9 -8c1.33301 -10.667 7.5 -19.5 18.5 -26.5s25.5 -12.667 43.5 -17s38.667 -7.33301 62 -9s48 -2.5 74 -2.5c22.667 0 45.667 0.5 69 1.5s46.333 2.16699 69 3.5c2.66699 0 4.66699 -1 6 -3
s2 -4 2 -6c0 -7.33301 -3.66699 -11 -11 -11z" />
    <glyph glyph-name="u.001" unicode="&#xe014;" horiz-adv-x="293" 
d="M155 37c9.33301 7.33301 19.5039 15.8369 30.5039 25.5039s21.833 19.834 32.5 30.501l30 30.5l25 25.5c3.33301 3.33301 6.33301 6.16602 9 8.49902s5 4.5 7 6.5l6 6c2.66699 0 4.66699 -1 6 -3s2 -4 2 -6c0 -2.66699 -5.5 -10 -16.5 -22s-24.5 -25.667 -40.5 -41
l-50 -46c-17.333 -15.333 -32 -27.333 -44 -36l-8 -6c-6 -4.66699 -12 -8.83398 -18 -12.501s-12.333 -5.16699 -19 -4.5c-8 0.666992 -13.667 3.5 -17 8.5s-5 11.167 -5 18.5c0 9.33301 1.5 19.333 4.5 30s6.5 20.667 10.5 30l-23 -28.5
c-8 -9.66699 -16.5 -18.5 -25.5 -26.5s-18.333 -14.667 -28 -20s-19.5 -8 -29.5 -8c-11.333 0 -19.333 3.66699 -24 11s-7 17 -7 29c0 13.333 2.5 29.166 7.5 47.499s10.833 36.5 17.5 54.5s13.5 34.333 20.5 49l15.5 33c1.33301 2 4 3.5 8 4.5s8 1.5 12 1.5
c5.33301 0 10.166 -0.833008 14.499 -2.5s5.83301 -4.83398 4.5 -9.50098c-4 -7.33301 -9.5 -18.666 -16.5 -33.999s-14 -31.833 -21 -49.5s-13.167 -35.167 -18.5 -52.5s-8 -31.333 -8 -42c0 -11.333 3.33301 -17 10 -17c8 0 17 4 27 12s20.333 18.167 31 30.5
s21.167 26 31.5 41l29 44c9 14.333 16.667 27.333 23 39s11.166 20.167 14.499 25.5c2.66699 6 5.16699 10 7.5 12s8.16602 3 17.499 3c5.33301 0 10.166 -0.833008 14.499 -2.5s5.83301 -4.83398 4.5 -9.50098l-23.5 -44c-9.66699 -18 -19 -36.5 -28 -55.5
s-16.833 -37 -23.5 -54s-10 -29.833 -10 -38.5c0 -2.66699 0.666992 -4 2 -4c2.66699 0 6.5 1.66699 11.5 5s10.833 7.66602 17.5 12.999zM353.004 62.0039c0 1.33301 0.335938 1.99805 1.00293 1.99805c4.66699 3.33301 9.16699 7 13.5 11l13.5 12l79 68.5
c28 23.667 55.833 45.334 83.5 65.001s54.167 36 79.5 49s47.666 19.5 66.999 19.5c2.66699 0 6.66699 -0.5 12 -1.5s10.666 -2.5 15.999 -4.5s9.83301 -4.66699 13.5 -8s5.5 -7.33301 5.5 -12s-2.33301 -7 -7 -7c-2 0 -5.66699 1.33301 -11 4c-3.33301 2 -7 4 -11 6
s-8 3 -12 3c-18.667 0 -41.834 -7.5 -69.501 -22.5s-57 -33.667 -88 -56s-62.333 -46.333 -94 -72l-87.5 -71.5c-1.33301 -1.33301 -2.5 -1.66602 -3.5 -0.999023s-1.5 1.66699 -1.5 3z" />
    <glyph glyph-name="v.001" unicode="&#xe015;" horiz-adv-x="314" 
d="M54 195l-16.498 -36.499c-6.33301 -14.333 -12.5 -29.166 -18.5 -44.499s-11 -30.166 -15 -44.499s-6 -26.166 -6 -35.499c0 -12 3.66699 -18 11 -18c8.66699 0 18.667 3.16699 30 9.5s23 14.666 35 24.999s23.667 21.666 35 33.999s21.666 24.5 30.999 36.5
c-3.33301 6 -5.83301 13 -7.5 21s-2.5 15.667 -2.5 23c0 14 2 26.5 6 37.5s9 20.5 15 28.5s12.167 14 18.5 18s12.166 6 17.499 6c15.333 0 23 -9.66699 23 -29c0 -12.667 -4.5 -28.167 -13.5 -46.5s-21.167 -37.833 -36.5 -58.5c12.667 -16 28.667 -24 48 -24
c10 0 19.833 2.33301 29.5 7s19 10.5 28 17.5s17.333 14.5 25 22.5s14.5 15.667 20.5 23c2 2 4 3 6 3c5.33301 0 8 -2.66699 8 -8c0 -3.33301 -2 -7.5 -6 -12.5s-8.66699 -10.167 -14 -15.5l-16 -15.5c-5.33301 -5 -9.66602 -8.83301 -12.999 -11.5
c-20.667 -17.333 -43.334 -26 -68.001 -26c-11.333 0 -22 2 -32 6s-18.667 10.667 -26 20c-11.333 -13.333 -23.333 -26.666 -36 -39.999s-25.667 -25.333 -39 -36s-26.833 -19.5 -40.5 -26.5s-27.167 -10.5 -40.5 -10.5c-12 0 -20.833 3.83301 -26.5 11.5
s-8.5 17.834 -8.5 30.501c0 11.333 2 24.666 6 39.999s9 30.666 15 45.999s12.333 30.333 19 45l17 37c0.666992 2 2 5.16699 4 9.5s3.66699 7.16602 5 8.49902s3.83301 2.66602 7.5 3.99902s7.5 2 11.5 2c4.66699 0 9 -0.833008 13 -2.5s6 -5.16699 6 -10.5z
M149.002 132.001l3 4c0 -2 0.666992 -3.66699 2 -5zM147.002 164.001c0 -4.66699 0.332031 -9.33105 0.999023 -13.998s2 -9.33398 4 -14.001c12 18 22.167 35 30.5 51s12.5 29 12.5 39c0 8.66699 -3 13 -9 13c-7.33301 0 -15.666 -6.83301 -24.999 -20.5
s-14 -31.834 -14 -54.501zM353.001 62.0039c0 1.33301 0.335938 1.99805 1.00293 1.99805c4.66699 3.33301 9.16699 7 13.5 11l13.5 12l79 68.5c28 23.667 55.833 45.334 83.5 65.001s54.167 36 79.5 49s47.666 19.5 66.999 19.5c2.66699 0 6.66699 -0.5 12 -1.5
s10.666 -2.5 15.999 -4.5s9.83301 -4.66699 13.5 -8s5.5 -7.33301 5.5 -12s-2.33301 -7 -7 -7c-2 0 -5.66699 1.33301 -11 4c-3.33301 2 -7 4 -11 6s-8 3 -12 3c-18.667 0 -41.834 -7.5 -69.501 -22.5s-57 -33.667 -88 -56s-62.333 -46.333 -94 -72l-87.5 -71.5
c-1.33301 -1.33301 -2.5 -1.66602 -3.5 -0.999023s-1.5 1.66699 -1.5 3z" />
    <glyph glyph-name="w.001" unicode="&#xe016;" horiz-adv-x="454" 
d="M349 96c20.667 0 39.4961 7.50195 56.4961 22.502s31.833 31.167 44.5 48.5c2 2 3.66699 3 5 3c2 0 4 -0.666992 6 -2s3 -3.33301 3 -6s-1.83301 -6.5 -5.5 -11.5s-8.16699 -10.167 -13.5 -15.5l-16.5 -16c-5.66699 -5.33301 -10.167 -9.33301 -13.5 -12
c-11.333 -8.66699 -22.166 -15.334 -32.499 -20.001s-21.5 -7 -33.5 -7c-14 0 -26 2.66699 -36 8s-18 11.666 -24 18.999c-8.66699 -11.333 -19.167 -23.5 -31.5 -36.5s-25.5 -25.167 -39.5 -36.5s-28.333 -20.833 -43 -28.5s-28.667 -11.5 -42 -11.5s-22.5 4.5 -27.5 13.5
s-7.5 19.167 -7.5 30.5c0 3.33301 -0.166992 5 -0.5 5s-0.166016 1.66699 0.500977 5c-15.333 -14.667 -32.166 -27.334 -50.499 -38.001s-35.833 -16 -52.5 -16c-13.333 0 -22.666 3.83301 -27.999 11.5s-8 17.834 -8 30.501c0 13.333 2.66699 28.833 8 46.5
s11.5 35.5 18.5 53.5s14.167 34.667 21.5 50l17 35c0.666992 2 3 3.33301 7 4s8.33301 1 13 1c5.33301 0 9.83301 -0.666992 13.5 -2s5.5 -4.66602 5.5 -9.99902l-9 -18l-19 -39.5c-6.66699 -14.333 -12.667 -28.5 -18 -42.5s-9.83301 -27.5 -13.5 -40.5
s-5.5 -24.833 -5.5 -35.5c0 -8 1.16699 -13.5 3.5 -16.5s5.83301 -4.5 10.5 -4.5c7.33301 0 16.166 2.83301 26.499 8.5s20.166 12 29.499 19s17.5 13.833 24.5 20.5s10.833 11 11.5 13c2.66699 12 7.33398 26.5 14.001 43.5s14 33.333 22 49s16.333 28.834 25 39.501
s16.334 16 23.001 16c7.33301 0 12.333 -2.33301 15 -7s4 -9.33398 4 -14.001c0 -6 -1.83301 -13 -5.5 -21s-8.16699 -16.333 -13.5 -25s-10.833 -17 -16.5 -25l-15.5 -22l-13 -19l1 1c-2 -7.33301 -4.16699 -16 -6.5 -26s-3.5 -19.667 -3.5 -29
c0 -6.66699 0.833008 -12.834 2.5 -18.501s5.16699 -8.5 10.5 -8.5c4.66699 0 10.834 1.83301 18.501 5.5s15.334 8.16699 23.001 13.5s15 10.833 22 16.5l17.5 14.5c8 8 16.833 17.5 26.5 28.5s18.167 21.167 25.5 30.5c-3.33301 6 -6 13 -8 21s-3 15.667 -3 23
c0 11.333 1.66699 22.333 5 33s7.66602 20 12.999 28s11.333 14.5 18 19.5s13.667 7.5 21 7.5c15.333 0 23 -9 23 -27c0 -8 -2 -17.167 -6 -27.5s-8.83301 -20.5 -14.5 -30.5s-11.334 -19.5 -17.001 -28.5s-10.5 -15.833 -14.5 -20.5c5.33301 -6.66699 12.333 -12 21 -16
s19 -6.33301 31 -7zM149.996 129.002c2 2.66699 4.33301 5.33301 7 8s5 6 7 10l-9 -21zM293.996 141.001l12 19.0029c4.66699 7.33301 9 15 13 23s7.5 15.667 10.5 23s4.5 13.666 4.5 18.999c0 8.66699 -2.66699 13 -8 13c-4 0 -8.33301 -1.83301 -13 -5.5
s-9 -8.83398 -13 -15.501s-7.5 -14.334 -10.5 -23.001s-4.5 -18 -4.5 -28c0 -10.667 2 -21 6 -31zM352.996 62.0039c0 1.33301 0.335938 1.99805 1.00293 1.99805c4.66699 3.33301 9.16699 7 13.5 11l13.5 12l79 68.5c28 23.667 55.833 45.334 83.5 65.001
s54.167 36 79.5 49s47.666 19.5 66.999 19.5c2.66699 0 6.66699 -0.5 12 -1.5s10.666 -2.5 15.999 -4.5s9.83301 -4.66699 13.5 -8s5.5 -7.33301 5.5 -12s-2.33301 -7 -7 -7c-2 0 -5.66699 1.33301 -11 4c-3.33301 2 -7 4 -11 6s-8 3 -12 3
c-18.667 0 -41.834 -7.5 -69.501 -22.5s-57 -33.667 -88 -56s-62.333 -46.333 -94 -72l-87.5 -71.5c-1.33301 -1.33301 -2.5 -1.66602 -3.5 -0.999023s-1.5 1.66699 -1.5 3z" />
    <glyph glyph-name="x.001" unicode="&#xe017;" horiz-adv-x="367" 
d="M416 460c-2.66699 2.66699 -4.00391 5.33203 -4.00391 7.99902c0 4.66699 3.33301 7 10 7c17.333 -12.667 30 -27.667 38 -45s12 -36.666 12 -57.999c0 -25.333 -4.83301 -52.166 -14.5 -80.499s-22.5 -56.5 -38.5 -84.5s-34.5 -54.833 -55.5 -80.5
s-43 -48.334 -66 -68.001s-45.833 -35.334 -68.5 -47.001s-44 -17.5 -64 -17.5c-16 0 -30.833 4.66699 -44.5 14s-25.167 24.333 -34.5 45c-15.333 -16 -32.5 -29.833 -51.5 -41.5s-37.167 -17.5 -54.5 -17.5c-14 0 -26.833 4.66699 -38.5 14s-20.5 25.666 -26.5 48.999
c0 4.66699 2.33301 7 7 7c2.66699 0 5 -1.66699 7 -5c5.33301 -17.333 11.5 -29.333 18.5 -36s14.833 -10 23.5 -10c10 0 20.833 4 32.5 12s23.5 17.667 35.5 29c15.333 13.333 28.666 27.666 39.999 42.999s20.833 30.5 28.5 45.5s13.334 29.5 17.001 43.5
s5.5 26.667 5.5 38c0 9.33301 -1.66699 17 -5 23s-8.33301 9 -15 9c-9.33301 0 -23.666 -8.5 -42.999 -25.5s-37.666 -40.833 -54.999 -71.5c-2.66699 -2.66699 -5 -4 -7 -4c-1.33301 0 -3 0.666992 -5 2s-3 3 -3 5s0.666992 3.66699 2 5l-1 -1
c21.333 39.333 42.666 67.5 63.999 84.5s40.666 25.5 57.999 25.5c12.667 0 23.334 -4 32.001 -12s14.667 -19 18 -33c16 16.667 31.333 28.167 46 34.5s28.334 9.5 41.001 9.5c17.333 0 31.333 -5.16699 42 -15.5s16 -22.833 16 -37.5c0 -2 -0.5 -5.33301 -1.5 -10
s-2.33301 -9.16699 -4 -13.5s-3.66699 -8.33301 -6 -12s-5.16602 -5.5 -8.49902 -5.5c-5.33301 0 -8 2.66699 -8 8c0 4.66699 1.66699 10.334 5 17.001c1.33301 3.33301 2.66602 6.33301 3.99902 9s2 5.33398 2 8.00098c0 7.33301 -2.16699 14.166 -6.5 20.499
s-11.166 9.5 -20.499 9.5c-7.33301 0 -15 -1.83301 -23 -5.5s-15.833 -8.33398 -23.5 -14.001s-14.667 -11.5 -21 -17.5s-11.5 -11.333 -15.5 -16c-20.667 -26 -36 -51 -46 -75s-15 -44.667 -15 -62c0 -14.667 3.83301 -26.167 11.5 -34.5s18.5 -12.5 32.5 -12.5
c17.333 0 36.333 5.83301 57 17.5s41.334 27.334 62.001 47.001s40.5 42.334 59.5 68.001s35.833 52.167 50.5 79.5s26.5 54.833 35.5 82.5s13.5 53.5 13.5 77.5c0 32.667 -11 56.334 -33 71.001v1z" />
    <glyph glyph-name="y.001" unicode="&#xe018;" horiz-adv-x="332" 
d="M148 125c-30.667 -46 -58.498 -79.501 -83.498 -100.501s-46.167 -31.5 -63.5 -31.5c-24.667 0 -37 17.333 -37 52c0 19.333 4.83301 43.5 14.5 72.5s26.167 63.833 49.5 104.5c2.66699 1.33301 5.66699 2.5 9 3.5s6.66602 1.5 9.99902 1.5
c5.33301 0 9.66602 -1 12.999 -3s5 -5.33301 5 -10c-4 -7.33301 -9.5 -18.166 -16.5 -32.499s-14 -30 -21 -47s-13 -34.167 -18 -51.5s-7.5 -32 -7.5 -44c0 -6.66699 1 -12.334 3 -17.001s5.33301 -7 10 -7c8.66699 0 19.334 5.33301 32.001 16s26.5 25.334 41.5 44.001
s30.667 40.5 47 65.5s32.5 51.833 48.5 80.5c1.33301 4.66699 5 7 11 7c5.33301 0 10.333 -1.33301 15 -4s7.66699 -5.33398 9 -8.00098v-3l-63 -174c81.333 60 150.666 106.333 207.999 139s104 49 140 49c4 0 9.33301 -0.666992 16 -2s13.167 -3.16602 19.5 -5.49902
s11.833 -5.5 16.5 -9.5s7 -8.66699 7 -14c0 -4.66699 -2.33301 -7 -7 -7c-3.33301 0 -7.66602 1.66699 -12.999 5c-4 2.66699 -8.66699 5.33398 -14 8.00098s-11.333 4 -18 4c-30.667 0 -77.334 -15.667 -140.001 -47s-137.667 -79.666 -225 -144.999
c0.666992 -0.666992 -1 -5.83398 -5 -15.501l-14 -35.5l-26 -69c-10 -26.667 -20.667 -53.667 -32 -81s-23.333 -53.833 -36 -79.5s-25 -47.5 -37 -65.5c-14 -20 -29.667 -37.667 -47 -53s-35.333 -23 -54 -23c-14 0 -26.167 5.33301 -36.5 16s-15.5 27.667 -15.5 51
c0 28.667 6.83301 57.167 20.5 85.5s32 56.666 55 84.999s50 56.5 81 84.5s64.167 55.667 99.5 83zM-76.998 -366.001c14 12.667 28.1699 30.834 42.5029 54.501s28.166 50 41.499 79s26.166 59 38.499 90l33.5 87.5c0.666992 3.33301 2.16699 7.5 4.5 12.5
s4.16602 9.16699 5.49902 12.5c-32 -25.333 -62 -51 -90 -77s-52.333 -52 -73 -78s-37 -52.333 -49 -79s-18 -53.334 -18 -80.001c0 -14.667 2.5 -25.5 7.5 -32.5s10.833 -10.5 17.5 -10.5c10.667 0 23.667 7 39 21z" />
    <glyph glyph-name="z.001" unicode="&#xe019;" horiz-adv-x="394" 
d="M440 301c1.33301 2.66699 3.66895 3.99805 7.00195 3.99805c1.33301 0 3 -0.666992 5 -2s3 -4 3 -8c-17.333 -52 -40.333 -96.5 -69 -133.5s-59.167 -67 -91.5 -90s-65.166 -39.833 -98.499 -50.5s-63.333 -16 -90 -16c-8 0 -15.333 0.5 -22 1.5s-13 2.16699 -19 3.5
c-9.33301 -8.66699 -17.833 -14.667 -25.5 -18s-14.5 -5 -20.5 -5c-7.33301 0 -12.833 2 -16.5 6s-5.5 8.66699 -5.5 14s2.83301 11 8.5 17s14.5 9 26.5 9c0.666992 0 1.16699 -0.166992 1.5 -0.5s1.16602 -0.5 2.49902 -0.5h4l40 39l44 44l45 46c14 14 27.667 27 41 39
c-0.666992 0 -1.33398 0.166992 -2.00098 0.5s-1.33398 0.5 -2.00098 0.5c-15.333 3.33301 -32.166 6.5 -50.499 9.5s-36.5 4.5 -54.5 4.5c-21.333 0 -40.5 -3.66699 -57.5 -11s-27.167 -21.333 -30.5 -42c-2 -3.33301 -4.66699 -5 -8 -5c-4.66699 0 -7 2.66699 -7 8
c4.66699 25.333 16.834 42.666 36.501 51.999s41.834 14 66.501 14c21.333 0 43.166 -2 65.499 -6s41.5 -8 57.5 -12c8 6.66699 15 11.167 21 13.5s11.667 3.5 17 3.5c7.33301 0 12.666 -1.66699 15.999 -5s5 -7.66602 5 -12.999c0 -12.667 -10.667 -19.667 -32 -21
c-12.667 -10.667 -26 -23.167 -40 -37.5l-42 -44.5l-46 -46.5l-43 -40.5c10 -2 20.667 -3 32 -3c24 0 51.167 5.16699 81.5 15.5s60.5 26.833 90.5 49.5s58.667 51.834 86 87.501s50.666 78.834 69.999 129.501zM262.003 209.998c1.33301 0 2.16699 0.168945 2.5 0.501953
s0.833008 0.5 1.5 0.5s1 0.333008 1 1c3.33301 1.33301 5 0.666016 5 -2.00098s-1.66699 -4.33398 -5 -5.00098c-0.666992 0 -1 -0.166992 -1 -0.5s-0.333008 -0.5 -1 -0.5h-1zM26.0039 17c-2 0 -4.33301 -0.666992 -7 -2l9 7l2 -5h-4z" />
    <glyph glyph-name="a.002" unicode="&#xe01a;" horiz-adv-x="281" 
d="M338 337c0 4.66699 -0.162109 9.33008 -0.495117 13.9971s-0.833008 9.66699 -1.5 15c-33.333 -7.33301 -65.5 -13.333 -96.5 -18s-61.167 -7 -90.5 -7c-26 0 -50 2.83301 -72 8.5s-40.833 14.334 -56.5 26.001s-28 26 -37 43s-13.5 36.833 -13.5 59.5
c0 16.667 3.16699 32.667 9.5 48s15.5 29 27.5 41s26.667 21.5 44 28.5s37 10.5 59 10.5c33.333 0 63.666 -5.66699 90.999 -17s51.333 -26.833 72 -46.5s37.667 -42.5 51 -68.5s22.333 -53.667 27 -83l59 16c40.667 11.333 80.667 21.5 120 30.5s75 13.5 107 13.5
c21.333 0 40.666 -2.5 57.999 -7.5s32 -13.5 44 -25.5s21.333 -28 28 -48s10 -45 10 -75c-1.33301 -4 -4 -6 -8 -6c-5.33301 0 -8 2.33301 -8 7c0 43.333 -11.167 75.666 -33.5 96.999s-51.5 32 -87.5 32c-11.333 0 -25.166 -1 -41.499 -3s-33.833 -4.83301 -52.5 -8.5
s-37.667 -7.66699 -57 -12l-56 -12.5l-40.5 -10l-40.5 -10c0.666992 -5.33301 1.16699 -10.5 1.5 -15.5s0.5 -10.167 0.5 -15.5c0 -29.333 -5.83301 -58.666 -17.5 -87.999s-26.5 -57.5 -44.5 -84.5s-38 -52.5 -60 -76.5s-43.667 -45.333 -65 -64
c-12 -9.33301 -22.833 -16.833 -32.5 -22.5s-18.167 -8.5 -25.5 -8.5c-16.667 0 -25 12 -25 36v4c-20 -14.667 -37.333 -25.167 -52 -31.5s-27 -9.5 -37 -9.5c-14.667 0 -25.334 5 -32.001 15s-10 23 -10 39s3.5 34 10.5 54s16.667 38.833 29 56.5
s27.166 32.334 44.499 44.001s36.333 17.5 57 17.5c19.333 0 38 -5.66699 56 -17c1.33301 2 2.5 4.16699 3.5 6.5s1.83301 4.5 2.5 6.5c0.666992 1.33301 3.16699 2.66602 7.5 3.99902s8.83301 2 13.5 2c5.33301 0 9.66602 -0.5 12.999 -1.5s5 -3.83301 5 -8.5
c0 -2 -0.666992 -4.33301 -2 -7c-6 -10 -13 -23 -21 -39s-15.667 -32.5 -23 -49.5s-13.5 -33.667 -18.5 -50s-7.5 -30.166 -7.5 -41.499c0 -3.33301 1.33301 -5 4 -5c7.33301 0 17.333 5.33301 30 16c22 19.333 43.667 40.333 65 63s40.666 46.834 57.999 72.501
s31.333 52.5 42 80.5s16 56.667 16 86zM110.005 589.996c-19.333 0 -36.001 -3 -50.001 -9s-25.667 -14 -35 -24s-16.333 -21.333 -21 -34s-7 -25.667 -7 -39c0 -22 4.5 -41 13.5 -57s21 -29.167 36 -39.5s32 -18 51 -23s38.5 -7.5 58.5 -7.5
c27.333 0 55.833 2.66699 85.5 8s60.834 12.333 93.501 21c-4 28 -12.167 54.333 -24.5 79s-28 46.167 -47 64.5s-41.333 33 -67 44s-54.5 16.5 -86.5 16.5zM16.0039 17.9961c7.33301 0 17 3.16895 29 9.50195s26.667 16.833 44 31.5
c4.66699 14.667 11.334 32.667 20.001 54s19.667 45.333 33 72c-12 5.33301 -22.667 8 -32 8c-16.667 0 -32 -5 -46 -15s-26.167 -22.333 -36.5 -37s-18.333 -30.334 -24 -47.001s-8.5 -31.334 -8.5 -44.001c0 -9.33301 1.66699 -17 5 -23s8.66602 -9 15.999 -9z" />
    </font>
</defs>
</svg>
